<?xml version="1.0" encoding="utf-8"?>
<!-- Generator: Adobe Illustrator 13.0.0, SVG Export Plug-In . SVG Version: 6.00 Build 14948)  -->
<!DOCTYPE svg PUBLIC "-//W3C//DTD SVG 1.1//EN" "http://www.w3.org/Graphics/SVG/1.1/DTD/svg11.dtd">
<svg version="1.1" id="Capa_1" xmlns="http://www.w3.org/2000/svg" xmlns:xlink="http://www.w3.org/1999/xlink" x="0px" y="0px"
	 width="512px" height="512px" viewBox="0 0 512 512" enable-background="new 0 0 512 512" xml:space="preserve">
<g>
	<g>
		<path fill="#000000" d="M491.71,3.314c-6.764-4.694-15.596-5.078-22.785-1.024L20.901,258.305
			c-7.296,4.159-11.479,12.245-10.646,20.629c0.833,8.385,6.507,15.489,14.486,18.135l146.524,48.834l9.6,145.674
			c0.597,9.021,6.806,16.683,15.489,19.114c1.92,0.531,3.883,0.812,5.803,0.812c6.806,0,13.334-3.264,17.409-9.003l80.517-113.67
			l108.678,36.226c2.221,0.747,4.48,1.109,6.742,1.109c3.84,0,7.639-1.045,11.008-3.072c5.355-3.199,9.024-8.598,10.049-14.763
			l64.005-384.02C501.907,16.179,498.473,8.008,491.71,3.314z M184.045,305.195L83.496,271.682L367.201,109.56L184.045,305.195z
			 M219.502,428.787L215,360.475l42.797,14.272L219.502,428.787z M398.585,376.71l-169.972-56.665L446.886,86.903L398.585,376.71z"
			/>
	</g>
</g>
</svg>
