<?xml version="1.0" encoding="utf-8"?>
<!-- Generator: Adobe Illustrator 13.0.0, SVG Export Plug-In . SVG Version: 6.00 Build 14948)  -->
<!DOCTYPE svg PUBLIC "-//W3C//DTD SVG 1.1//EN" "http://www.w3.org/Graphics/SVG/1.1/DTD/svg11.dtd">
<svg version="1.1" id="Layer_1" xmlns="http://www.w3.org/2000/svg" xmlns:xlink="http://www.w3.org/1999/xlink" x="0px" y="0px"
	 width="512px" height="512px" viewBox="0 0 512 512" enable-background="new 0 0 512 512" xml:space="preserve">
<g>
	<path fill="#363838" d="M479.942-0.5H303.894c-17.401,0-31.558,14.158-31.558,31.558c0,17.4,14.156,31.558,31.558,31.558h99.862
		l-166.581,166.58c-5.964,5.96-9.246,13.883-9.246,22.316c0,8.432,3.28,16.354,9.242,22.309c5.962,5.967,13.884,9.25,22.316,9.25
		c8.429,0,16.354-3.281,22.317-9.245l166.579-166.581v99.862c0,17.399,14.158,31.558,31.559,31.558
		c17.399,0,31.558-14.158,31.558-31.558V31.058C511.5,13.658,497.342-0.5,479.942-0.5z"/>
	<path fill="#363838" d="M362.213,457.4H53.6V148.787h232.105l54.1-54.099H26.55c-14.939,0-27.05,12.111-27.05,27.049V484.45
		c0,14.938,12.111,27.05,27.05,27.05h362.713c14.938,0,27.05-12.111,27.05-27.05V171.195l-54.1,54.1V457.4z"/>
</g>
</svg>
