<?xml version="1.0" encoding="utf-8"?>
<!-- Generator: Adobe Illustrator 13.0.0, SVG Export Plug-In . SVG Version: 6.00 Build 14948)  -->
<!DOCTYPE svg PUBLIC "-//W3C//DTD SVG 1.1//EN" "http://www.w3.org/Graphics/SVG/1.1/DTD/svg11.dtd">
<svg version="1.1" id="Layer_1" xmlns="http://www.w3.org/2000/svg" xmlns:xlink="http://www.w3.org/1999/xlink" x="0px" y="0px"
	 width="512px" height="512px" viewBox="0 0 512 512" enable-background="new 0 0 512 512" xml:space="preserve">
<g>
	<g>
		<path fill="#4E7851" d="M325.688,64.125c-19.406-31.47-39.899-50.819-54.729-59.622v99.491h75.313
			C340.255,89.963,333.387,76.612,325.688,64.125z"/>
	</g>
</g>
<g>
	<g>
		<path fill="#4E7851" d="M481.995,134.915h-91.912c9.705,33.237,15.388,68.771,16.646,105.125H511.5
			C509.302,202.843,499.208,167.148,481.995,134.915z"/>
	</g>
</g>
<g>
	<g>
		<path fill="#4E7851" d="M357.792,134.915h-86.833v105.125h104.828C374.431,203.414,368.284,167.78,357.792,134.915z"/>
	</g>
</g>
<g>
	<g>
		<path fill="#4E7851" d="M29.004,134.915C11.792,167.148,1.697,202.843-0.5,240.041h104.769
			c1.257-36.353,6.941-71.888,16.646-105.125H29.004L29.004,134.915z"/>
	</g>
</g>
<g>
	<g>
		<path fill="#4E7851" d="M104.269,270.961H-0.5c2.197,37.197,12.292,72.895,29.504,105.125h91.911
			C111.21,342.848,105.527,307.314,104.269,270.961z"/>
	</g>
</g>
<g>
	<g>
		<path fill="#4E7851" d="M158.995,463.102c-10.696-17.346-19.932-36.176-27.631-56.098H48.504
			c7.711,10.49,16.263,20.473,25.641,29.852c32.342,32.342,71.804,54.963,114.847,66.441
			C178.565,491.881,168.39,478.338,158.995,463.102z"/>
	</g>
</g>
<g>
	<g>
		<path fill="#4E7851" d="M436.852,74.146c-32.341-32.341-71.803-54.963-114.846-66.441c10.427,11.415,20.604,24.957,29.998,40.193
			c10.696,17.347,19.932,36.176,27.63,56.098h82.86C454.782,93.507,446.23,83.524,436.852,74.146z"/>
	</g>
</g>
<g>
	<g>
		<path fill="#4E7851" d="M185.312,64.126c-7.699,12.485-14.567,25.836-20.584,39.87h75.313V4.503
			C225.21,13.307,204.716,32.656,185.312,64.126z"/>
	</g>
</g>
<g>
	<g>
		<path fill="#4E7851" d="M74.146,74.146c-9.378,9.378-17.93,19.361-25.641,29.85h82.86c7.699-19.922,16.935-38.75,27.631-56.098
			c9.394-15.236,19.571-28.779,29.998-40.193C145.95,19.183,106.486,41.807,74.146,74.146z"/>
	</g>
</g>
<g>
	<g>
		<path fill="#4E7851" d="M270.959,270.961v105.125h86.833c10.492-32.863,16.64-68.498,17.995-105.125H270.959z"/>
	</g>
</g>
<g>
	<g>
		<path fill="#4E7851" d="M406.729,270.961c-1.258,36.354-6.941,71.889-16.646,105.125h91.911
			c17.213-32.232,27.307-67.928,29.504-105.125H406.729z"/>
	</g>
</g>
<g>
	<g>
		<path fill="#4E7851" d="M379.634,407.006L379.634,407.006c-7.698,19.92-16.934,38.75-27.63,56.098
			c-9.394,15.234-19.571,28.777-29.998,40.193c43.043-11.477,82.504-34.102,114.846-66.441c9.379-9.379,17.931-19.361,25.643-29.852
			h-82.86V407.006z"/>
	</g>
</g>
<g>
	<g>
		<path fill="#4E7851" d="M164.728,407.004c6.017,14.033,12.885,27.383,20.584,39.871c19.404,31.469,39.897,50.818,54.728,59.621
			v-99.49h-75.312V407.004z"/>
	</g>
</g>
<g>
	<g>
		<path fill="#4E7851" d="M270.958,407.004v99.492c14.83-8.803,35.323-28.152,54.729-59.623
			c7.698-12.486,14.566-25.836,20.584-39.869H270.958z"/>
	</g>
</g>
<g>
	<g>
		<path fill="#4E7851" d="M135.211,270.961c1.356,36.627,7.503,72.262,17.996,105.125h86.833V270.961H135.211z"/>
	</g>
</g>
<g>
	<g>
		<path fill="#4E7851" d="M153.208,134.915c-10.492,32.864-16.64,68.499-17.996,105.125H240.04V134.915H153.208z"/>
	</g>
</g>
</svg>
