<svg width="1440" height="653" viewBox="0 0 1440 653" fill="none" xmlns="http://www.w3.org/2000/svg">
<rect x="877.75" y="189.75" width="397.5" height="306.5" rx="23.25" fill="white" stroke="#1D322B" stroke-width="1.5"/>
<path d="M1186 471.499C1582 948 1959.5 320.001 2406 395.959" stroke="#1D322B" stroke-width="1.5"/>
<g filter="url(#filter0_d_0_1)">
<path d="M1150.98 421L1214.44 452.38L1178.86 461.029L1158.4 491.409L1150.98 421Z" fill="#1D322B"/>
</g>
<rect opacity="0.4" x="988" y="289" width="177" height="4" fill="#1D322B" fill-opacity="0.4"/>
<rect opacity="0.4" x="988" y="317" width="177" height="4" fill="#1D322B" fill-opacity="0.4"/>
<rect opacity="0.4" x="988" y="345" width="177" height="4" fill="#1D322B" fill-opacity="0.4"/>
<rect opacity="0.4" x="1038" y="388" width="77" height="14" rx="7" fill="#4E7851"/>
<path d="M-15 1.5H877C888.046 1.5 897 10.4543 897 21.5V119.5" stroke="#1D322B" stroke-width="1.5"/>
<path d="M860 142H878V135C878 133.895 877.105 133 876 133H862C860.895 133 860 133.895 860 135V142Z" stroke="#1D322B" stroke-width="1.5"/>
<rect x="847" y="139" width="100" height="76" rx="8" fill="#CCB8A8"/>
<circle cx="897" cy="177" r="25" stroke="#1D322B" stroke-width="1.5"/>
<path d="M1292 298L1296.32 309.679L1308 314L1296.32 318.321L1292 330L1287.68 318.321L1276 314L1287.68 309.679L1292 298Z" fill="#1D322B"/>
<path d="M1129 88L1133.32 99.6785L1145 104L1133.32 108.321L1129 120L1124.68 108.321L1113 104L1124.68 99.6785L1129 88Z" fill="#1D322B"/>
<path d="M832.5 529.768C831.183 486.772 830.106 485.705 787 484.384C830.106 483.07 831.176 481.996 832.5 439C833.817 481.996 834.894 483.063 878 484.384C834.894 485.705 833.824 486.759 832.5 529.768Z" fill="#1D322B"/>
<defs>
<filter id="filter0_d_0_1" x="1142.98" y="421" width="71.4648" height="78.4087" filterUnits="userSpaceOnUse" color-interpolation-filters="sRGB">
<feFlood flood-opacity="0" result="BackgroundImageFix"/>
<feColorMatrix in="SourceAlpha" type="matrix" values="0 0 0 0 0 0 0 0 0 0 0 0 0 0 0 0 0 0 127 0" result="hardAlpha"/>
<feOffset dx="-8" dy="8"/>
<feComposite in2="hardAlpha" operator="out"/>
<feColorMatrix type="matrix" values="0 0 0 0 0.113725 0 0 0 0 0.196078 0 0 0 0 0.168627 0 0 0 0.15 0"/>
<feBlend mode="normal" in2="BackgroundImageFix" result="effect1_dropShadow_0_1"/>
<feBlend mode="normal" in="SourceGraphic" in2="effect1_dropShadow_0_1" result="shape"/>
</filter>
</defs>
</svg>
