<svg width="284" height="248" viewBox="0 0 284 248" fill="none" xmlns="http://www.w3.org/2000/svg">
<rect x="47.291" y="60.3145" width="221.709" height="163.686" rx="14" fill="#DDE0DF"/>
<rect x="42.5" y="55.5" width="220" height="162" rx="13.5" fill="white" stroke="#1D322B"/>
<circle cx="93.0198" cy="154.443" r="17.4427" stroke="#1D322B"/>
<path d="M104.604 163.882C103.011 165.836 100.949 167.356 98.6109 168.3C96.2724 169.243 93.7332 169.58 91.2298 169.278C88.7263 168.976 86.34 168.045 84.293 166.572C82.2461 165.1 80.6052 163.133 79.523 160.855C78.4409 158.578 77.9528 156.063 78.1041 153.546C78.2554 151.029 79.0412 148.591 80.3884 146.459C81.7356 144.328 83.6004 142.572 85.809 141.355C88.0175 140.138 90.4982 139.5 93.0198 139.5" stroke="#CCB8A8" stroke-width="5"/>
<circle cx="155.327" cy="154.443" r="17.4427" stroke="#1D322B"/>
<path d="M166.911 163.882C165.319 165.836 163.257 167.356 160.919 168.3C158.58 169.243 156.041 169.58 153.537 169.278C151.034 168.976 148.648 168.045 146.601 166.572C144.554 165.1 142.913 163.133 141.831 160.855C140.749 158.578 140.26 156.063 140.412 153.546C140.563 151.029 141.349 148.591 142.696 146.459C144.043 144.328 145.908 142.572 148.117 141.355C150.325 140.138 152.806 139.5 155.327 139.5" stroke="#CCB8A8" stroke-width="5"/>
<circle cx="217.635" cy="154.443" r="17.4427" stroke="#1D322B"/>
<path d="M229.219 163.882C227.626 165.836 225.565 167.356 223.226 168.3C220.888 169.243 218.348 169.58 215.845 169.278C213.342 168.976 210.955 168.045 208.908 166.572C206.861 165.1 205.22 163.133 204.138 160.855C203.056 158.578 202.568 156.063 202.719 153.546C202.871 151.029 203.656 148.591 205.004 146.459C206.351 144.328 208.216 142.572 210.424 141.355C212.633 140.138 215.113 139.5 217.635 139.5" stroke="#CCB8A8" stroke-width="5"/>
<rect opacity="0.4" x="125" y="98.0186" width="54.2627" height="2.02851" fill="#1D322B" fill-opacity="0.4"/>
<rect opacity="0.4" x="137.678" y="108.161" width="28.9063" height="2.02851" fill="#1D322B" fill-opacity="0.4"/>
<g filter="url(#filter0_d_0_1)">
<path d="M205.503 201L239.958 218.036L220.638 222.732L209.533 239.225L205.503 201Z" fill="#1D322B"/>
</g>
<rect x="128.14" y="23" width="45.6" height="43.32" rx="8" fill="white" stroke="#1D322B"/>
<rect x="127" y="26.9902" width="57" height="43.32" rx="8" fill="#CCB8A8"/>
<circle cx="172.03" cy="49.22" r="5.7" stroke="#1D322B"/>
<path d="M-297 1H142C147.523 1 152 5.47715 152 11V15" stroke="#1D322B"/>
<path d="M242 118C240.784 78.6837 239.79 77.7076 200 76.5C239.79 75.2985 240.778 74.3163 242 35C243.216 74.3163 244.21 75.2925 284 76.5C244.21 77.7076 243.222 78.6717 242 118Z" fill="#1D322B"/>
<path d="M28 172L30.971 180.029L39 183L30.971 185.971L28 194L25.029 185.971L17 183L25.029 180.029L28 172Z" fill="#1D322B"/>
<path d="M76 23L79.2411 31.7589L88 35L79.2411 38.2411L76 47L72.7589 38.2411L64 35L72.7589 31.7589L76 23Z" fill="#1D322B"/>
<defs>
<filter id="filter0_d_0_1" x="197.503" y="201" width="42.4551" height="46.2251" filterUnits="userSpaceOnUse" color-interpolation-filters="sRGB">
<feFlood flood-opacity="0" result="BackgroundImageFix"/>
<feColorMatrix in="SourceAlpha" type="matrix" values="0 0 0 0 0 0 0 0 0 0 0 0 0 0 0 0 0 0 127 0" result="hardAlpha"/>
<feOffset dx="-8" dy="8"/>
<feComposite in2="hardAlpha" operator="out"/>
<feColorMatrix type="matrix" values="0 0 0 0 0.113725 0 0 0 0 0.196078 0 0 0 0 0.168627 0 0 0 0.15 0"/>
<feBlend mode="normal" in2="BackgroundImageFix" result="effect1_dropShadow_0_1"/>
<feBlend mode="normal" in="SourceGraphic" in2="effect1_dropShadow_0_1" result="shape"/>
</filter>
</defs>
</svg>
