<svg width="282" height="237" viewBox="0 0 282 237" fill="none" xmlns="http://www.w3.org/2000/svg">
<rect x="15.291" y="73.3145" width="221.709" height="163.686" rx="14" fill="#DDE0DF"/>
<rect x="10.5" y="68.5" width="220" height="162" rx="13.5" fill="white" stroke="#1D322B"/>
<rect opacity="0.4" x="36.457" y="135.494" width="93.6573" height="2.12579" fill="#1D322B" fill-opacity="0.4"/>
<rect opacity="0.4" x="36.457" y="150.374" width="93.6573" height="2.12579" fill="#1D322B" fill-opacity="0.4"/>
<rect opacity="0.4" x="36.457" y="165.255" width="56.6177" height="2.12579" fill="#1D322B" fill-opacity="0.4"/>
<path d="M106.929 94.7409C107.577 93.7526 108.166 92.7444 108.667 91.677C109.05 90.8567 109.345 90.0067 109.453 89.0875C109.571 88.0991 109.355 87.1898 108.795 86.3695C108.697 86.2212 108.569 86.0927 108.432 85.9741C108.402 85.9445 108.343 85.9247 108.314 85.9445C108.274 85.9642 108.314 86.0433 108.333 86.0631C108.638 86.3299 108.756 86.6858 108.834 87.0613C108.962 87.6642 108.913 88.2671 108.785 88.87C108.687 89.3247 108.53 89.7596 108.363 90.1945C108.009 91.1038 107.528 91.9537 107.027 92.7939C106.497 93.6735 105.927 94.5235 105.348 95.3636C104.798 96.1741 104.218 96.9648 103.619 97.7357C102.883 98.6746 102.136 99.6037 101.321 100.473C100.417 101.432 98.5122 103.29 97.7756 103.597C97.6774 103.626 97.5497 103.616 97.5203 103.488C97.481 103.34 97.3828 102.786 97.4319 101.422C97.5399 100.375 97.7167 99.6828 98.0211 98.8229C98.3747 97.8345 98.8363 96.8956 99.3372 95.9764C99.4943 95.6997 99.8675 94.9979 99.8872 94.82C99.897 94.7409 99.8184 94.6718 99.7398 94.6718C99.6279 94.6798 99.5354 94.7206 99.4413 94.7622L99.4361 94.7645C99.4308 94.7668 99.4255 94.7692 99.4202 94.7715C99.4057 94.7779 99.3912 94.7842 99.3765 94.7904C98.9738 94.9781 98.6006 95.2055 98.247 95.4624C97.4712 96.0456 96.7346 96.688 96.0471 97.3898C94.7409 98.7241 93.5623 100.177 92.482 101.709C91.991 102.401 91.5392 103.112 91.166 103.873C91.0345 104.138 90.848 104.587 90.6918 104.964C90.5679 105.262 90.463 105.515 90.4196 105.593C90.4196 105.603 90.3999 105.603 90.3999 105.593C90.3803 105.405 90.4097 104.269 90.5276 103.705C90.7437 102.668 91.0776 101.66 91.4213 100.661C91.8142 99.5246 92.315 98.4275 92.8454 97.3502C93.1152 96.8001 93.4106 96.2654 93.7057 95.7314C93.8189 95.5266 93.932 95.3219 94.0436 95.1165C94.1778 94.8694 94.3131 94.6223 94.4484 94.3752C94.7191 93.881 94.9897 93.3869 95.2516 92.8927C95.5167 92.3985 95.6837 91.8648 95.7525 91.3014C95.8114 90.7677 95.6641 90.3131 95.3007 89.9276C95.0159 89.6311 94.6623 89.4828 94.2596 89.4433C93.8668 89.4038 93.4739 89.4038 93.0909 89.4532C91.6472 89.6509 90.3214 90.1648 89.1134 90.9851C88.6027 91.3311 88.1312 91.7363 87.6893 92.1712C86.4027 93.4264 85.342 94.8497 84.5858 96.4903C84.1537 97.4392 83.8394 98.4177 83.7117 99.4554C83.6332 100.098 83.7215 100.711 83.9474 101.314C83.9867 101.383 84.0555 101.482 84.1635 101.511C84.1684 101.477 84.1709 101.452 84.1733 101.427C84.1758 101.403 84.1782 101.378 84.1831 101.343C84.2224 100.78 84.3305 100.246 84.4483 99.6927C84.8019 98.0124 85.509 96.4903 86.4518 95.0671C86.8545 94.4642 87.3063 93.8909 87.7875 93.3572C88.7205 92.2997 89.7615 91.3706 91.0088 90.6886C91.8829 90.2043 92.8061 89.8979 93.7882 89.7497C94.132 89.7003 94.4757 89.72 94.8096 89.7991C95.0551 89.8584 95.2418 89.9869 95.3498 90.2241C95.4676 90.4613 95.4578 90.7084 95.3694 90.9555C95.3203 91.1136 95.2516 91.2718 95.1632 91.4101C95.1064 91.5054 95.0503 91.6015 94.9942 91.6977C94.8465 91.9506 94.6983 92.2045 94.5346 92.4479C93.9945 93.288 93.4936 94.1479 93.0025 95.0177C92.5704 95.7688 92.1579 96.5299 91.7847 97.3107C91.1758 98.5758 90.6749 99.8903 90.2624 101.235C89.9678 102.183 89.791 103.152 89.8008 104.15C89.8008 104.427 89.8303 104.694 89.8696 104.971C89.9187 105.257 90.0464 105.514 90.2428 105.732C90.4196 105.919 90.6062 105.919 90.7142 105.672C90.8056 105.456 90.9099 105.239 91.0129 105.025C91.0649 104.917 91.1165 104.81 91.166 104.704C91.4802 104.032 91.8338 103.389 92.2365 102.766C92.7766 101.936 93.3561 101.136 93.9552 100.355C94.8391 99.2182 95.7623 98.1212 96.7935 97.113C97.3337 96.5892 97.8836 96.1148 98.5024 95.6799C98.507 95.6768 98.5122 95.6732 98.5179 95.6691L98.5215 95.6665C98.5523 95.6447 98.5996 95.6112 98.6792 95.5712C95.7917 99.7025 96.6462 103.083 97.1372 103.616C97.314 103.775 97.481 103.854 97.7461 103.854C98.1292 103.854 98.8952 103.478 99.1997 103.271L99.1998 103.27C99.5926 103.004 99.9854 102.737 100.359 102.45C101.282 101.758 102.117 100.968 102.892 100.108C103.531 99.3961 104.11 98.6549 104.69 97.8938C105.475 96.8857 106.222 95.8183 106.929 94.7409Z" fill="#1D322B"/>
<path fill-rule="evenodd" clip-rule="evenodd" d="M157.429 93.3078C157.38 93.3276 154.984 93.9898 151.969 93.7032C151.995 93.6316 152.016 93.56 152.034 93.5025C152.043 93.4727 152.05 93.4467 152.057 93.4264C152.244 92.8235 152.401 92.2107 152.489 91.5881C152.578 90.9555 152.587 90.3328 152.479 89.7003C152.44 89.4532 152.381 89.2061 152.303 88.9689C152.269 88.8596 152.2 88.7576 152.132 88.6565L152.114 88.6302C152.108 88.6212 152.102 88.6122 152.096 88.6032C152.08 88.5784 152.043 88.5605 152.008 88.5438C152.002 88.5405 151.995 88.5373 151.988 88.534C151.943 88.5952 151.968 88.6387 151.991 88.6781L151.994 88.6838C151.996 88.6868 151.997 88.6899 151.999 88.6929C152.002 88.6993 152.006 88.7056 152.008 88.7119C152.015 88.735 152.022 88.758 152.03 88.7811C152.045 88.8272 152.06 88.8733 152.067 88.9195C152.195 89.5817 152.204 90.2439 152.106 90.916C151.969 91.7758 151.321 93.5253 151.291 93.5846C151.291 93.5918 149.905 93.406 148.936 93.276C148.589 93.2296 148.296 93.1903 148.138 93.1694C147.647 93.1003 147.156 93.041 146.656 92.9915C146.243 92.952 145.831 92.9125 145.418 92.9125C144.672 92.8927 143.925 92.9322 143.189 93.0212C142.393 93.1101 141.627 93.2979 140.9 93.6241C140.458 93.8218 140.036 94.0689 139.673 94.4049C139.398 94.652 139.172 94.9386 139.054 95.3043C139.024 95.4031 139.005 95.5119 139.015 95.6206C139.034 95.8084 139.103 95.9764 139.299 96.0456C139.309 96.0456 139.329 96.0456 139.329 96.0357C139.594 95.5909 139.781 95.3636 140.066 95.0968C140.566 94.6322 141.165 94.3456 141.794 94.1183C142.295 93.9305 142.815 93.802 143.346 93.7427C144.24 93.634 145.133 93.5846 146.027 93.6142C146.157 93.6208 146.287 93.6251 146.417 93.6295L146.417 93.6295C146.679 93.6383 146.94 93.6471 147.196 93.6735C147.834 93.7328 148.472 93.802 149.101 93.8712C149.671 93.9305 150.82 94.0787 151.065 94.1183C151.085 94.1183 151.095 94.138 151.085 94.1578C151.01 94.3253 150.677 95.0259 150.263 95.8989L150.262 95.8996C149.968 96.5205 149.631 97.2285 149.317 97.8938C148.531 99.4555 147.264 101.314 146.695 102.005C146.253 102.539 144.947 103.824 143.955 104.15C143.444 104.318 143.12 104.17 143.169 103.636C143.17 103.629 143.171 103.621 143.172 103.613L143.172 103.613C143.181 103.55 143.191 103.48 143.208 103.419L143.216 103.387C143.253 103.238 143.291 103.083 143.356 102.944C143.729 102.055 144.19 101.205 144.652 100.365C144.858 99.9793 145.565 98.4572 145.389 97.8839C145.271 97.459 144.927 97.4095 144.514 97.5973C144.298 97.6962 144.092 97.8049 143.896 97.9334C143.1 98.4572 142.383 99.0799 141.676 99.7124C141.175 100.167 140.124 101.235 139.948 101.491C139.965 101.423 140.118 101.152 140.273 100.878C140.388 100.675 140.504 100.471 140.566 100.345C140.743 100.009 140.881 99.6531 140.949 99.2677C141.018 98.8427 140.92 98.4671 140.665 98.1212C140.625 98.0717 140.517 97.9729 140.507 98.0816C140.498 98.2694 140.399 98.5857 140.252 98.9415C139.496 100.286 137.679 101.719 137.149 102.005C136.864 102.164 136.353 102.371 135.911 102.332C135.617 102.302 135.459 102.085 135.44 101.788C135.41 101.363 135.607 100.78 136.039 100.315C136.186 100.108 136.363 99.9991 136.608 99.9299C137.09 99.8113 137.541 99.5938 137.974 99.3368C138.15 99.238 138.308 99.1095 138.435 98.9514C138.641 98.6944 138.632 98.4869 138.416 98.2496C138.308 98.131 138.18 98.0619 138.013 98.0421C137.767 98.0223 137.541 98.0915 137.325 98.2002C136.481 98.6252 135.803 99.2479 135.322 100.068C135.125 100.394 134.998 100.75 134.959 101.126C134.909 101.541 134.959 101.966 135.214 102.282C135.715 102.895 136.815 102.46 137.06 102.322C137.433 102.134 137.767 101.897 138.091 101.63C138.455 101.333 139.093 100.74 139.339 100.493L139.35 100.48L139.35 100.48C139.394 100.426 139.432 100.381 139.486 100.335C139.535 100.256 139.594 100.187 139.663 100.128C139.433 100.576 139.209 100.979 139.083 101.204L139.083 101.205L139.083 101.205C139.031 101.297 138.997 101.36 138.985 101.383C138.74 101.837 138.543 102.312 138.504 102.826C138.494 103.004 138.484 103.429 138.72 103.587C138.74 103.597 138.759 103.597 138.779 103.577C138.855 103.49 139.028 103.251 139.214 102.993L139.214 102.992L139.215 102.991L139.215 102.991L139.215 102.991C139.389 102.75 139.574 102.494 139.702 102.332C140.645 101.136 141.696 100.029 142.855 99.0403C143.385 98.5857 143.955 98.1706 144.554 97.8246C144.603 97.795 144.662 97.7653 144.731 97.7357C144.78 97.7159 144.927 97.6665 144.996 97.7555C145.055 97.8839 144.848 98.2398 144.77 98.3584C144.637 98.5874 144.503 98.8164 144.368 99.046L144.368 99.0467L144.368 99.0474C144.154 99.4119 143.94 99.7777 143.729 100.147C143.424 100.671 143.169 101.205 142.943 101.768C142.786 102.164 142.688 102.589 142.658 103.014C142.648 103.152 142.648 103.369 142.668 103.498C142.776 104.2 143.198 104.654 144.112 104.368C144.348 104.289 144.583 104.18 144.799 104.051C144.996 103.943 145.182 103.814 145.359 103.676C146.047 103.122 146.675 102.519 147.215 101.828C147.471 101.501 147.706 101.195 147.903 100.898C147.746 101.343 147.618 101.788 147.51 102.253C147.382 102.806 147.323 103.359 147.382 103.923C147.402 104.16 147.431 104.298 147.49 104.536C147.51 104.595 147.579 104.723 147.667 104.753C147.687 104.763 147.697 104.743 147.697 104.723C147.687 104.615 147.667 104.259 147.697 104.002C147.805 103.033 148.07 102.094 148.472 101.215C149.062 99.9002 149.71 98.6153 150.378 97.3403C150.702 96.7177 151.114 95.8677 151.556 94.8101L151.792 94.2468C151.792 94.2369 151.812 94.227 151.821 94.227C155.357 94.5927 156.978 93.9008 157.272 93.6834C157.341 93.634 157.41 93.5648 157.449 93.5154C157.518 93.4363 157.518 93.2782 157.429 93.3078ZM137.836 98.6746C137.944 98.6055 138.337 98.4177 138.386 98.5066C138.455 98.6252 138.347 98.7834 138.268 98.8624C137.895 99.2578 136.923 99.6531 136.55 99.7322C136.716 99.4752 137.404 98.9415 137.836 98.6746Z" fill="#1D322B"/>
<path d="M136.186 95.0276C136.304 95.1758 136.383 95.3142 136.442 95.4427C136.559 95.7293 136.569 96.0456 136.461 96.3124C135.41 99.2182 131.177 103.251 129.498 103.804L129.492 103.806C129.395 103.836 129.279 103.87 129.154 103.735C129.146 103.718 129.141 103.712 129.138 103.705C129.135 103.696 129.135 103.686 129.135 103.646C129.4 103.211 130.235 100.632 129.704 98.5956C129.697 98.6474 129.678 98.6938 129.666 98.7262C129.661 98.737 129.658 98.7463 129.655 98.7537C129.292 99.8903 128.673 100.889 127.907 101.798C127.347 102.47 126.738 103.093 126.051 103.646C125.874 103.784 125.687 103.913 125.491 104.022C125.275 104.15 125.039 104.259 124.803 104.338C123.89 104.625 123.468 104.17 123.36 103.468C123.34 103.34 123.34 103.122 123.35 102.984C123.379 102.559 123.478 102.134 123.635 101.739C123.861 101.175 124.116 100.641 124.42 100.118C124.631 99.7475 124.846 99.3812 125.06 99.0162C125.195 98.7867 125.329 98.5577 125.461 98.3287C125.54 98.2101 125.746 97.8543 125.687 97.7258C125.619 97.6368 125.471 97.6863 125.422 97.706C125.353 97.7357 125.295 97.7653 125.245 97.795C124.646 98.1409 124.077 98.556 123.546 99.0107C122.387 99.999 121.337 101.106 120.394 102.302C120.266 102.464 120.081 102.721 119.907 102.961L119.907 102.962C119.72 103.22 119.547 103.46 119.471 103.547C119.451 103.567 119.431 103.567 119.412 103.557C119.176 103.399 119.186 102.974 119.196 102.796C119.235 102.282 119.431 101.808 119.677 101.353C119.734 101.243 119.809 101.109 119.884 100.973L119.884 100.973L119.885 100.973L119.885 100.972C119.938 100.877 119.992 100.781 120.04 100.691C119.51 101.254 118.763 101.818 118.204 102.223C117.713 102.579 117.202 102.895 116.642 103.132C116.347 103.261 116.043 103.359 115.719 103.379C115.695 103.379 115.672 103.38 115.648 103.38C115.551 103.382 115.452 103.383 115.365 103.359C115.041 103.28 114.815 103.093 114.727 102.757C114.678 102.569 114.678 102.381 114.707 102.193C114.756 101.847 114.874 101.521 115.022 101.205C115.356 100.513 115.768 99.8705 116.298 99.3171C116.718 98.8949 116.917 98.7965 117.054 98.7293C117.06 98.726 117.067 98.7228 117.073 98.7196C117.077 98.7178 117.08 98.716 117.084 98.7142C117.212 98.645 117.29 98.6746 117.388 98.7932C117.408 98.8229 117.428 98.8525 117.447 98.8921C117.467 98.9316 117.457 98.9909 117.428 99.0304C116.082 100.473 114.943 102.203 115.061 102.855C115.11 103.073 115.316 103.251 115.945 103.073C116.347 102.974 116.73 102.806 117.084 102.589C118.39 101.798 119.559 100.829 120.551 99.6531C120.649 99.5345 120.738 99.3961 120.806 99.2578C121.003 98.8624 121.16 98.4572 121.199 98.0223C121.209 97.9136 121.317 98.0124 121.356 98.0618C121.612 98.4078 121.71 98.7833 121.641 99.2083C121.572 99.5938 121.435 99.9496 121.258 100.286C121.195 100.412 121.08 100.616 120.965 100.819C120.81 101.093 120.656 101.364 120.639 101.432C120.816 101.175 121.867 100.108 122.368 99.6531C123.075 99.0206 123.792 98.3979 124.587 97.874C124.784 97.7456 124.99 97.6368 125.206 97.538C125.619 97.3502 125.962 97.3996 126.08 97.8246C126.257 98.3979 125.55 99.92 125.344 100.305C124.882 101.146 124.42 101.996 124.047 102.885C123.983 103.023 123.945 103.179 123.908 103.328L123.9 103.359C123.882 103.421 123.873 103.491 123.864 103.554C123.863 103.562 123.862 103.569 123.861 103.577C123.812 104.111 124.136 104.259 124.646 104.091C125.638 103.765 126.944 102.48 127.386 101.946C127.966 101.254 128.516 100.572 128.948 99.7717C129.184 99.3269 129.459 98.724 129.626 98.0816C129.635 98.052 129.665 98.0421 129.685 98.0618C130.205 98.5264 130.48 99.4159 130.519 100.088C130.578 101.096 130.333 102.45 129.871 103.32C131.354 102.589 135.587 98.4078 136.216 96.1741C136.284 95.927 136.333 95.4921 136.098 95.3932C135.98 95.3438 135.774 95.3241 135.469 95.4031C133.839 95.9072 132.778 97.5578 132.268 98.5758C132.228 98.645 132.13 98.6351 132.11 98.556C131.202 94.6774 129.772 94.7665 129.557 94.7799C129.553 94.7801 129.55 94.7803 129.547 94.7805C128.761 94.8496 128.545 95.5712 128.486 96.0456C128.486 96.0653 128.457 96.0653 128.457 96.0456C128.388 95.6502 128.526 95.2746 128.693 95.0572C128.997 94.6421 129.527 94.484 129.979 94.6124C130.618 94.7903 131.492 95.3834 132.218 97.5281C132.218 97.5286 132.221 97.5236 132.225 97.5135C132.321 97.3078 133.395 94.9949 135.361 94.731C135.695 94.6717 135.96 94.7706 136.186 95.0276Z" fill="#1D322B"/>
<path fill-rule="evenodd" clip-rule="evenodd" d="M119.294 94.8694C119.824 94.3851 120.296 93.8613 120.669 93.2386C120.806 93.0014 121.062 92.527 121.052 92.0822C121.022 91.4398 120.58 91.252 120.04 91.3805C119.746 91.4497 119.48 91.5584 119.215 91.6968C118.538 92.0526 117.948 92.5369 117.388 93.0508C116.554 93.8119 115.817 94.6717 115.13 95.5712C114.464 96.446 113.345 98.3637 113.192 98.6258C113.183 98.6421 113.177 98.652 113.175 98.6549C113.171 98.6519 113.165 98.6391 113.155 98.6194C113.099 98.5056 112.932 98.1636 112.38 98.1804C112.203 98.1903 112.026 98.2101 111.849 98.2496C111.329 98.388 110.848 98.6153 110.425 98.9415C110.072 99.2182 109.728 99.5147 109.424 99.8409C109.06 100.226 108.687 100.622 108.304 100.997C107.793 101.501 107.243 101.956 106.644 102.332C106.369 102.5 106.084 102.648 105.78 102.737C105.534 102.806 105.289 102.826 105.043 102.796C104.788 102.737 104.601 102.569 104.611 102.253C104.621 101.818 105.024 100.948 105.407 100.543C105.554 100.404 105.682 100.335 105.868 100.296C106.359 100.197 106.821 100.009 107.273 99.7915C107.43 99.7124 107.587 99.6136 107.724 99.5049C107.842 99.406 107.941 99.2874 108.029 99.1589C108.098 99.0601 108.098 98.9217 108.058 98.8229C108.029 98.7339 107.99 98.6647 107.95 98.5956C107.852 98.4177 107.695 98.3287 107.489 98.3188C107.243 98.3089 107.017 98.3584 106.801 98.4572C106.467 98.5956 106.173 98.7932 105.898 99.0107C105.308 99.4752 104.798 100.029 104.464 100.721C104.277 101.106 104.159 101.511 104.179 101.956C104.199 102.855 104.788 103.34 105.819 103.033C106.369 102.905 106.841 102.598 107.302 102.272C107.597 102.055 107.891 101.828 108.157 101.58C108.183 101.554 108.216 101.53 108.257 101.499C108.292 101.473 108.333 101.443 108.382 101.403C108.387 101.403 108.39 101.403 108.391 101.404C108.392 101.405 108.392 101.407 108.392 101.412C108.371 101.475 108.352 101.53 108.335 101.581C108.298 101.69 108.269 101.776 108.235 101.857C108.098 102.233 108.029 102.598 108.049 102.994C108.058 103.142 108.107 103.33 108.284 103.389C108.432 103.439 108.795 103.31 109.119 102.974L111.27 100.839C111.741 100.385 112.223 99.9397 112.704 99.5049C112.753 99.4554 112.9 99.3467 112.851 99.4653C112.827 99.5394 112.8 99.6111 112.773 99.6828C112.746 99.7544 112.719 99.8261 112.694 99.9002C112.281 101.116 112.075 102.371 112.144 103.656C112.164 103.962 112.203 104.279 112.291 104.565C112.448 105.089 112.753 105.455 112.959 105.445C112.969 105.445 112.969 105.435 112.959 105.435C112.746 105.21 112.705 105.034 112.637 104.744L112.635 104.733C112.606 104.486 112.576 104.239 112.576 103.992C112.586 103.033 112.782 102.094 113.038 101.175C113.273 100.315 113.637 99.495 114.049 98.7043C114.138 98.5363 114.246 98.4177 114.403 98.3287C114.825 98.0915 115.247 97.8444 115.66 97.5874C116.947 96.7967 118.174 95.8973 119.294 94.8694ZM105.966 100.019C106.35 99.5839 106.762 99.2083 107.283 98.9514C107.42 98.8822 107.567 98.8229 107.744 98.8229C107.764 98.8229 107.774 98.8427 107.774 98.8525C107.774 98.902 107.705 99.0107 107.685 99.0403C107.577 99.1688 107.518 99.2281 107.391 99.327C106.978 99.6828 106.497 99.9101 105.966 100.029V100.019ZM112.65 99.1569L112.649 99.1576C112.461 99.3278 112.295 99.4773 112.105 99.6432C111.398 100.256 110.72 100.898 110.082 101.58C109.689 102.005 109.276 102.411 108.864 102.816L108.864 102.816C108.756 102.925 108.51 103.112 108.461 103.122C108.456 103.122 108.454 103.122 108.452 103.121C108.451 103.12 108.451 103.117 108.451 103.112C108.441 103.063 108.461 102.895 108.726 102.341C109.217 101.393 109.797 100.523 110.612 99.8211C111.132 99.3665 111.663 98.981 112.37 98.8328C112.556 98.8031 112.714 98.7932 112.969 98.8229C112.998 98.8229 113.008 98.8427 112.989 98.8525C112.864 98.9643 112.753 99.0637 112.65 99.1569ZM114.501 97.9334L114.491 97.9235C114.521 97.8749 114.544 97.8338 114.564 97.7979C114.577 97.7753 114.588 97.7548 114.599 97.7357C115.572 96.1345 116.652 94.6322 117.988 93.3078C118.498 92.8037 119.038 92.3491 119.667 91.9933C119.844 91.8944 120.03 91.8154 120.217 91.7561C120.335 91.7165 120.423 91.7165 120.561 91.7165C120.718 91.7264 120.826 91.8253 120.836 91.9735C120.836 92.1514 120.806 92.2997 120.737 92.438C120.62 92.695 120.482 92.9322 120.325 93.1694C119.726 94.0688 118.97 94.82 118.125 95.4822C117.222 96.1938 116.269 96.8363 115.297 97.4688C115.117 97.6043 114.724 97.8141 114.546 97.9095C114.529 97.9186 114.514 97.9265 114.501 97.9334Z" fill="#1D322B"/>
<path d="M117.85 97.6863C117.889 97.627 118.027 97.4491 118.145 97.3502C118.213 97.2909 118.321 97.2909 118.39 97.3403C118.439 97.3799 118.498 97.538 118.479 97.6171C118.465 97.6782 118.322 97.8561 118.17 98.0448C118.1 98.1306 118.029 98.2187 117.968 98.2991C117.938 98.3386 117.88 98.3485 117.84 98.3188C117.663 98.2002 117.644 98.1113 117.713 97.9334C117.752 97.8444 117.791 97.7653 117.85 97.6863Z" fill="#1D322B"/>
<g filter="url(#filter0_d_0_1)">
<path d="M170.504 189L204.959 206.036L185.639 210.732L174.534 227.225L170.504 189Z" fill="#1D322B"/>
</g>
<rect x="143" y="19" width="56" height="32" rx="4" fill="#CCB8A8"/>
<path d="M148 24L165.449 33.1039C168.927 34.9186 173.073 34.9186 176.551 33.1039L194 24" stroke="#1D322B"/>
<path d="M171 55V64" stroke="#1D322B"/>
<path d="M620 1H181C175.477 1 171 5.47715 171 11V15" stroke="#1D322B"/>
<path d="M22 55C21.3631 34.1576 20.8424 33.6402 0 33C20.8424 32.3631 21.3599 31.8424 22 11C22.6369 31.8424 23.1576 32.3599 44 33C23.1576 33.6402 22.6402 34.1513 22 55Z" fill="#1D322B"/>
<path d="M246 67L250.321 78.6785L262 83L250.321 87.3215L246 99L241.679 87.3215L230 83L241.679 78.6785L246 67Z" fill="#1D322B"/>
<path d="M118.5 207L120.256 211.744L125 213.5L120.256 215.256L118.5 220L116.744 215.256L112 213.5L116.744 211.744L118.5 207Z" fill="#1D322B"/>
<defs>
<filter id="filter0_d_0_1" x="162.504" y="189" width="42.4551" height="46.2251" filterUnits="userSpaceOnUse" color-interpolation-filters="sRGB">
<feFlood flood-opacity="0" result="BackgroundImageFix"/>
<feColorMatrix in="SourceAlpha" type="matrix" values="0 0 0 0 0 0 0 0 0 0 0 0 0 0 0 0 0 0 127 0" result="hardAlpha"/>
<feOffset dx="-8" dy="8"/>
<feComposite in2="hardAlpha" operator="out"/>
<feColorMatrix type="matrix" values="0 0 0 0 0.113725 0 0 0 0 0.196078 0 0 0 0 0.168627 0 0 0 0.15 0"/>
<feBlend mode="normal" in2="BackgroundImageFix" result="effect1_dropShadow_0_1"/>
<feBlend mode="normal" in="SourceGraphic" in2="effect1_dropShadow_0_1" result="shape"/>
</filter>
</defs>
</svg>
