<svg width="1710" height="604" viewBox="0 0 1710 604" fill="none" xmlns="http://www.w3.org/2000/svg">
<path d="M1 406.499C397 883 774.5 255.001 1221 330.959" stroke="#1D322B" stroke-width="1.5"/>
<rect x="1153" y="182" width="399" height="279" rx="24" fill="#DDE0DF"/>
<path d="M1543.25 205.982V429C1543.25 441.841 1532.84 452.25 1520 452.25H1169C1156.16 452.25 1145.75 441.841 1145.75 429V205.982C1145.75 198.674 1149.19 191.791 1155.03 187.399L1330.53 55.4439C1338.8 49.2215 1350.2 49.2215 1358.47 55.4439L1533.97 187.399C1539.81 191.791 1543.25 198.674 1543.25 205.982Z" fill="white" stroke="#1D322B" stroke-width="1.5"/>
<rect opacity="0.4" x="1185" y="363" width="107" height="4" fill="#1D322B" fill-opacity="0.4"/>
<rect opacity="0.4" x="1185" y="383" width="107" height="4" fill="#1D322B" fill-opacity="0.4"/>
<path d="M1339.85 301.132L1193.35 226.087C1190.68 224.718 1189 221.969 1189 218.967V144C1189 139.582 1192.58 136 1197 136H1490C1494.42 136 1498 139.582 1498 144V218.967C1498 221.969 1496.32 224.718 1493.65 226.087L1347.15 301.132C1344.86 302.305 1342.14 302.305 1339.85 301.132Z" fill="#CCB8A8"/>
<rect opacity="0.4" x="1290" y="198" width="107" height="4" fill="white"/>
<rect opacity="0.4" x="1315" y="218" width="57" height="4" fill="white"/>
<path d="M1489.5 304L1498.01 326.992L1521 335.5L1498.01 344.008L1489.5 367L1480.99 344.008L1458 335.5L1480.99 326.992L1489.5 304Z" fill="#1D322B"/>
<path d="M1428 30L1432.32 41.6785L1444 46L1432.32 50.3215L1428 62L1423.68 50.3215L1412 46L1423.68 41.6785L1428 30Z" fill="#1D322B"/>
<path d="M1143.5 165C1141.11 86.8412 1139.16 84.9008 1061 82.5C1139.16 80.1115 1141.1 78.1588 1143.5 0C1145.89 78.1588 1147.84 80.0995 1226 82.5C1147.84 84.9008 1145.9 86.8172 1143.5 165Z" fill="#1D322B"/>
<path d="M1792 603H1363C1351.95 603 1343 594.046 1343 583V485" stroke="#1D322B" stroke-width="1.5"/>
</svg>
