<svg width="1440" height="722" viewBox="0 0 1440 722" fill="none" xmlns="http://www.w3.org/2000/svg">
<rect x="842" y="199" width="419" height="308" rx="24" fill="#DDE0DF"/>
<rect x="832.75" y="189.75" width="417.5" height="306.5" rx="23.25" fill="white" stroke="#1D322B" stroke-width="1.5"/>
<rect opacity="0.4" x="882" y="316" width="177" height="4" fill="#1D322B" fill-opacity="0.4"/>
<rect opacity="0.4" x="882" y="344" width="177" height="4" fill="#1D322B" fill-opacity="0.4"/>
<rect opacity="0.4" x="882" y="372" width="107" height="4" fill="#1D322B" fill-opacity="0.4"/>
<path d="M1015.18 239.317C1016.41 237.457 1017.52 235.56 1018.47 233.552C1019.19 232.008 1019.75 230.409 1019.95 228.679C1020.17 226.819 1019.77 225.108 1018.71 223.565C1018.52 223.286 1018.28 223.044 1018.02 222.821C1017.96 222.765 1017.85 222.728 1017.8 222.765C1017.72 222.802 1017.8 222.951 1017.83 222.988C1018.41 223.49 1018.63 224.16 1018.78 224.867C1019.02 226.001 1018.93 227.135 1018.69 228.27C1018.5 229.125 1018.21 229.944 1017.89 230.762C1017.22 232.473 1016.31 234.072 1015.37 235.653C1014.36 237.308 1013.29 238.908 1012.19 240.489C1011.15 242.014 1010.06 243.501 1008.93 244.952C1007.53 246.719 1006.12 248.467 1004.58 250.104C1002.87 251.908 999.274 255.404 997.882 255.98C997.696 256.036 997.455 256.018 997.399 255.776C997.325 255.497 997.14 254.455 997.232 251.889C997.437 249.918 997.771 248.616 998.346 246.998C999.014 245.138 999.887 243.371 1000.83 241.642C1001.13 241.121 1001.84 239.8 1001.87 239.466C1001.89 239.317 1001.74 239.187 1001.59 239.187C1001.38 239.202 1001.21 239.279 1001.03 239.357L1001.02 239.361C1001.01 239.366 1001 239.37 1000.99 239.374C1000.96 239.386 1000.94 239.398 1000.91 239.41C1000.15 239.763 999.441 240.191 998.773 240.675C997.307 241.772 995.915 242.981 994.615 244.301C992.147 246.812 989.92 249.546 987.878 252.428C986.95 253.73 986.096 255.069 985.391 256.501C985.142 256.999 984.79 257.844 984.495 258.552C984.26 259.114 984.062 259.589 983.98 259.737C983.98 259.756 983.943 259.756 983.943 259.737C983.906 259.384 983.962 257.245 984.184 256.185C984.593 254.232 985.224 252.335 985.873 250.457C986.616 248.318 987.562 246.254 988.565 244.227C989.074 243.192 989.633 242.185 990.191 241.181C990.404 240.795 990.618 240.41 990.829 240.024C991.083 239.559 991.338 239.094 991.594 238.629C992.106 237.699 992.617 236.769 993.112 235.839C993.613 234.909 993.929 233.905 994.059 232.845C994.17 231.841 993.891 230.985 993.205 230.26C992.666 229.702 991.998 229.423 991.237 229.349C990.495 229.274 989.752 229.274 989.029 229.367C986.3 229.739 983.794 230.706 981.512 232.25C980.546 232.901 979.655 233.663 978.82 234.482C976.389 236.843 974.384 239.521 972.955 242.609C972.138 244.394 971.544 246.235 971.303 248.188C971.155 249.397 971.322 250.55 971.749 251.684C971.823 251.815 971.953 252.001 972.157 252.056C972.166 251.991 972.171 251.945 972.176 251.898C972.18 251.852 972.185 251.805 972.194 251.74C972.268 250.68 972.472 249.676 972.695 248.634C973.363 245.473 974.7 242.609 976.482 239.931C977.243 238.796 978.096 237.717 979.006 236.713C980.769 234.723 982.737 232.975 985.094 231.692C986.746 230.781 988.49 230.204 990.346 229.925C990.996 229.832 991.646 229.869 992.277 230.018C992.741 230.13 993.093 230.371 993.298 230.818C993.52 231.264 993.502 231.729 993.335 232.194C993.242 232.492 993.112 232.789 992.945 233.049C992.838 233.229 992.732 233.41 992.625 233.59C992.346 234.066 992.066 234.544 991.757 235.002C990.736 236.583 989.79 238.201 988.862 239.838C988.045 241.251 987.265 242.683 986.56 244.152C985.409 246.533 984.463 249.006 983.683 251.536C983.126 253.321 982.792 255.144 982.811 257.022C982.811 257.543 982.866 258.045 982.941 258.565C983.034 259.105 983.275 259.588 983.646 259.997C983.98 260.351 984.333 260.351 984.537 259.886C984.71 259.478 984.907 259.07 985.101 258.668C985.2 258.465 985.297 258.263 985.391 258.063C985.985 256.799 986.653 255.59 987.414 254.418C988.435 252.856 989.53 251.35 990.662 249.88C992.332 247.742 994.077 245.677 996.026 243.78C997.047 242.795 998.086 241.902 999.256 241.084C999.264 241.078 999.274 241.071 999.285 241.063L999.292 241.059C999.35 241.018 999.439 240.954 999.59 240.879C994.133 248.653 995.748 255.013 996.676 256.018C997.01 256.315 997.325 256.464 997.826 256.464C998.55 256.464 999.998 255.757 1000.57 255.367L1000.57 255.367C1001.32 254.864 1002.06 254.362 1002.76 253.823C1004.51 252.521 1006.09 251.033 1007.55 249.415C1008.76 248.076 1009.85 246.682 1010.95 245.25C1012.43 243.353 1013.84 241.344 1015.18 239.317Z" fill="#1D322B"/>
<path fill-rule="evenodd" clip-rule="evenodd" d="M1110.62 236.62C1110.53 236.657 1106 237.903 1100.3 237.364C1100.35 237.229 1100.39 237.095 1100.42 236.987C1100.44 236.931 1100.45 236.882 1100.47 236.843C1100.82 235.709 1101.12 234.556 1101.28 233.384C1101.45 232.194 1101.47 231.022 1101.27 229.832C1101.19 229.367 1101.08 228.902 1100.93 228.456C1100.87 228.25 1100.74 228.058 1100.61 227.868L1100.58 227.819C1100.56 227.802 1100.55 227.785 1100.54 227.768C1100.51 227.721 1100.44 227.687 1100.37 227.656C1100.36 227.65 1100.35 227.644 1100.34 227.638C1100.25 227.753 1100.3 227.835 1100.34 227.909L1100.35 227.919C1100.35 227.925 1100.35 227.931 1100.36 227.937C1100.36 227.949 1100.37 227.96 1100.37 227.972C1100.39 228.016 1100.4 228.059 1100.42 228.102C1100.44 228.189 1100.47 228.276 1100.49 228.363C1100.73 229.609 1100.75 230.855 1100.56 232.12C1100.3 233.738 1099.07 237.029 1099.02 237.141C1099.02 237.155 1096.4 236.805 1094.57 236.56C1093.91 236.473 1093.36 236.399 1093.06 236.36C1092.13 236.23 1091.21 236.118 1090.26 236.025C1089.48 235.951 1088.7 235.876 1087.92 235.876C1086.51 235.839 1085.1 235.914 1083.71 236.081C1082.2 236.248 1080.76 236.602 1079.38 237.215C1078.55 237.587 1077.75 238.052 1077.06 238.685C1076.54 239.15 1076.12 239.689 1075.89 240.377C1075.84 240.563 1075.8 240.768 1075.82 240.972C1075.86 241.325 1075.99 241.642 1076.36 241.772C1076.38 241.772 1076.41 241.772 1076.41 241.753C1076.91 240.916 1077.27 240.489 1077.8 239.986C1078.75 239.112 1079.88 238.573 1081.07 238.145C1082.02 237.792 1083 237.55 1084 237.439C1085.69 237.234 1087.38 237.141 1089.07 237.197C1089.32 237.209 1089.56 237.217 1089.81 237.226L1089.81 237.226C1090.3 237.242 1090.8 237.259 1091.28 237.308C1092.49 237.42 1093.69 237.55 1094.88 237.68C1095.96 237.792 1098.13 238.071 1098.59 238.145C1098.63 238.145 1098.65 238.182 1098.63 238.22C1098.49 238.535 1097.86 239.853 1097.08 241.496L1097.08 241.497C1096.52 242.665 1095.88 243.998 1095.29 245.25C1093.8 248.188 1091.41 251.684 1090.33 252.986C1089.5 253.99 1087.03 256.408 1085.15 257.022C1084.19 257.338 1083.58 257.059 1083.67 256.055C1083.67 256.04 1083.67 256.026 1083.68 256.011L1083.68 256.011C1083.69 255.892 1083.71 255.761 1083.74 255.646L1083.76 255.586C1083.83 255.306 1083.9 255.013 1084.02 254.753C1084.73 253.079 1085.6 251.48 1086.47 249.899C1086.86 249.174 1088.2 246.31 1087.86 245.231C1087.64 244.431 1086.99 244.338 1086.21 244.692C1085.8 244.878 1085.41 245.082 1085.04 245.324C1083.54 246.31 1082.18 247.481 1080.85 248.672C1079.9 249.527 1077.92 251.536 1077.58 252.019C1077.61 251.891 1077.9 251.381 1078.2 250.865C1078.41 250.484 1078.63 250.099 1078.75 249.862C1079.09 249.229 1079.34 248.56 1079.47 247.835C1079.6 247.035 1079.42 246.328 1078.94 245.677C1078.86 245.584 1078.66 245.398 1078.64 245.603C1078.62 245.956 1078.44 246.551 1078.16 247.221C1076.73 249.75 1073.29 252.447 1072.29 252.986C1071.75 253.284 1070.79 253.674 1069.95 253.6C1069.4 253.544 1069.1 253.135 1069.06 252.577C1069.01 251.777 1069.38 250.68 1070.19 249.806C1070.47 249.415 1070.81 249.211 1071.27 249.081C1072.18 248.858 1073.03 248.448 1073.85 247.965C1074.19 247.779 1074.48 247.537 1074.72 247.24C1075.11 246.756 1075.09 246.365 1074.69 245.919C1074.48 245.696 1074.24 245.566 1073.93 245.529C1073.46 245.491 1073.03 245.622 1072.63 245.826C1071.03 246.626 1069.75 247.797 1068.84 249.341C1068.47 249.955 1068.23 250.624 1068.15 251.331C1068.06 252.112 1068.15 252.912 1068.64 253.507C1069.58 254.66 1071.66 253.842 1072.12 253.581C1072.83 253.228 1073.46 252.782 1074.07 252.279C1074.76 251.722 1075.97 250.606 1076.43 250.141L1076.45 250.115L1076.45 250.115C1076.54 250.015 1076.61 249.929 1076.71 249.843C1076.8 249.694 1076.91 249.564 1077.04 249.453C1076.61 250.296 1076.18 251.055 1075.95 251.479L1075.95 251.48L1075.95 251.48C1075.85 251.654 1075.78 251.771 1075.76 251.815C1075.3 252.67 1074.93 253.563 1074.85 254.53C1074.83 254.865 1074.82 255.664 1075.26 255.962C1075.3 255.98 1075.34 255.98 1075.37 255.943C1075.52 255.78 1075.84 255.329 1076.19 254.845L1076.2 254.843L1076.2 254.841L1076.2 254.841L1076.2 254.841C1076.53 254.387 1076.88 253.905 1077.12 253.6C1078.9 251.35 1080.89 249.267 1083.08 247.407C1084.08 246.551 1085.15 245.77 1086.29 245.119C1086.38 245.064 1086.49 245.008 1086.62 244.952C1086.71 244.915 1086.99 244.822 1087.12 244.989C1087.23 245.231 1086.84 245.9 1086.69 246.124C1086.44 246.555 1086.19 246.985 1085.94 247.417L1085.94 247.419L1085.93 247.42C1085.53 248.106 1085.13 248.794 1084.73 249.49C1084.15 250.475 1083.67 251.48 1083.24 252.54C1082.95 253.284 1082.76 254.083 1082.7 254.883C1082.69 255.144 1082.69 255.553 1082.72 255.794C1082.93 257.115 1083.73 257.97 1085.45 257.431C1085.9 257.282 1086.34 257.078 1086.75 256.836C1087.12 256.631 1087.47 256.39 1087.81 256.129C1089.11 255.088 1090.3 253.953 1091.32 252.651C1091.8 252.038 1092.24 251.461 1092.62 250.903C1092.32 251.74 1092.08 252.577 1091.87 253.451C1091.63 254.493 1091.52 255.534 1091.63 256.594C1091.67 257.04 1091.72 257.301 1091.84 257.747C1091.87 257.859 1092 258.101 1092.17 258.156C1092.21 258.175 1092.23 258.138 1092.23 258.101C1092.21 257.896 1092.17 257.226 1092.23 256.743C1092.43 254.92 1092.93 253.154 1093.69 251.498C1094.81 249.025 1096.03 246.607 1097.29 244.208C1097.91 243.036 1098.69 241.437 1099.52 239.447L1099.97 238.387C1099.97 238.368 1100 238.35 1100.02 238.35C1106.7 239.038 1109.77 237.736 1110.32 237.327C1110.45 237.234 1110.58 237.104 1110.66 237.011C1110.79 236.862 1110.79 236.564 1110.62 236.62ZM1073.59 246.719C1073.8 246.589 1074.54 246.235 1074.63 246.403C1074.76 246.626 1074.56 246.923 1074.41 247.072C1073.7 247.816 1071.86 248.56 1071.16 248.709C1071.48 248.225 1072.77 247.221 1073.59 246.719Z" fill="#1D322B"/>
<path d="M1070.47 239.856C1070.7 240.135 1070.84 240.396 1070.96 240.637C1071.18 241.177 1071.2 241.772 1070.99 242.274C1069.01 247.742 1061.01 255.329 1057.83 256.371L1057.82 256.375C1057.64 256.43 1057.42 256.496 1057.18 256.241C1057.17 256.209 1057.16 256.197 1057.15 256.184C1057.15 256.167 1057.15 256.148 1057.15 256.073C1057.65 255.255 1059.23 250.401 1058.22 246.57C1058.21 246.668 1058.17 246.755 1058.15 246.816C1058.14 246.836 1058.13 246.854 1058.13 246.868C1057.44 249.006 1056.27 250.885 1054.83 252.596C1053.77 253.86 1052.62 255.032 1051.32 256.073C1050.98 256.334 1050.63 256.575 1050.26 256.78C1049.85 257.022 1049.41 257.226 1048.96 257.375C1047.23 257.915 1046.44 257.059 1046.23 255.739C1046.2 255.497 1046.2 255.088 1046.21 254.827C1046.27 254.028 1046.46 253.228 1046.75 252.484C1047.18 251.424 1047.66 250.42 1048.24 249.434C1048.64 248.738 1049.04 248.048 1049.45 247.362C1049.7 246.93 1049.95 246.499 1050.2 246.068C1050.35 245.845 1050.74 245.175 1050.63 244.933C1050.5 244.766 1050.22 244.859 1050.13 244.896C1050 244.952 1049.89 245.008 1049.8 245.064C1048.66 245.714 1047.59 246.496 1046.59 247.351C1044.4 249.211 1042.41 251.294 1040.63 253.544C1040.39 253.849 1040.04 254.332 1039.71 254.785L1039.71 254.785C1039.35 255.271 1039.03 255.724 1038.88 255.887C1038.85 255.925 1038.81 255.925 1038.77 255.906C1038.33 255.608 1038.34 254.809 1038.36 254.474C1038.44 253.507 1038.81 252.614 1039.27 251.759C1039.38 251.551 1039.52 251.3 1039.66 251.044L1039.66 251.044L1039.67 251.043L1039.67 251.042C1039.77 250.863 1039.87 250.681 1039.96 250.513C1038.96 251.573 1037.55 252.633 1036.49 253.395C1035.56 254.065 1034.6 254.66 1033.54 255.106C1032.98 255.348 1032.4 255.534 1031.79 255.571C1031.75 255.571 1031.7 255.572 1031.66 255.573C1031.48 255.576 1031.29 255.579 1031.12 255.534C1030.51 255.385 1030.08 255.032 1029.92 254.4C1029.83 254.046 1029.83 253.693 1029.88 253.34C1029.97 252.689 1030.2 252.075 1030.47 251.48C1031.11 250.178 1031.89 248.969 1032.89 247.928C1033.68 247.133 1034.06 246.948 1034.31 246.822C1034.33 246.815 1034.34 246.809 1034.35 246.803C1034.36 246.8 1034.37 246.797 1034.37 246.793C1034.61 246.663 1034.76 246.719 1034.95 246.942C1034.98 246.998 1035.02 247.053 1035.06 247.128C1035.1 247.202 1035.08 247.314 1035.02 247.388C1032.48 250.104 1030.33 253.358 1030.55 254.586C1030.64 254.995 1031.03 255.329 1032.22 254.995C1032.98 254.809 1033.7 254.493 1034.37 254.083C1036.84 252.596 1039.05 250.773 1040.92 248.56C1041.11 248.337 1041.28 248.076 1041.41 247.816C1041.78 247.072 1042.08 246.31 1042.15 245.491C1042.17 245.287 1042.37 245.473 1042.45 245.566C1042.93 246.217 1043.11 246.923 1042.98 247.723C1042.85 248.448 1042.59 249.118 1042.26 249.75C1042.14 249.987 1041.92 250.372 1041.71 250.753C1041.41 251.269 1041.12 251.779 1041.09 251.907C1041.43 251.424 1043.41 249.415 1044.36 248.56C1045.69 247.37 1047.05 246.198 1048.55 245.212C1048.92 244.971 1049.31 244.766 1049.72 244.58C1050.5 244.227 1051.15 244.32 1051.37 245.119C1051.71 246.198 1050.37 249.062 1049.98 249.787C1049.11 251.368 1048.24 252.968 1047.53 254.641C1047.41 254.902 1047.34 255.195 1047.27 255.474L1047.25 255.534C1047.22 255.65 1047.2 255.781 1047.19 255.9C1047.18 255.914 1047.18 255.929 1047.18 255.943C1047.09 256.947 1047.7 257.226 1048.66 256.91C1050.54 256.297 1053.01 253.879 1053.84 252.875C1054.94 251.573 1055.98 250.289 1056.79 248.783C1057.24 247.946 1057.76 246.812 1058.07 245.603C1058.09 245.547 1058.15 245.528 1058.19 245.566C1059.17 246.44 1059.69 248.114 1059.76 249.378C1059.87 251.275 1059.41 253.823 1058.54 255.46C1061.34 254.083 1069.34 246.217 1070.53 242.014C1070.66 241.549 1070.75 240.73 1070.31 240.544C1070.08 240.451 1069.69 240.414 1069.12 240.563C1066.04 241.511 1064.03 244.617 1063.07 246.533C1062.99 246.663 1062.81 246.644 1062.77 246.496C1061.05 239.197 1058.35 239.365 1057.94 239.39C1057.94 239.391 1057.93 239.391 1057.93 239.391C1056.44 239.521 1056.03 240.879 1055.92 241.772C1055.92 241.809 1055.87 241.809 1055.87 241.772C1055.74 241.028 1056 240.321 1056.31 239.912C1056.89 239.131 1057.89 238.833 1058.74 239.075C1059.95 239.41 1061.6 240.526 1062.97 244.561C1062.97 244.562 1062.98 244.553 1062.99 244.534C1063.17 244.147 1065.2 239.795 1068.91 239.298C1069.54 239.187 1070.05 239.373 1070.47 239.856Z" fill="#1D322B"/>
<path fill-rule="evenodd" clip-rule="evenodd" d="M1038.55 239.559C1039.55 238.647 1040.44 237.662 1041.15 236.49C1041.41 236.044 1041.89 235.151 1041.87 234.314C1041.82 233.105 1040.98 232.752 1039.96 232.994C1039.4 233.124 1038.9 233.328 1038.4 233.589C1037.12 234.258 1036.01 235.17 1034.95 236.137C1033.37 237.569 1031.98 239.187 1030.68 240.879C1029.42 242.525 1027.31 246.134 1027.02 246.627C1027 246.658 1026.99 246.676 1026.99 246.682C1026.98 246.676 1026.97 246.652 1026.95 246.615C1026.84 246.401 1026.53 245.757 1025.48 245.789C1025.15 245.807 1024.81 245.845 1024.48 245.919C1023.5 246.179 1022.59 246.607 1021.79 247.221C1021.12 247.742 1020.47 248.3 1019.9 248.913C1019.21 249.639 1018.5 250.382 1017.78 251.089C1016.81 252.038 1015.77 252.893 1014.64 253.6C1014.12 253.916 1013.58 254.195 1013.01 254.362C1012.55 254.493 1012.08 254.53 1011.62 254.474C1011.13 254.362 1010.78 254.046 1010.8 253.451C1010.82 252.633 1011.58 250.996 1012.3 250.234C1012.58 249.973 1012.82 249.843 1013.18 249.769C1014.1 249.583 1014.98 249.229 1015.83 248.82C1016.13 248.672 1016.42 248.486 1016.68 248.281C1016.91 248.095 1017.09 247.872 1017.26 247.63C1017.39 247.444 1017.39 247.184 1017.32 246.998C1017.26 246.83 1017.19 246.7 1017.11 246.57C1016.93 246.235 1016.63 246.068 1016.24 246.049C1015.77 246.031 1015.35 246.124 1014.94 246.31C1014.31 246.57 1013.75 246.942 1013.23 247.351C1012.12 248.225 1011.15 249.267 1010.52 250.568C1010.17 251.294 1009.95 252.056 1009.98 252.893C1010.02 254.586 1011.13 255.497 1013.08 254.92C1014.12 254.679 1015.01 254.102 1015.89 253.488C1016.44 253.079 1017 252.651 1017.5 252.186C1017.55 252.136 1017.61 252.091 1017.69 252.033C1017.76 251.985 1017.83 251.928 1017.93 251.852C1017.94 251.852 1017.94 251.852 1017.94 251.854C1017.95 251.856 1017.95 251.861 1017.95 251.87C1017.91 251.988 1017.87 252.092 1017.84 252.187C1017.77 252.393 1017.71 252.555 1017.65 252.707C1017.39 253.414 1017.26 254.102 1017.3 254.846C1017.32 255.125 1017.41 255.478 1017.74 255.59C1018.02 255.683 1018.71 255.441 1019.32 254.809L1023.38 250.792C1024.28 249.936 1025.18 249.099 1026.09 248.281C1026.19 248.188 1026.47 247.983 1026.37 248.207C1026.33 248.346 1026.28 248.481 1026.22 248.616C1026.17 248.751 1026.12 248.885 1026.08 249.025C1025.3 251.312 1024.91 253.674 1025.04 256.092C1025.07 256.668 1025.15 257.264 1025.31 257.803C1025.61 258.789 1026.19 259.477 1026.58 259.458C1026.6 259.458 1026.6 259.44 1026.58 259.44C1026.17 259.017 1026.1 258.685 1025.97 258.139L1025.96 258.119C1025.91 257.654 1025.85 257.189 1025.85 256.724C1025.87 254.92 1026.24 253.154 1026.73 251.424C1027.17 249.806 1027.86 248.262 1028.64 246.775C1028.8 246.458 1029.01 246.235 1029.31 246.068C1030.1 245.621 1030.9 245.157 1031.68 244.673C1034.11 243.185 1036.43 241.493 1038.55 239.559ZM1013.36 249.248C1014.09 248.43 1014.87 247.723 1015.85 247.239C1016.11 247.109 1016.39 246.998 1016.72 246.998C1016.76 246.998 1016.78 247.035 1016.78 247.054C1016.78 247.146 1016.65 247.351 1016.61 247.407C1016.41 247.649 1016.29 247.76 1016.05 247.946C1015.27 248.616 1014.36 249.043 1013.36 249.267V249.248ZM1025.99 247.626L1025.99 247.627C1025.63 247.948 1025.32 248.229 1024.96 248.541C1023.63 249.694 1022.35 250.903 1021.14 252.186C1020.4 252.986 1019.62 253.748 1018.84 254.511L1018.84 254.511C1018.63 254.716 1018.17 255.069 1018.08 255.088C1018.07 255.088 1018.06 255.088 1018.06 255.085C1018.06 255.083 1018.06 255.078 1018.06 255.069C1018.04 254.976 1018.08 254.66 1018.58 253.618C1019.51 251.833 1020.6 250.197 1022.14 248.876C1023.12 248.021 1024.13 247.295 1025.46 247.016C1025.82 246.961 1026.11 246.942 1026.6 246.998C1026.65 246.998 1026.67 247.035 1026.63 247.054C1026.4 247.264 1026.19 247.451 1025.99 247.626ZM1029.49 245.324L1029.47 245.305C1029.53 245.214 1029.57 245.137 1029.61 245.069C1029.63 245.027 1029.66 244.988 1029.68 244.952C1031.51 241.939 1033.56 239.112 1036.08 236.62C1037.05 235.672 1038.07 234.816 1039.25 234.147C1039.59 233.961 1039.94 233.812 1040.29 233.7C1040.52 233.626 1040.68 233.626 1040.94 233.626C1041.24 233.645 1041.44 233.831 1041.46 234.11C1041.46 234.444 1041.41 234.723 1041.28 234.984C1041.05 235.467 1040.79 235.913 1040.5 236.36C1039.37 238.052 1037.94 239.466 1036.34 240.712C1034.63 242.051 1032.83 243.26 1030.99 244.45C1030.66 244.705 1029.91 245.099 1029.58 245.279C1029.54 245.296 1029.51 245.311 1029.49 245.324Z" fill="#1D322B"/>
<path d="M1035.82 244.859C1035.89 244.747 1036.15 244.413 1036.38 244.227C1036.51 244.115 1036.71 244.115 1036.84 244.208C1036.93 244.282 1037.05 244.58 1037.01 244.729C1036.98 244.844 1036.71 245.179 1036.42 245.534C1036.29 245.695 1036.16 245.861 1036.04 246.012C1035.99 246.086 1035.88 246.105 1035.8 246.049C1035.47 245.826 1035.43 245.659 1035.56 245.324C1035.63 245.157 1035.71 245.008 1035.82 244.859Z" fill="#1D322B"/>
<path d="M1610.5 1.5H1181.5C1170.45 1.5 1161.5 10.4543 1161.5 21.5V39.5" stroke="#1D322B" stroke-width="1.5"/>
<path d="M1161.5 148V173" stroke="#1D322B" stroke-width="1.5"/>
<rect x="1095" y="56" width="129" height="76" rx="8" fill="#CCB8A8"/>
<path d="M1101 68L1154.02 95.1919C1157.46 96.9548 1161.54 96.9548 1164.98 95.1919L1218 68" stroke="#1D322B" stroke-width="1.5"/>
<g filter="url(#filter0_d_0_1)">
<path d="M1141.26 407.699L1204.73 439.079L1169.14 447.728L1148.69 478.108L1141.26 407.699Z" fill="#1D322B"/>
</g>
<path d="M1137 400.588C1107.5 363 1047 360 1010 426.088C973 492.175 892.698 601.922 781.5 670.588C490.857 850.062 28.2 493.088 -75 493.088" stroke="#1D322B" stroke-width="1.5"/>
<path d="M1361 40L1365.32 51.6785L1377 56L1365.32 60.3215L1361 72L1356.68 60.3215L1345 56L1356.68 51.6785L1361 40Z" fill="#1D322B"/>
<path d="M973 596L977.321 607.679L989 612L977.321 616.321L973 628L968.679 616.321L957 612L968.679 607.679L973 596Z" fill="#1D322B"/>
<path d="M777.5 165.096C776.183 122.1 775.106 121.033 732 119.712C775.106 118.398 776.176 117.324 777.5 74.3281C778.817 117.324 779.894 118.391 823 119.712C779.894 121.033 778.824 122.087 777.5 165.096Z" fill="#1D322B"/>
<defs>
<filter id="filter0_d_0_1" x="1133.26" y="407.699" width="71.4648" height="78.4087" filterUnits="userSpaceOnUse" color-interpolation-filters="sRGB">
<feFlood flood-opacity="0" result="BackgroundImageFix"/>
<feColorMatrix in="SourceAlpha" type="matrix" values="0 0 0 0 0 0 0 0 0 0 0 0 0 0 0 0 0 0 127 0" result="hardAlpha"/>
<feOffset dx="-8" dy="8"/>
<feComposite in2="hardAlpha" operator="out"/>
<feColorMatrix type="matrix" values="0 0 0 0 0.113725 0 0 0 0 0.196078 0 0 0 0 0.168627 0 0 0 0.15 0"/>
<feBlend mode="normal" in2="BackgroundImageFix" result="effect1_dropShadow_0_1"/>
<feBlend mode="normal" in="SourceGraphic" in2="effect1_dropShadow_0_1" result="shape"/>
</filter>
</defs>
</svg>
