<svg width="320" height="262" viewBox="0 0 320 262" fill="none" xmlns="http://www.w3.org/2000/svg">
<path d="M-97 173.035C9.20308 300.529 112.687 266.059 220.5 214.966" stroke="#1D322B" stroke-width="1.5"/>
<rect x="72" y="92" width="202" height="141" rx="16" fill="#DDE0DF"/>
<path d="M68.5 104.908C68.5 100.663 70.4959 96.6663 73.8886 94.1162L160.889 28.7225C165.693 25.111 172.307 25.111 177.111 28.7225L264.111 94.1162C267.504 96.6663 269.5 100.663 269.5 104.908V215C269.5 222.456 263.456 228.5 256 228.5H82C74.5442 228.5 68.5 222.456 68.5 215V104.908Z" fill="white" stroke="#1D322B"/>
<rect opacity="0.4" x="87.8848" y="183.694" width="54.2627" height="2.02851" fill="#1D322B" fill-opacity="0.4"/>
<rect opacity="0.4" x="87.8848" y="193.837" width="54.2627" height="2.02851" fill="#1D322B" fill-opacity="0.4"/>
<rect opacity="0.4" x="141" y="68" width="54" height="2" fill="white"/>
<rect opacity="0.4" x="154" y="78" width="29" height="2" fill="white"/>
<path d="M162.472 151.108L90 113.192V77C90 72.5817 93.5817 69 98 69H239C243.418 69 247 72.5817 247 77V113.192L173.543 151.137C170.068 152.932 165.937 152.921 162.472 151.108Z" fill="#CCB8A8"/>
<rect opacity="0.4" x="141.133" y="100.019" width="54.2627" height="2.02851" fill="white"/>
<rect opacity="0.4" x="153.811" y="110.161" width="28.9063" height="2.02851" fill="white"/>
<path d="M236 162L240.321 173.679L252 178L240.321 182.321L236 194L231.679 182.321L220 178L231.679 173.679L236 162Z" fill="#1D322B"/>
<path d="M236 0L238.161 5.83927L244 8L238.161 10.1607L236 16L233.839 10.1607L228 8L233.839 5.83927L236 0Z" fill="#1D322B"/>
<path d="M67 83C65.784 43.6837 64.79 42.7076 25 41.5C64.79 40.2985 65.7779 39.3163 67 0C68.2159 39.3163 69.21 40.2925 109 41.5C69.21 42.7076 68.2222 43.6717 67 83Z" fill="#1D322B"/>
<path d="M75 106L162.496 151.159C165.949 152.941 170.051 152.941 173.504 151.159L261 106" stroke="#1D322B"/>
<path d="M746 27V23C746 17.4772 741.523 13 736 13H309C302.373 13 297 18.3726 297 25V129.5C297 135.023 292.523 139.5 287 139.5V139.5" stroke="#1D322B"/>
</svg>
