<svg width="285" height="214" viewBox="0 0 285 214" fill="none" xmlns="http://www.w3.org/2000/svg">
<path d="M26.6895 12.3684C26.6895 5.94596 31.8959 0.739502 38.3184 0.739502H255.106C261.528 0.739502 266.735 5.94595 266.735 12.3684V147.973C266.735 154.395 261.528 159.602 255.106 159.602H38.3184C31.8959 159.602 26.6895 154.396 26.6895 147.973V12.3684Z" fill="white" stroke="#1D322B"/>
<rect opacity="0.4" x="118.742" y="159.581" width="56.0923" height="6.07073" fill="#1D322B" fill-opacity="0.2"/>
<line opacity="0.4" x1="179.305" y1="208.13" x2="114.116" y2="208.13" stroke="#1D322B" stroke-opacity="0.2"/>
<path d="M118.585 159.718V159.218H118.085V159.718H118.585ZM175.023 159.718H175.523V159.218H175.023V159.718ZM178.138 204.203L177.683 204.412L178.138 204.203ZM118.085 159.718V190.63H119.085V159.718H118.085ZM175.523 190.63V159.718H174.523V190.63H175.523ZM178.592 203.994C176.657 199.79 175.523 195.237 175.523 190.63H174.523C174.523 195.401 175.697 200.095 177.683 204.412L178.592 203.994ZM118.085 190.63C118.085 195.237 116.951 199.79 115.016 203.994L115.924 204.412C117.911 200.095 119.085 195.401 119.085 190.63H118.085ZM115.199 212.198H178.409V211.198H115.199V212.198ZM178.409 212.198C179.371 212.198 180.151 211.417 180.151 210.455H179.151C179.151 210.866 178.818 211.198 178.409 211.198V212.198ZM115.199 211.198C114.79 211.198 114.457 210.866 114.457 210.455H113.457C113.457 211.417 114.236 212.198 115.199 212.198V211.198ZM175.023 159.218H118.585V160.218H175.023V159.218ZM115.016 203.994C114.089 206.008 113.457 208.193 113.457 210.455H114.457C114.457 208.379 115.038 206.338 115.924 204.412L115.016 203.994ZM177.683 204.412C178.57 206.338 179.151 208.379 179.151 210.455H180.151C180.151 208.193 179.519 206.008 178.592 203.994L177.683 204.412Z" fill="#1D322B"/>
<path d="M108.613 37.3364C109.381 37.3364 110.052 37.5103 110.627 37.858C111.209 38.2057 111.657 38.707 111.973 39.362C112.296 40.0088 112.458 40.7972 112.458 41.7271C112.458 42.6327 112.292 43.4251 111.961 44.1044C111.637 44.7836 111.184 45.3132 110.602 45.6933C110.02 46.0733 109.353 46.2633 108.601 46.2633C107.833 46.2633 107.158 46.0895 106.575 45.7418C106.001 45.3941 105.553 44.8927 105.229 44.2378C104.914 43.5828 104.756 42.7944 104.756 41.8726C104.756 40.967 104.922 40.1746 105.253 39.4954C105.585 38.8162 106.038 38.2865 106.612 37.9065C107.194 37.5264 107.861 37.3364 108.613 37.3364ZM108.565 37.5547C108.039 37.5547 107.582 37.7367 107.194 38.1006C106.806 38.4644 106.503 38.9657 106.284 39.6045C106.074 40.2433 105.969 40.9832 105.969 41.8241C105.969 42.6812 106.086 43.4292 106.321 44.068C106.563 44.6987 106.887 45.1879 107.291 45.5356C107.703 45.8752 108.156 46.045 108.649 46.045C109.175 46.045 109.632 45.8631 110.02 45.4992C110.408 45.1353 110.707 44.634 110.918 43.9952C111.136 43.3483 111.245 42.6085 111.245 41.7756C111.245 40.9104 111.124 40.1625 110.881 39.5318C110.647 38.9011 110.327 38.4159 109.923 38.0763C109.519 37.7286 109.066 37.5547 108.565 37.5547ZM118.975 39.8592V40.114C118.644 40.114 118.405 40.1746 118.26 40.2959C118.122 40.4172 118.054 40.6476 118.054 40.9872V44.9655C118.054 45.3051 118.122 45.5356 118.26 45.6569C118.405 45.7782 118.644 45.8388 118.975 45.8388V46.0935C118.838 46.0854 118.636 46.0773 118.369 46.0692C118.102 46.0531 117.811 46.045 117.496 46.045C117.18 46.045 116.861 46.0531 116.537 46.0692C116.222 46.0773 115.975 46.0854 115.798 46.0935V45.8388C116.161 45.8388 116.444 45.7822 116.647 45.669C116.857 45.5477 116.962 45.3132 116.962 44.9655V40.9872C116.962 40.6476 116.901 40.4172 116.78 40.2959C116.659 40.1746 116.453 40.114 116.161 40.114H116.052C115.85 40.114 115.717 40.1746 115.652 40.2959C115.587 40.4172 115.539 40.6476 115.506 40.9872C115.442 41.7392 115.361 42.4589 115.264 43.1462C115.175 43.8254 115.021 44.4399 114.803 44.9898C114.722 45.1838 114.621 45.3819 114.5 45.5841C114.378 45.7782 114.229 45.9399 114.051 46.0692C113.881 46.1986 113.675 46.2633 113.432 46.2633C113.287 46.2633 113.149 46.235 113.02 46.1784C112.891 46.1299 112.786 46.0531 112.705 45.948C112.624 45.8348 112.583 45.6973 112.583 45.5356C112.583 45.3334 112.644 45.1758 112.765 45.0625C112.887 44.9493 113.044 44.8927 113.238 44.8927C113.408 44.8927 113.55 44.9413 113.663 45.0383C113.784 45.1353 113.845 45.2809 113.845 45.4749C113.845 45.6043 113.808 45.7216 113.736 45.8267C113.663 45.9237 113.546 46.0046 113.384 46.0692C113.4 46.0773 113.42 46.0814 113.445 46.0814C113.477 46.0814 113.497 46.0814 113.505 46.0814C113.707 46.0814 113.877 46.0167 114.015 45.8873C114.16 45.7499 114.281 45.5922 114.378 45.4143C114.484 45.2283 114.56 45.0666 114.609 44.9291C114.738 44.5895 114.847 44.2095 114.936 43.789C115.025 43.3685 115.098 42.9198 115.155 42.4427C115.211 41.9656 115.256 41.4805 115.288 40.9872C115.312 40.6476 115.24 40.4172 115.07 40.2959C114.908 40.1746 114.661 40.114 114.33 40.114V39.8592C114.395 39.8673 114.496 39.8795 114.633 39.8956C114.779 39.9037 114.953 39.9078 115.155 39.9078C115.316 39.9078 115.482 39.9078 115.652 39.9078C115.83 39.9078 116.008 39.9078 116.186 39.9078C116.339 39.9078 116.481 39.9078 116.61 39.9078C116.74 39.9078 116.877 39.9078 117.023 39.9078C117.168 39.9078 117.33 39.9078 117.508 39.9078C117.694 39.9078 117.88 39.9037 118.066 39.8956C118.26 39.8875 118.438 39.8795 118.599 39.8714C118.761 39.8633 118.886 39.8592 118.975 39.8592ZM122.43 39.6773C123.141 39.6773 123.695 39.8956 124.091 40.3323C124.496 40.7608 124.698 41.432 124.698 42.3457H120.416L120.404 42.1152H123.534C123.55 41.719 123.517 41.3551 123.436 41.0236C123.356 40.684 123.226 40.4131 123.048 40.211C122.879 40.0088 122.656 39.9078 122.381 39.9078C122.009 39.9078 121.678 40.0937 121.387 40.4657C121.104 40.8376 120.934 41.4279 120.877 42.2365L120.914 42.285C120.897 42.4063 120.885 42.5397 120.877 42.6853C120.869 42.8308 120.865 42.9764 120.865 43.1219C120.865 43.6718 120.954 44.1448 121.132 44.541C121.31 44.9372 121.54 45.2404 121.823 45.4507C122.114 45.6528 122.414 45.7539 122.721 45.7539C122.963 45.7539 123.194 45.7175 123.412 45.6447C123.631 45.5639 123.833 45.4345 124.019 45.2566C124.205 45.0787 124.366 44.8402 124.504 44.541L124.746 44.638C124.657 44.9049 124.512 45.1636 124.31 45.4143C124.108 45.665 123.853 45.8711 123.546 46.0329C123.238 46.1865 122.883 46.2633 122.478 46.2633C121.896 46.2633 121.395 46.1299 120.974 45.8631C120.562 45.5962 120.243 45.2283 120.016 44.7593C119.798 44.2823 119.689 43.7365 119.689 43.1219C119.689 42.4104 119.802 41.7999 120.028 41.2905C120.255 40.773 120.574 40.3767 120.986 40.1018C121.399 39.8188 121.88 39.6773 122.43 39.6773ZM130.34 39.8592C130.308 40.1423 130.284 40.4131 130.267 40.6719C130.259 40.9306 130.255 41.1287 130.255 41.2662C130.255 41.4117 130.259 41.5532 130.267 41.6907C130.275 41.8201 130.284 41.9292 130.292 42.0182H130.013C129.972 41.5411 129.916 41.1651 129.843 40.8902C129.778 40.6072 129.661 40.405 129.491 40.2838C129.329 40.1625 129.083 40.1018 128.751 40.1018C128.67 40.1018 128.586 40.1018 128.497 40.1018C128.408 40.1018 128.319 40.1018 128.23 40.1018C127.939 40.1018 127.732 40.1665 127.611 40.2959C127.49 40.4172 127.429 40.6476 127.429 40.9872V44.8442C127.429 45.2404 127.542 45.5073 127.769 45.6447C128.003 45.7741 128.319 45.8388 128.715 45.8388V46.0935C128.529 46.0854 128.266 46.0773 127.927 46.0692C127.587 46.0531 127.227 46.045 126.847 46.045C126.572 46.045 126.297 46.0531 126.022 46.0692C125.755 46.0773 125.553 46.0854 125.416 46.0935V45.8388C125.747 45.8388 125.982 45.7782 126.119 45.6569C126.265 45.5356 126.338 45.3051 126.338 44.9655V40.9872C126.338 40.6476 126.265 40.4172 126.119 40.2959C125.982 40.1746 125.747 40.114 125.416 40.114V39.8592C125.553 39.8673 125.764 39.8795 126.047 39.8956C126.33 39.9037 126.604 39.9078 126.871 39.9078C127.138 39.9078 127.409 39.8997 127.684 39.8835C127.959 39.8673 128.214 39.8592 128.448 39.8592H130.34ZM140.559 39.8592V40.114C140.228 40.114 139.989 40.1746 139.844 40.2959C139.706 40.4172 139.637 40.6476 139.637 40.9872V44.9655C139.637 45.3051 139.706 45.5356 139.844 45.6569C139.989 45.7782 140.228 45.8388 140.559 45.8388V46.0935C140.422 46.0854 140.211 46.0773 139.928 46.0692C139.645 46.0531 139.371 46.045 139.104 46.045C138.837 46.045 138.574 46.0531 138.315 46.0692C138.065 46.0773 137.875 46.0854 137.745 46.0935V45.8388C138.036 45.8388 138.243 45.7782 138.364 45.6569C138.485 45.5356 138.546 45.3051 138.546 44.9655V40.9872C138.546 40.6476 138.485 40.4172 138.364 40.2959C138.243 40.1746 138.036 40.114 137.745 40.114V39.8592C137.875 39.8673 138.065 39.8795 138.315 39.8956C138.574 39.9037 138.837 39.9078 139.104 39.9078C139.371 39.9078 139.645 39.9037 139.928 39.8956C140.211 39.8795 140.422 39.8673 140.559 39.8592ZM136.484 39.8592V40.114C136.193 40.114 135.987 40.1746 135.865 40.2959C135.744 40.4172 135.683 40.6476 135.683 40.9872V44.9655C135.683 45.3051 135.744 45.5356 135.865 45.6569C135.987 45.7782 136.193 45.8388 136.484 45.8388V46.0935C136.354 46.0854 136.16 46.0773 135.902 46.0692C135.651 46.0531 135.392 46.045 135.125 46.045C134.859 46.045 134.584 46.0531 134.301 46.0692C134.018 46.0773 133.807 46.0854 133.67 46.0935V45.8388C134.001 45.8388 134.236 45.7782 134.373 45.6569C134.519 45.5356 134.592 45.3051 134.592 44.9655V40.9872C134.592 40.6476 134.519 40.4172 134.373 40.2959C134.236 40.1746 134.001 40.114 133.67 40.114V39.8592C133.807 39.8673 134.018 39.8795 134.301 39.8956C134.584 39.9037 134.859 39.9078 135.125 39.9078C135.392 39.9078 135.651 39.9037 135.902 39.8956C136.16 39.8795 136.354 39.8673 136.484 39.8592ZM138.667 40.7083L138.861 40.8417L135.526 45.4507L135.332 45.3051L138.667 40.7083ZM149.106 46.0935V45.8509C149.381 45.8348 149.587 45.8024 149.725 45.7539C149.87 45.7054 149.967 45.6083 150.016 45.4628C150.064 45.3173 150.088 45.0989 150.088 44.8078V38.7919C150.088 38.4927 150.064 38.2744 150.016 38.1369C149.967 37.9914 149.87 37.8944 149.725 37.8458C149.587 37.7892 149.381 37.7569 149.106 37.7488V37.5062C149.292 37.5143 149.526 37.5224 149.81 37.5305C150.093 37.5386 150.371 37.5426 150.646 37.5426C150.962 37.5426 151.257 37.5386 151.532 37.5305C151.807 37.5224 152.029 37.5143 152.199 37.5062V37.7488C151.924 37.7569 151.714 37.7892 151.568 37.8458C151.431 37.8944 151.338 37.9914 151.289 38.1369C151.241 38.2744 151.216 38.4927 151.216 38.7919V44.8078C151.216 45.0989 151.241 45.3173 151.289 45.4628C151.338 45.6083 151.431 45.7054 151.568 45.7539C151.714 45.8024 151.924 45.8348 152.199 45.8509V46.0935C152.029 46.0773 151.807 46.0692 151.532 46.0692C151.257 46.0612 150.962 46.0571 150.646 46.0571C150.371 46.0571 150.093 46.0612 149.81 46.0692C149.526 46.0692 149.292 46.0773 149.106 46.0935ZM144.036 46.0935V45.8509C144.311 45.8348 144.517 45.8024 144.655 45.7539C144.8 45.7054 144.897 45.6083 144.946 45.4628C144.994 45.3173 145.019 45.0989 145.019 44.8078V38.7919C145.019 38.4927 144.994 38.2744 144.946 38.1369C144.897 37.9914 144.8 37.8944 144.655 37.8458C144.517 37.7892 144.311 37.7569 144.036 37.7488V37.5062C144.206 37.5143 144.428 37.5224 144.703 37.5305C144.978 37.5386 145.273 37.5426 145.589 37.5426C145.872 37.5426 146.151 37.5386 146.426 37.5305C146.709 37.5224 146.943 37.5143 147.129 37.5062V37.7488C146.854 37.7569 146.644 37.7892 146.498 37.8458C146.361 37.8944 146.268 37.9914 146.219 38.1369C146.171 38.2744 146.147 38.4927 146.147 38.7919V44.8078C146.147 45.0989 146.171 45.3173 146.219 45.4628C146.268 45.6083 146.361 45.7054 146.498 45.7539C146.644 45.8024 146.854 45.8348 147.129 45.8509V46.0935C146.943 46.0773 146.709 46.0692 146.426 46.0692C146.151 46.0612 145.872 46.0571 145.589 46.0571C145.273 46.0571 144.978 46.0612 144.703 46.0692C144.428 46.0692 144.206 46.0773 144.036 46.0935ZM145.722 41.8969V41.6543H150.513V41.8969H145.722ZM154.519 46.1784C154.187 46.1784 153.9 46.1178 153.658 45.9965C153.415 45.8671 153.229 45.6892 153.1 45.4628C152.979 45.2364 152.918 44.9736 152.918 44.6744C152.918 44.3186 152.999 44.0275 153.161 43.8011C153.33 43.5747 153.545 43.3928 153.803 43.2553C154.062 43.1179 154.333 43.0047 154.616 42.9157C154.907 42.8187 155.182 42.7298 155.441 42.6489C155.7 42.5599 155.91 42.4589 156.071 42.3457C156.241 42.2325 156.326 42.0829 156.326 41.8969V41.1449C156.326 40.8053 156.274 40.5465 156.169 40.3687C156.071 40.1908 155.938 40.0735 155.768 40.0169C155.598 39.9522 155.408 39.9199 155.198 39.9199C154.996 39.9199 154.778 39.9482 154.543 40.0048C154.317 40.0614 154.135 40.1786 153.997 40.3565C154.151 40.3889 154.285 40.4697 154.398 40.5991C154.511 40.7285 154.568 40.8942 154.568 41.0964C154.568 41.2985 154.503 41.4603 154.373 41.5815C154.244 41.6948 154.078 41.7514 153.876 41.7514C153.642 41.7514 153.468 41.6786 153.355 41.533C153.25 41.3794 153.197 41.2096 153.197 41.0236C153.197 40.8134 153.25 40.6436 153.355 40.5142C153.46 40.3848 153.593 40.2635 153.755 40.1503C153.941 40.021 154.179 39.9118 154.47 39.8229C154.77 39.7258 155.105 39.6773 155.477 39.6773C155.809 39.6773 156.092 39.7177 156.326 39.7986C156.561 39.8714 156.755 39.9805 156.908 40.1261C157.119 40.3201 157.256 40.5587 157.321 40.8417C157.385 41.1166 157.418 41.4481 157.418 41.8363V45.2081C157.418 45.4102 157.446 45.5558 157.503 45.6447C157.567 45.7337 157.664 45.7782 157.794 45.7782C157.883 45.7782 157.968 45.7579 158.049 45.7175C158.129 45.6771 158.226 45.6124 158.34 45.5234L158.473 45.7296C158.303 45.859 158.142 45.9682 157.988 46.0571C157.834 46.138 157.628 46.1784 157.369 46.1784C157.135 46.1784 156.941 46.138 156.787 46.0571C156.633 45.9763 156.516 45.859 156.435 45.7054C156.363 45.5437 156.326 45.3415 156.326 45.0989C156.108 45.4628 155.845 45.7337 155.538 45.9116C155.239 46.0895 154.899 46.1784 154.519 46.1784ZM154.956 45.6933C155.222 45.6933 155.469 45.6164 155.696 45.4628C155.93 45.3092 156.14 45.0787 156.326 44.7715V42.3942C156.229 42.5316 156.088 42.6489 155.902 42.7459C155.716 42.8349 155.514 42.9279 155.295 43.0249C155.077 43.1138 154.867 43.223 154.665 43.3524C154.47 43.4737 154.309 43.6354 154.179 43.8375C154.05 44.0397 153.985 44.3025 153.985 44.6259C153.985 44.9493 154.07 45.2081 154.24 45.4022C154.418 45.5962 154.656 45.6933 154.956 45.6933ZM164.615 39.8592C164.583 40.1423 164.558 40.4131 164.542 40.6719C164.534 40.9306 164.53 41.1287 164.53 41.2662C164.53 41.4117 164.534 41.5532 164.542 41.6907C164.55 41.8201 164.558 41.9292 164.566 42.0182H164.287C164.247 41.4603 164.162 41.0438 164.033 40.7689C163.903 40.494 163.725 40.3161 163.499 40.2352C163.273 40.1463 162.994 40.1018 162.662 40.1018H162.189V44.8442C162.189 45.2404 162.302 45.5073 162.529 45.6447C162.763 45.7741 163.079 45.8388 163.475 45.8388V46.0935C163.289 46.0854 163.03 46.0773 162.698 46.0692C162.375 46.0531 162.023 46.045 161.643 46.045C161.271 46.045 160.92 46.0531 160.588 46.0692C160.257 46.0773 159.998 46.0854 159.812 46.0935V45.8388C160.216 45.8388 160.531 45.7741 160.758 45.6447C160.984 45.5073 161.097 45.2404 161.097 44.8442V40.1018H160.503C160.172 40.1018 159.901 40.1463 159.691 40.2352C159.488 40.3242 159.331 40.5061 159.217 40.781C159.112 41.056 159.04 41.4724 158.999 42.0303H158.72C158.736 41.9414 158.744 41.8322 158.744 41.7028C158.753 41.5654 158.757 41.4239 158.757 41.2783C158.757 41.1409 158.749 40.9428 158.732 40.684C158.724 40.4253 158.704 40.1544 158.672 39.8714H159.836C160.111 39.8714 160.402 39.8754 160.709 39.8835C161.025 39.8916 161.332 39.8956 161.631 39.8956C161.938 39.8956 162.25 39.8916 162.565 39.8835C162.88 39.8673 163.176 39.8592 163.45 39.8592H164.615ZM166.871 46.1784C166.54 46.1784 166.253 46.1178 166.01 45.9965C165.768 45.8671 165.582 45.6892 165.452 45.4628C165.331 45.2364 165.27 44.9736 165.27 44.6744C165.27 44.3186 165.351 44.0275 165.513 43.8011C165.683 43.5747 165.897 43.3928 166.156 43.2553C166.415 43.1179 166.685 43.0047 166.968 42.9157C167.26 42.8187 167.534 42.7298 167.793 42.6489C168.052 42.5599 168.262 42.4589 168.424 42.3457C168.594 42.2325 168.679 42.0829 168.679 41.8969V41.1449C168.679 40.8053 168.626 40.5465 168.521 40.3687C168.424 40.1908 168.29 40.0735 168.121 40.0169C167.951 39.9522 167.761 39.9199 167.551 39.9199C167.348 39.9199 167.13 39.9482 166.896 40.0048C166.669 40.0614 166.487 40.1786 166.35 40.3565C166.503 40.3889 166.637 40.4697 166.75 40.5991C166.863 40.7285 166.92 40.8942 166.92 41.0964C166.92 41.2985 166.855 41.4603 166.726 41.5815C166.596 41.6948 166.431 41.7514 166.229 41.7514C165.994 41.7514 165.82 41.6786 165.707 41.533C165.602 41.3794 165.549 41.2096 165.549 41.0236C165.549 40.8134 165.602 40.6436 165.707 40.5142C165.812 40.3848 165.946 40.2635 166.107 40.1503C166.293 40.021 166.532 39.9118 166.823 39.8229C167.122 39.7258 167.458 39.6773 167.83 39.6773C168.161 39.6773 168.444 39.7177 168.679 39.7986C168.913 39.8714 169.107 39.9805 169.261 40.1261C169.471 40.3201 169.608 40.5587 169.673 40.8417C169.738 41.1166 169.77 41.4481 169.77 41.8363V45.2081C169.77 45.4102 169.798 45.5558 169.855 45.6447C169.92 45.7337 170.017 45.7782 170.146 45.7782C170.235 45.7782 170.32 45.7579 170.401 45.7175C170.482 45.6771 170.579 45.6124 170.692 45.5234L170.825 45.7296C170.656 45.859 170.494 45.9682 170.34 46.0571C170.187 46.138 169.98 46.1784 169.722 46.1784C169.487 46.1784 169.293 46.138 169.139 46.0571C168.986 45.9763 168.869 45.859 168.788 45.7054C168.715 45.5437 168.679 45.3415 168.679 45.0989C168.46 45.4628 168.197 45.7337 167.89 45.9116C167.591 46.0895 167.251 46.1784 166.871 46.1784ZM167.308 45.6933C167.575 45.6933 167.821 45.6164 168.048 45.4628C168.282 45.3092 168.493 45.0787 168.679 44.7715V42.3942C168.582 42.5316 168.44 42.6489 168.254 42.7459C168.068 42.8349 167.866 42.9279 167.648 43.0249C167.429 43.1138 167.219 43.223 167.017 43.3524C166.823 43.4737 166.661 43.6354 166.532 43.8375C166.402 44.0397 166.338 44.3025 166.338 44.6259C166.338 44.9493 166.423 45.2081 166.592 45.4022C166.77 45.5962 167.009 45.6933 167.308 45.6933ZM177.113 39.8592V40.114C176.781 40.114 176.543 40.1746 176.397 40.2959C176.26 40.4172 176.191 40.6476 176.191 40.9872V44.9655C176.191 45.3051 176.26 45.5356 176.397 45.6569C176.543 45.7782 176.781 45.8388 177.113 45.8388V46.0935C176.975 46.0854 176.773 46.0773 176.506 46.0692C176.24 46.0531 175.948 46.045 175.633 46.045C175.318 46.045 174.998 46.0531 174.675 46.0692C174.36 46.0773 174.113 46.0854 173.935 46.0935V45.8388C174.299 45.8388 174.582 45.7822 174.784 45.669C174.994 45.5477 175.099 45.3132 175.099 44.9655V40.9872C175.099 40.6476 175.039 40.4172 174.917 40.2959C174.796 40.1746 174.59 40.114 174.299 40.114H174.19C173.988 40.114 173.854 40.1746 173.789 40.2959C173.725 40.4172 173.676 40.6476 173.644 40.9872C173.579 41.7392 173.498 42.4589 173.401 43.1462C173.312 43.8254 173.159 44.4399 172.94 44.9898C172.86 45.1838 172.759 45.3819 172.637 45.5841C172.516 45.7782 172.366 45.9399 172.188 46.0692C172.019 46.1986 171.812 46.2633 171.57 46.2633C171.424 46.2633 171.287 46.235 171.157 46.1784C171.028 46.1299 170.923 46.0531 170.842 45.948C170.761 45.8348 170.721 45.6973 170.721 45.5356C170.721 45.3334 170.782 45.1758 170.903 45.0625C171.024 44.9493 171.182 44.8927 171.376 44.8927C171.546 44.8927 171.687 44.9413 171.8 45.0383C171.922 45.1353 171.982 45.2809 171.982 45.4749C171.982 45.6043 171.946 45.7216 171.873 45.8267C171.8 45.9237 171.683 46.0046 171.521 46.0692C171.538 46.0773 171.558 46.0814 171.582 46.0814C171.614 46.0814 171.635 46.0814 171.643 46.0814C171.845 46.0814 172.015 46.0167 172.152 45.8873C172.298 45.7499 172.419 45.5922 172.516 45.4143C172.621 45.2283 172.698 45.0666 172.746 44.9291C172.876 44.5895 172.985 44.2095 173.074 43.789C173.163 43.3685 173.236 42.9198 173.292 42.4427C173.349 41.9656 173.393 41.4805 173.426 40.9872C173.45 40.6476 173.377 40.4172 173.207 40.2959C173.046 40.1746 172.799 40.114 172.467 40.114V39.8592C172.532 39.8673 172.633 39.8795 172.771 39.8956C172.916 39.9037 173.09 39.9078 173.292 39.9078C173.454 39.9078 173.62 39.9078 173.789 39.9078C173.967 39.9078 174.145 39.9078 174.323 39.9078C174.477 39.9078 174.618 39.9078 174.748 39.9078C174.877 39.9078 175.014 39.9078 175.16 39.9078C175.306 39.9078 175.467 39.9078 175.645 39.9078C175.831 39.9078 176.017 39.9037 176.203 39.8956C176.397 39.8875 176.575 39.8795 176.737 39.8714C176.899 39.8633 177.024 39.8592 177.113 39.8592ZM180.531 39.8592V40.114C180.199 40.114 179.961 40.1746 179.815 40.2959C179.678 40.4172 179.609 40.6476 179.609 40.9872V44.9655C179.609 45.289 179.674 45.5154 179.803 45.6447C179.941 45.7741 180.171 45.8388 180.494 45.8388C180.931 45.8388 181.263 45.766 181.489 45.6205C181.724 45.4749 181.885 45.2809 181.974 45.0383C182.063 44.7957 182.108 44.537 182.108 44.262C182.108 43.7041 181.95 43.2998 181.635 43.0491C181.327 42.7904 180.814 42.661 180.094 42.661C179.892 42.661 179.69 42.661 179.488 42.661C179.286 42.661 179.083 42.661 178.881 42.661L178.857 42.4548C179.189 42.4548 179.516 42.4548 179.839 42.4548C180.163 42.4548 180.486 42.4548 180.81 42.4548C181.691 42.4548 182.318 42.6206 182.69 42.9521C183.062 43.2756 183.248 43.6879 183.248 44.1893C183.248 44.4884 183.163 44.7836 182.993 45.0747C182.831 45.3658 182.556 45.6083 182.168 45.8024C181.788 45.9965 181.275 46.0935 180.628 46.0935C180.401 46.0935 180.151 46.0854 179.876 46.0692C179.601 46.0531 179.318 46.045 179.027 46.045C178.776 46.045 178.509 46.0531 178.226 46.0692C177.943 46.0773 177.733 46.0854 177.596 46.0935V45.8388C177.927 45.8388 178.162 45.7782 178.299 45.6569C178.445 45.5356 178.517 45.3051 178.517 44.9655V40.9872C178.517 40.6476 178.457 40.4172 178.336 40.2959C178.214 40.1746 178.008 40.114 177.717 40.114V39.8592C177.846 39.8673 178.036 39.8795 178.287 39.8956C178.546 39.9037 178.809 39.9078 179.075 39.9078C179.342 39.9078 179.617 39.9037 179.9 39.8956C180.183 39.8795 180.393 39.8673 180.531 39.8592ZM189.577 39.8592V40.114C189.245 40.114 189.007 40.1746 188.861 40.2959C188.724 40.4172 188.655 40.6476 188.655 40.9872V44.9655C188.655 45.3051 188.716 45.5356 188.837 45.6569C188.958 45.7782 189.164 45.8388 189.456 45.8388V46.0935C189.326 46.0854 189.132 46.0773 188.873 46.0692C188.623 46.0531 188.364 46.045 188.097 46.045C187.83 46.045 187.555 46.0531 187.272 46.0692C186.989 46.0773 186.779 46.0854 186.642 46.0935V45.8388C186.973 45.8388 187.208 45.7782 187.345 45.6569C187.491 45.5356 187.563 45.3051 187.563 44.9655V40.9872C187.563 40.6638 187.499 40.4374 187.369 40.308C187.24 40.1786 187.014 40.114 186.69 40.114C186.326 40.114 186.047 40.1827 185.853 40.3201C185.667 40.4495 185.542 40.6193 185.477 40.8296C185.413 41.0398 185.38 41.2662 185.38 41.5088C185.38 42.0344 185.506 42.4306 185.756 42.6974C186.007 42.9642 186.448 43.1057 187.078 43.1219C187.28 43.13 187.483 43.1341 187.685 43.1341C187.887 43.1341 188.089 43.1341 188.291 43.1341L188.315 43.3645C187.887 43.3645 187.519 43.3685 187.212 43.3766C186.912 43.3847 186.682 43.3888 186.52 43.3888C186.035 43.3888 185.643 43.3402 185.344 43.2432C185.045 43.1381 184.814 43.0006 184.652 42.8308C184.499 42.661 184.394 42.475 184.337 42.2729C184.289 42.0707 184.264 41.8686 184.264 41.6665C184.264 41.3188 184.329 41.0115 184.458 40.7447C184.596 40.4697 184.83 40.2555 185.162 40.1018C185.493 39.9401 185.954 39.8592 186.545 39.8592C186.771 39.8592 187.022 39.8673 187.297 39.8835C187.571 39.8997 187.855 39.9078 188.146 39.9078C188.404 39.9078 188.671 39.9037 188.946 39.8956C189.229 39.8795 189.439 39.8673 189.577 39.8592ZM187.151 43.2432V43.3766C186.949 43.3847 186.739 43.3968 186.52 43.413C186.302 43.4211 186.112 43.4979 185.95 43.6435C185.821 43.7648 185.724 43.9224 185.659 44.1165C185.594 44.3106 185.538 44.5208 185.489 44.7472C185.449 44.9736 185.384 45.2 185.295 45.4264C185.206 45.669 185.077 45.8469 184.907 45.9601C184.745 46.0733 184.458 46.1299 184.046 46.1299C183.941 46.1299 183.832 46.1258 183.719 46.1178C183.605 46.1097 183.48 46.1016 183.343 46.0935V45.8388C183.577 45.8145 183.751 45.7822 183.864 45.7418C183.985 45.6933 184.074 45.6245 184.131 45.5356C184.188 45.4385 184.244 45.3132 184.301 45.1596C184.43 44.8038 184.535 44.5289 184.616 44.3348C184.697 44.1408 184.782 43.9912 184.871 43.886C184.96 43.7728 185.077 43.6758 185.223 43.5949C185.32 43.5383 185.429 43.4898 185.55 43.4494C185.679 43.4009 185.821 43.3605 185.975 43.3281C186.136 43.2958 186.314 43.2715 186.508 43.2553C186.71 43.2392 186.925 43.2351 187.151 43.2432Z" fill="#1D322B"/>
<path opacity="0.6" d="M120.371 60.3533H117.031V59.8368L118.354 58.4996C118.609 58.2449 118.823 58.0185 118.998 57.8203C119.172 57.6222 119.305 57.4289 119.394 57.2402C119.484 57.0468 119.529 56.8369 119.529 56.6105C119.529 56.3322 119.446 56.1223 119.281 55.9808C119.116 55.8346 118.901 55.7615 118.637 55.7615C118.392 55.7615 118.175 55.8039 117.986 55.8888C117.802 55.9737 117.614 56.0916 117.42 56.2426L117.088 55.8251C117.22 55.7119 117.364 55.6105 117.519 55.5209C117.68 55.4313 117.852 55.3605 118.036 55.3087C118.224 55.2568 118.425 55.2308 118.637 55.2308C118.953 55.2308 119.224 55.2851 119.451 55.3936C119.677 55.502 119.852 55.6577 119.974 55.8605C120.102 56.0586 120.165 56.2968 120.165 56.5751C120.165 56.7732 120.135 56.9619 120.073 57.1411C120.012 57.3157 119.925 57.4878 119.812 57.6576C119.698 57.8274 119.562 57.9996 119.401 58.1741C119.241 58.3486 119.064 58.5302 118.871 58.7189L117.816 59.759V59.7873H120.371V60.3533ZM123.252 60.3533H122.644V56.8227C122.644 56.686 122.644 56.5704 122.644 56.4761C122.648 56.3817 122.653 56.2945 122.658 56.2143C122.662 56.1294 122.667 56.0421 122.672 55.9525C122.596 56.028 122.528 56.0916 122.467 56.1435C122.405 56.1954 122.328 56.2614 122.233 56.3416L121.695 56.7803L121.37 56.3629L122.736 55.3016H123.252V60.3533ZM128.75 60.424C128.415 60.424 128.115 60.3556 127.851 60.2188C127.592 60.0821 127.386 59.8698 127.236 59.5821C127.089 59.2943 127.016 58.9264 127.016 58.4783C127.016 58.0114 127.094 57.6317 127.25 57.3392C127.405 57.0468 127.615 56.8322 127.879 56.6954C128.148 56.5586 128.452 56.4902 128.792 56.4902C128.985 56.4902 129.172 56.5114 129.351 56.5539C129.53 56.5916 129.676 56.6388 129.79 56.6954L129.599 57.2119C129.485 57.1694 129.353 57.1293 129.202 57.0916C129.052 57.0539 128.91 57.035 128.778 57.035C128.523 57.035 128.313 57.0892 128.148 57.1977C127.983 57.3062 127.861 57.4666 127.78 57.6788C127.7 57.8911 127.66 58.1552 127.66 58.4713C127.66 58.7731 127.7 59.0302 127.78 59.2425C127.861 59.4547 127.981 59.6151 128.141 59.7236C128.302 59.8321 128.502 59.8863 128.743 59.8863C128.95 59.8863 129.132 59.8651 129.287 59.8226C129.448 59.7802 129.594 59.7283 129.726 59.667V60.2188C129.599 60.2849 129.457 60.3344 129.302 60.3674C129.151 60.4052 128.967 60.424 128.75 60.424ZM132.092 56.4902C132.418 56.4902 132.696 56.561 132.927 56.7025C133.163 56.844 133.342 57.0444 133.465 57.3039C133.592 57.5586 133.656 57.8581 133.656 58.2024V58.5774H131.059C131.069 59.0066 131.177 59.3344 131.385 59.5608C131.597 59.7825 131.892 59.8934 132.269 59.8934C132.51 59.8934 132.722 59.8722 132.906 59.8297C133.095 59.7825 133.288 59.7165 133.486 59.6316V60.1764C133.293 60.2613 133.102 60.3226 132.913 60.3603C132.725 60.4028 132.5 60.424 132.241 60.424C131.883 60.424 131.564 60.3509 131.286 60.2047C131.012 60.0585 130.798 59.8415 130.642 59.5538C130.491 59.2613 130.416 58.9052 130.416 58.4854C130.416 58.0703 130.484 57.7142 130.621 57.4171C130.762 57.1199 130.958 56.8911 131.208 56.7308C131.463 56.5704 131.758 56.4902 132.092 56.4902ZM132.085 56.9996C131.788 56.9996 131.552 57.0963 131.378 57.2897C131.208 57.4784 131.107 57.7425 131.074 58.0821H133.005C133.005 57.8652 132.972 57.6765 132.906 57.5161C132.84 57.3557 132.739 57.2307 132.602 57.1411C132.47 57.0468 132.298 56.9996 132.085 56.9996ZM135.244 56.561V58.1387H137.303V56.561H137.926V60.3533H137.303V58.6623H135.244V60.3533H134.622V56.561H135.244ZM141.744 57.0845H140.506V60.3533H139.891V57.0845H138.667V56.561H141.744V57.0845ZM142.725 60.3533H142.003L143.086 58.7614C142.939 58.7236 142.798 58.6647 142.661 58.5845C142.524 58.4996 142.413 58.384 142.329 58.2378C142.244 58.0868 142.201 57.9005 142.201 57.6788C142.201 57.3157 142.324 57.0397 142.569 56.851C142.814 56.6577 143.14 56.561 143.545 56.561H145.244V60.3533H144.621V58.8463H143.701L142.725 60.3533ZM142.803 57.6859C142.803 57.9029 142.883 58.0656 143.043 58.1741C143.208 58.2779 143.437 58.3298 143.729 58.3298H144.621V57.0775H143.609C143.321 57.0775 143.114 57.1341 142.987 57.2473C142.864 57.3605 142.803 57.5067 142.803 57.6859ZM146.245 58.0751C146.245 57.5232 146.3 57.0539 146.408 56.6671C146.521 56.2756 146.693 55.9643 146.925 55.7332C147.16 55.4973 147.462 55.3393 147.83 55.2591C148.137 55.1931 148.436 55.1341 148.729 55.0822C149.021 55.0304 149.295 54.9832 149.549 54.9407L149.656 55.4855C149.533 55.5044 149.396 55.528 149.245 55.5563C149.094 55.5799 148.941 55.6058 148.785 55.6341C148.63 55.6577 148.479 55.6836 148.333 55.7119C148.191 55.7355 148.066 55.7591 147.958 55.7827C147.802 55.8157 147.663 55.8723 147.54 55.9525C147.417 56.028 147.311 56.1317 147.222 56.2638C147.137 56.3959 147.068 56.5586 147.017 56.752C146.965 56.9454 146.934 57.1741 146.925 57.4383H146.967C147.033 57.3487 147.123 57.2567 147.236 57.1624C147.354 57.068 147.493 56.9878 147.653 56.9218C147.818 56.8558 148.005 56.8227 148.212 56.8227C148.542 56.8227 148.816 56.8959 149.033 57.0421C149.255 57.1836 149.42 57.3817 149.528 57.6364C149.641 57.8911 149.698 58.1883 149.698 58.5279C149.698 58.9477 149.625 59.2991 149.479 59.5821C149.332 59.8651 149.13 60.0773 148.87 60.2188C148.611 60.3556 148.309 60.424 147.965 60.424C147.705 60.424 147.469 60.3745 147.257 60.2754C147.045 60.1717 146.863 60.0207 146.712 59.8226C146.561 59.6245 146.446 59.3793 146.366 59.0868C146.285 58.7944 146.245 58.4571 146.245 58.0751ZM148.014 59.9075C148.222 59.9075 148.401 59.8651 148.552 59.7802C148.708 59.6953 148.828 59.5561 148.913 59.3627C148.998 59.1694 149.04 58.9123 149.04 58.5915C149.04 58.2048 148.967 57.9005 148.821 57.6788C148.679 57.4524 148.443 57.3392 148.113 57.3392C147.906 57.3392 147.717 57.3864 147.547 57.4807C147.377 57.5704 147.236 57.6741 147.123 57.792C147.009 57.91 146.929 58.009 146.882 58.0892C146.882 58.3203 146.899 58.5444 146.932 58.7614C146.965 58.9783 147.021 59.1741 147.101 59.3486C147.186 59.5184 147.302 59.6552 147.448 59.759C147.599 59.858 147.788 59.9075 148.014 59.9075ZM152.483 56.4902C152.95 56.4902 153.325 56.6529 153.608 56.9784C153.896 57.3039 154.04 57.7944 154.04 58.45C154.04 58.8793 153.974 59.2425 153.842 59.5396C153.714 59.8321 153.533 60.0538 153.297 60.2047C153.066 60.3509 152.792 60.424 152.476 60.424C152.283 60.424 152.11 60.3981 151.96 60.3462C151.809 60.2943 151.679 60.2283 151.57 60.1481C151.467 60.0632 151.377 59.9712 151.302 59.8722H151.259C151.268 59.9523 151.278 60.0538 151.287 60.1764C151.297 60.299 151.302 60.4052 151.302 60.4948V62.0513H150.679V56.561H151.188L151.273 57.0775H151.302C151.377 56.969 151.467 56.8699 151.57 56.7803C151.679 56.6907 151.806 56.6199 151.952 56.568C152.103 56.5162 152.28 56.4902 152.483 56.4902ZM152.37 57.0138C152.115 57.0138 151.91 57.0633 151.754 57.1624C151.599 57.2567 151.485 57.4006 151.415 57.5939C151.344 57.7873 151.306 58.0326 151.302 58.3298V58.45C151.302 58.7614 151.335 59.0255 151.401 59.2425C151.467 59.4594 151.577 59.6245 151.733 59.7377C151.893 59.8509 152.11 59.9075 152.384 59.9075C152.615 59.9075 152.804 59.8439 152.95 59.7165C153.101 59.5891 153.212 59.417 153.283 59.2C153.358 58.9783 153.396 58.726 153.396 58.443C153.396 58.009 153.311 57.6623 153.141 57.4029C152.976 57.1435 152.719 57.0138 152.37 57.0138ZM155.265 60.3533H154.544L155.626 58.7614C155.48 58.7236 155.338 58.6647 155.202 58.5845C155.065 58.4996 154.954 58.384 154.869 58.2378C154.784 58.0868 154.742 57.9005 154.742 57.6788C154.742 57.3157 154.864 57.0397 155.11 56.851C155.355 56.6577 155.68 56.561 156.086 56.561H157.784V60.3533H157.161V58.8463H156.242L155.265 60.3533ZM155.343 57.6859C155.343 57.9029 155.423 58.0656 155.584 58.1741C155.749 58.2779 155.978 58.3298 156.27 58.3298H157.161V57.0775H156.15C155.862 57.0775 155.654 57.1341 155.527 57.2473C155.404 57.3605 155.343 57.5067 155.343 57.6859ZM163.9 60.3533H160.56V59.8368L161.883 58.4996C162.138 58.2449 162.352 58.0185 162.527 57.8203C162.702 57.6222 162.834 57.4289 162.923 57.2402C163.013 57.0468 163.058 56.8369 163.058 56.6105C163.058 56.3322 162.975 56.1223 162.81 55.9808C162.645 55.8346 162.43 55.7615 162.166 55.7615C161.921 55.7615 161.704 55.8039 161.515 55.8888C161.331 55.9737 161.143 56.0916 160.949 56.2426L160.617 55.8251C160.749 55.7119 160.893 55.6105 161.048 55.5209C161.209 55.4313 161.381 55.3605 161.565 55.3087C161.753 55.2568 161.954 55.2308 162.166 55.2308C162.482 55.2308 162.753 55.2851 162.98 55.3936C163.206 55.502 163.381 55.6577 163.503 55.8605C163.631 56.0586 163.694 56.2968 163.694 56.5751C163.694 56.7732 163.664 56.9619 163.602 57.1411C163.541 57.3157 163.454 57.4878 163.341 57.6576C163.227 57.8274 163.091 57.9996 162.93 58.1741C162.77 58.3486 162.593 58.5302 162.4 58.7189L161.345 59.759V59.7873H163.9V60.3533ZM167.97 57.8203C167.97 58.2307 167.939 58.5963 167.878 58.917C167.816 59.2377 167.717 59.5113 167.581 59.7377C167.448 59.9594 167.274 60.1292 167.057 60.2471C166.845 60.3651 166.588 60.424 166.286 60.424C165.908 60.424 165.595 60.3203 165.345 60.1127C165.1 59.9052 164.916 59.608 164.793 59.2212C164.675 58.8297 164.616 58.3628 164.616 57.8203C164.616 57.2732 164.67 56.8062 164.779 56.4195C164.892 56.0327 165.071 55.7379 165.316 55.5351C165.562 55.3275 165.885 55.2238 166.286 55.2238C166.663 55.2238 166.977 55.3275 167.227 55.5351C167.477 55.7379 167.663 56.0327 167.786 56.4195C167.908 56.8062 167.97 57.2732 167.97 57.8203ZM165.239 57.8203C165.239 58.2826 165.272 58.667 165.338 58.9736C165.408 59.2802 165.519 59.5113 165.67 59.667C165.826 59.8179 166.031 59.8934 166.286 59.8934C166.54 59.8934 166.743 59.8179 166.894 59.667C167.05 59.516 167.163 59.2873 167.234 58.9807C167.305 58.6694 167.34 58.2826 167.34 57.8203C167.34 57.3581 167.305 56.976 167.234 56.6742C167.163 56.3676 167.05 56.1388 166.894 55.9879C166.743 55.8322 166.54 55.7544 166.286 55.7544C166.031 55.7544 165.826 55.8322 165.67 55.9879C165.519 56.1388 165.408 56.3676 165.338 56.6742C165.272 56.976 165.239 57.3581 165.239 57.8203ZM171.997 60.3533H168.658V59.8368L169.981 58.4996C170.236 58.2449 170.45 58.0185 170.625 57.8203C170.799 57.6222 170.931 57.4289 171.021 57.2402C171.111 57.0468 171.155 56.8369 171.155 56.6105C171.155 56.3322 171.073 56.1223 170.908 55.9808C170.743 55.8346 170.528 55.7615 170.264 55.7615C170.019 55.7615 169.802 55.8039 169.613 55.8888C169.429 55.9737 169.24 56.0916 169.047 56.2426L168.714 55.8251C168.847 55.7119 168.99 55.6105 169.146 55.5209C169.306 55.4313 169.479 55.3605 169.663 55.3087C169.851 55.2568 170.052 55.2308 170.264 55.2308C170.58 55.2308 170.851 55.2851 171.078 55.3936C171.304 55.502 171.479 55.6577 171.601 55.8605C171.728 56.0586 171.792 56.2968 171.792 56.5751C171.792 56.7732 171.762 56.9619 171.7 57.1411C171.639 57.3157 171.552 57.4878 171.438 57.6576C171.325 57.8274 171.188 57.9996 171.028 58.1741C170.868 58.3486 170.691 58.5302 170.497 58.7189L169.443 59.759V59.7873H171.997V60.3533ZM175.855 56.4831C175.855 56.7095 175.813 56.9053 175.728 57.0704C175.643 57.2355 175.52 57.3699 175.36 57.4737C175.204 57.5774 175.02 57.6505 174.808 57.693V57.7213C175.214 57.7685 175.516 57.8958 175.714 58.1034C175.912 58.3109 176.011 58.5821 176.011 58.917C176.011 59.2094 175.942 59.4712 175.806 59.7024C175.669 59.9288 175.457 60.1056 175.169 60.233C174.886 60.3603 174.52 60.424 174.072 60.424C173.808 60.424 173.563 60.4028 173.336 60.3603C173.11 60.3226 172.893 60.2519 172.686 60.1481V59.5679C172.898 59.6717 173.127 59.7542 173.372 59.8156C173.617 59.8722 173.853 59.9005 174.079 59.9005C174.532 59.9005 174.858 59.8132 175.056 59.6387C175.259 59.4594 175.36 59.2142 175.36 58.9029C175.36 58.6906 175.303 58.5208 175.19 58.3934C175.082 58.2614 174.921 58.1647 174.709 58.1034C174.497 58.042 174.242 58.0114 173.945 58.0114H173.457V57.4807H173.952C174.23 57.4807 174.461 57.4406 174.645 57.3605C174.834 57.2803 174.976 57.1694 175.07 57.0279C175.169 56.8817 175.218 56.7143 175.218 56.5256C175.218 56.2803 175.136 56.0916 174.971 55.9596C174.806 55.8228 174.582 55.7544 174.299 55.7544C174.119 55.7544 173.957 55.7733 173.81 55.811C173.664 55.844 173.527 55.8935 173.4 55.9596C173.277 56.0209 173.152 56.094 173.025 56.1789L172.714 55.7544C172.836 55.6601 172.976 55.5728 173.131 55.4926C173.292 55.4124 173.469 55.3487 173.662 55.3016C173.855 55.2544 174.065 55.2308 174.292 55.2308C174.82 55.2308 175.211 55.3487 175.466 55.5846C175.726 55.8204 175.855 56.1199 175.855 56.4831Z" fill="#1D322B"/>
<path d="M142.768 23.112L142.585 22.9294C141.599 21.9495 140.007 21.9495 139.022 22.9294L138.838 23.112V23.112C141.012 25.2738 144.524 25.2738 146.699 23.112L148.313 21.5068C148.507 21.3146 148.507 21.0018 148.313 20.8096L146.418 18.9253L144.523 20.8096C144.329 21.0018 144.329 21.3146 144.523 21.5068L146.137 23.112C148.312 25.2738 151.824 25.2738 153.998 23.112V23.112L153.814 22.9294C152.829 21.9495 151.237 21.9495 150.251 22.9294L150.068 23.112" stroke="#CCB8A8" stroke-width="0.758057"/>
<path opacity="0.4" d="M266.523 143.77L26.9941 143.77" stroke="#1D322B" stroke-opacity="0.2"/>
<g filter="url(#filter0_d_227_551)">
<rect x="5" y="96.8506" width="36.3842" height="36.4244" rx="4.04297" fill="white"/>
<rect x="5.5" y="97.3506" width="35.3842" height="35.4244" rx="3.54297" stroke="#1D322B"/>
</g>
<rect x="15.6172" y="104.948" width="15.1708" height="20.2475" rx="1.52149" fill="#F6F7F7" stroke="#1D322B"/>
<rect x="20.1758" y="104.448" width="6.06446" height="1.51803" rx="0.759013" fill="#1D322B"/>
<rect x="21.6797" y="122.655" width="3.03223" height="1.01202" rx="0.506009" fill="#DBDEDD"/>
<g filter="url(#filter1_d_227_551)">
<rect x="248.615" y="38.1584" width="36.3842" height="36.4244" rx="4.04297" fill="white"/>
<rect x="249.115" y="38.6584" width="35.3842" height="35.4244" rx="3.54297" stroke="#1D322B"/>
</g>
<rect x="261.828" y="46.2559" width="10.1182" height="20.2475" rx="1.52149" fill="#F6F7F7" stroke="#1D322B"/>
<rect x="263.926" y="45.7559" width="6.06446" height="1.51803" rx="0.759013" fill="#1D322B"/>
<rect x="265.293" y="63.9624" width="3.03223" height="1.01202" rx="0.506009" fill="#DBDEDD"/>
<path opacity="0.2" d="M91.8139 96.3383C91.8139 104.861 84.9126 111.769 76.4012 111.769C67.8898 111.769 60.9885 104.861 60.9885 96.3383C60.9885 87.8154 67.8898 80.9077 76.4012 80.9077C84.9126 80.9077 91.8139 87.8154 91.8139 96.3383Z" stroke="#1D322B" stroke-opacity="0.4" stroke-width="1.51611"/>
<path d="M88.3494 106.086C86.7064 108.104 84.5799 109.674 82.1679 110.648C79.756 111.622 77.137 111.97 74.555 111.658C71.9729 111.346 69.5116 110.385 67.4003 108.864C65.289 107.343 63.5963 105.313 62.48 102.96C61.3638 100.608 60.8602 98.0117 61.0163 95.4123C61.1724 92.8129 61.983 90.2953 63.3727 88.0941C64.7624 85.8929 66.6858 84.0796 68.9639 82.8231C71.2419 81.5666 73.8004 80.9077 76.4012 80.9077" stroke="#CCB8A8" stroke-width="1.51611"/>
<path d="M73.4939 98.6231H72.4428V100.26H71.5836V98.6231H68.1269V97.865L71.523 93.0034H72.4428V97.8246H73.4939V98.6231ZM71.5836 95.5504C71.5836 95.3752 71.5836 95.2169 71.5836 95.0754C71.5904 94.9271 71.5971 94.789 71.6038 94.661C71.6106 94.533 71.6139 94.4117 71.6139 94.2971C71.6207 94.1758 71.6274 94.0613 71.6342 93.9535H71.5937C71.5398 94.0815 71.4724 94.2196 71.3916 94.3679C71.3107 94.5161 71.2332 94.6408 71.1591 94.7418L68.9961 97.8246H71.5836V95.5504ZM74.1536 97.1777C74.1536 96.76 74.1805 96.3489 74.2345 95.9446C74.2951 95.5403 74.3962 95.1596 74.5377 94.8025C74.6792 94.4386 74.8746 94.1186 75.1239 93.8423C75.3732 93.5593 75.6866 93.3403 76.0639 93.1853C76.448 93.0236 76.9129 92.9427 77.4587 92.9427C77.6002 92.9427 77.7552 92.9495 77.9237 92.9629C78.0989 92.9764 78.2404 93 78.3482 93.0337V93.7917C78.2269 93.7513 78.0888 93.721 77.9338 93.7008C77.7855 93.6806 77.6339 93.6705 77.4789 93.6705C77.014 93.6705 76.6265 93.7479 76.3166 93.9029C76.0066 94.0579 75.7607 94.2702 75.5787 94.5397C75.4035 94.8092 75.2755 95.1192 75.1947 95.4696C75.1138 95.82 75.0633 96.1939 75.043 96.5915H75.1037C75.2048 96.4298 75.3328 96.2849 75.4878 96.1569C75.6428 96.0289 75.8281 95.9278 76.0437 95.8537C76.266 95.7795 76.5221 95.7425 76.8118 95.7425C77.2296 95.7425 77.5935 95.8301 77.9035 96.0053C78.2202 96.1737 78.4661 96.423 78.6413 96.7532C78.8165 97.0767 78.9041 97.4708 78.9041 97.9358C78.9041 98.4344 78.8098 98.8657 78.6211 99.2295C78.4324 99.5934 78.1662 99.873 77.8226 100.068C77.4857 100.264 77.0814 100.362 76.6097 100.362C76.266 100.362 75.946 100.298 75.6495 100.17C75.353 100.042 75.0902 99.8461 74.8611 99.5833C74.6388 99.3205 74.4636 98.9903 74.3355 98.5928C74.2142 98.1885 74.1536 97.7168 74.1536 97.1777ZM76.5996 99.6136C77.0241 99.6136 77.3678 99.4789 77.6305 99.2093C77.8933 98.9331 78.0247 98.5085 78.0247 97.9358C78.0247 97.4776 77.9068 97.1137 77.671 96.8442C77.4419 96.5747 77.0949 96.4399 76.6299 96.4399C76.3132 96.4399 76.0369 96.5073 75.8011 96.642C75.5653 96.7701 75.38 96.9352 75.2452 97.1373C75.1172 97.3395 75.0532 97.5483 75.0532 97.764C75.0532 97.9863 75.0835 98.2053 75.1441 98.4209C75.2115 98.6366 75.3092 98.8354 75.4372 99.0173C75.572 99.1992 75.7337 99.3441 75.9224 99.4519C76.1178 99.5597 76.3435 99.6136 76.5996 99.6136ZM82.0603 95.8334C82.5522 95.8334 82.9801 95.9177 83.3439 96.0861C83.7078 96.2546 83.9874 96.4972 84.1828 96.8139C84.385 97.1238 84.4861 97.5045 84.4861 97.956C84.4861 98.4546 84.3783 98.8859 84.1626 99.2498C83.947 99.6069 83.637 99.8832 83.2328 100.079C82.8352 100.267 82.3534 100.362 81.7874 100.362C81.4168 100.362 81.0664 100.328 80.7362 100.26C80.4128 100.193 80.1399 100.095 79.9175 99.9674V99.1285C80.1601 99.2767 80.4532 99.3946 80.7969 99.4822C81.1473 99.5631 81.4808 99.6035 81.7975 99.6035C82.1546 99.6035 82.4646 99.5496 82.7274 99.4418C82.9969 99.3272 83.2058 99.1554 83.354 98.9263C83.5023 98.6905 83.5764 98.3974 83.5764 98.047C83.5764 97.5753 83.4315 97.2148 83.1418 96.9655C82.852 96.7094 82.3938 96.5814 81.7672 96.5814C81.5785 96.5814 81.3629 96.5982 81.1203 96.6319C80.8777 96.6656 80.6823 96.6993 80.5341 96.733L80.0893 96.45L80.3622 93.0438H83.9807V93.8524H81.1203L80.9485 95.9446C81.063 95.9244 81.218 95.9008 81.4134 95.8739C81.6088 95.8469 81.8244 95.8334 82.0603 95.8334Z" fill="#1D322B"/>
<path d="M72.5658 117.831V120.76H73.0085V122.155H72.6689V121.057H70.2492V122.155H69.9157V120.76H70.14C70.322 120.505 70.4736 120.224 70.5949 119.917C70.7162 119.61 70.8091 119.28 70.8738 118.929C70.9385 118.577 70.9729 118.211 70.9769 117.831H72.5658ZM71.2923 118.116C71.2761 118.455 71.2357 118.785 71.171 119.104C71.1063 119.42 71.0194 119.717 70.9102 119.996C70.8011 120.275 70.6676 120.53 70.51 120.76H72.2323V118.116H71.2923ZM74.0257 117.831V119.232H76.0028V117.831H76.3484V121.057H76.0028V119.529H74.0257V121.057H73.6801V117.831H74.0257ZM78.636 117.77C78.915 117.77 79.1454 117.835 79.3274 117.964C79.5133 118.09 79.6528 118.263 79.7458 118.486C79.8428 118.708 79.8914 118.965 79.8914 119.256V119.486H77.5869C77.5869 119.919 77.6859 120.249 77.884 120.475C78.0862 120.701 78.3712 120.815 78.7391 120.815C78.9413 120.815 79.1171 120.798 79.2667 120.766C79.4163 120.734 79.58 120.677 79.7579 120.596V120.912C79.5962 120.984 79.4365 121.037 79.2788 121.069C79.1212 121.102 78.9372 121.118 78.727 121.118C78.4076 121.118 78.1347 121.051 77.9083 120.918C77.6859 120.784 77.5161 120.594 77.3989 120.348C77.2857 120.097 77.2291 119.806 77.2291 119.474C77.2291 119.143 77.2836 118.85 77.3928 118.595C77.502 118.34 77.6617 118.14 77.8719 117.995C78.0821 117.845 78.3368 117.77 78.636 117.77ZM78.636 118.061C78.3368 118.061 78.0963 118.16 77.9143 118.358C77.7324 118.553 77.6253 118.833 77.5929 119.201H79.5335C79.5335 118.975 79.5012 118.777 79.4365 118.607C79.3718 118.437 79.2728 118.304 79.1394 118.207C79.01 118.11 78.8422 118.061 78.636 118.061ZM83.0919 116.533C83.0798 116.723 83.0333 116.883 82.9524 117.012C82.8756 117.137 82.7644 117.23 82.6189 117.291C82.4733 117.352 82.2934 117.382 82.0792 117.382C81.8649 117.382 81.685 117.352 81.5394 117.291C81.3979 117.23 81.2908 117.137 81.218 117.012C81.1493 116.887 81.1068 116.727 81.0906 116.533H81.4181C81.4383 116.751 81.499 116.905 81.6001 116.994C81.7052 117.083 81.8669 117.127 82.0852 117.127C82.2914 117.127 82.4511 117.083 82.5643 116.994C82.6775 116.905 82.7422 116.751 82.7584 116.533H83.0919ZM81.0906 120.081C81.0906 120.121 81.0906 120.168 81.0906 120.22C81.0906 120.273 81.0886 120.327 81.0846 120.384C81.0846 120.437 81.0826 120.489 81.0785 120.542C81.0745 120.59 81.0725 120.637 81.0725 120.681L82.9585 117.831H83.383V121.057H83.0555V118.807C83.0555 118.747 83.0555 118.68 83.0555 118.607C83.0555 118.534 83.0576 118.462 83.0616 118.389C83.0656 118.316 83.0677 118.253 83.0677 118.201L81.1816 121.057H80.7632V117.831H81.0906V120.081Z" fill="#1D322B"/>
<path opacity="0.2" d="M138.021 96.3383C138.021 104.861 131.12 111.769 122.608 111.769C114.097 111.769 107.196 104.861 107.196 96.3383C107.196 87.8154 114.097 80.9077 122.608 80.9077C131.12 80.9077 138.021 87.8154 138.021 96.3383Z" stroke="#1D322B" stroke-opacity="0.4" stroke-width="1.51611"/>
<path d="M137.305 91.6894C138.284 94.7917 138.258 98.1244 137.232 101.211C136.206 104.298 134.231 106.981 131.591 108.877C128.95 110.773 125.779 111.785 122.53 111.769C119.281 111.752 116.12 110.708 113.499 108.785C110.877 106.862 108.93 104.159 107.936 101.062C106.941 97.9647 106.949 94.632 107.96 91.5398C108.97 88.4477 110.931 85.7547 113.562 83.8452C116.193 81.9358 119.359 80.9077 122.608 80.9077" stroke="#CCB8A8" stroke-width="1.51611"/>
<path d="M120.551 100.26H119.682V95.2169C119.682 95.0215 119.682 94.8564 119.682 94.7216C119.689 94.5869 119.696 94.4622 119.702 94.3477C119.709 94.2264 119.716 94.1017 119.723 93.9737C119.615 94.0815 119.517 94.1725 119.429 94.2466C119.342 94.3207 119.231 94.415 119.096 94.5296L118.328 95.1562L117.863 94.5599L119.813 93.0438H120.551V100.26ZM127.902 100.26H123.131V99.5227L125.021 97.6124C125.385 97.2485 125.692 96.925 125.941 96.642C126.191 96.359 126.379 96.0828 126.507 95.8132C126.635 95.537 126.699 95.2371 126.699 94.9137C126.699 94.5161 126.581 94.2163 126.346 94.0141C126.11 93.8052 125.803 93.7008 125.426 93.7008C125.075 93.7008 124.765 93.7614 124.496 93.8827C124.233 94.004 123.964 94.1725 123.687 94.3881L123.212 93.7917C123.401 93.63 123.606 93.4852 123.829 93.3571C124.058 93.2291 124.304 93.128 124.567 93.0539C124.836 92.9798 125.123 92.9427 125.426 92.9427C125.877 92.9427 126.265 93.0202 126.588 93.1752C126.912 93.3302 127.161 93.5525 127.336 93.8423C127.518 94.1253 127.609 94.4656 127.609 94.8631C127.609 95.1461 127.565 95.4157 127.478 95.6717C127.39 95.921 127.265 96.167 127.104 96.4096C126.942 96.6521 126.746 96.8981 126.517 97.1474C126.288 97.3967 126.036 97.6562 125.759 97.9257L124.253 99.4115V99.4519H127.902V100.26Z" fill="#1D322B"/>
<path d="M114.825 118.929C114.825 119.187 114.887 119.375 115.013 119.492C115.142 119.61 115.332 119.668 115.583 119.668C115.797 119.668 115.991 119.634 116.165 119.565C116.343 119.497 116.515 119.406 116.68 119.292V117.831H117.02V121.057H116.68V119.577C116.503 119.699 116.325 119.794 116.147 119.862C115.973 119.927 115.765 119.959 115.522 119.959C115.183 119.959 114.924 119.873 114.746 119.699C114.568 119.521 114.479 119.276 114.479 118.965V117.831H114.825V118.929ZM119.227 117.776C119.591 117.776 119.862 117.865 120.04 118.043C120.218 118.221 120.307 118.504 120.307 118.892V121.057H120.046L119.985 120.511H119.967C119.89 120.633 119.801 120.74 119.7 120.833C119.603 120.922 119.484 120.992 119.342 121.045C119.205 121.094 119.035 121.118 118.833 121.118C118.631 121.118 118.455 121.083 118.305 121.015C118.156 120.942 118.041 120.839 117.96 120.705C117.879 120.572 117.838 120.408 117.838 120.214C117.838 119.895 117.97 119.652 118.233 119.486C118.495 119.317 118.877 119.22 119.379 119.195L119.967 119.171V118.941C119.967 118.621 119.902 118.397 119.773 118.267C119.648 118.134 119.46 118.067 119.209 118.067C119.043 118.067 118.884 118.09 118.73 118.134C118.58 118.174 118.429 118.233 118.275 118.31L118.166 118.037C118.315 117.96 118.481 117.898 118.663 117.849C118.845 117.801 119.033 117.776 119.227 117.776ZM119.415 119.45C119.007 119.47 118.702 119.543 118.499 119.668C118.297 119.79 118.196 119.974 118.196 120.22C118.196 120.418 118.259 120.57 118.384 120.675C118.51 120.776 118.679 120.827 118.894 120.827C119.237 120.827 119.5 120.732 119.682 120.542C119.868 120.352 119.963 120.085 119.967 119.741V119.426L119.415 119.45ZM122.63 121.118C122.315 121.118 122.046 121.053 121.824 120.924C121.605 120.79 121.437 120.6 121.32 120.354C121.207 120.107 121.15 119.81 121.15 119.462C121.15 119.098 121.215 118.791 121.344 118.54C121.478 118.29 121.66 118.1 121.89 117.97C122.121 117.837 122.392 117.77 122.703 117.77C122.857 117.77 123 117.786 123.134 117.819C123.271 117.847 123.392 117.885 123.497 117.934L123.406 118.225C123.297 118.181 123.18 118.146 123.055 118.122C122.929 118.094 122.81 118.079 122.697 118.079C122.438 118.079 122.22 118.136 122.042 118.249C121.868 118.358 121.735 118.516 121.642 118.722C121.553 118.929 121.508 119.175 121.508 119.462C121.508 119.729 121.547 119.966 121.623 120.172C121.704 120.374 121.828 120.532 121.993 120.645C122.159 120.758 122.371 120.815 122.63 120.815C122.788 120.815 122.935 120.798 123.073 120.766C123.214 120.734 123.344 120.691 123.461 120.639V120.954C123.356 120.999 123.235 121.037 123.097 121.069C122.96 121.102 122.804 121.118 122.63 121.118ZM126.921 119.444C126.921 119.695 126.889 119.923 126.824 120.129C126.764 120.331 126.671 120.507 126.545 120.657C126.424 120.802 126.272 120.916 126.09 120.996C125.909 121.077 125.7 121.118 125.466 121.118C125.243 121.118 125.043 121.079 124.865 121.003C124.692 120.922 124.542 120.808 124.417 120.663C124.291 120.513 124.196 120.335 124.132 120.129C124.067 119.923 124.035 119.695 124.035 119.444C124.035 119.092 124.091 118.793 124.204 118.546C124.322 118.296 124.489 118.104 124.708 117.97C124.93 117.837 125.193 117.77 125.496 117.77C125.803 117.77 126.062 117.841 126.272 117.982C126.487 118.12 126.648 118.314 126.758 118.565C126.867 118.815 126.921 119.108 126.921 119.444ZM124.392 119.444C124.392 119.719 124.431 119.961 124.508 120.172C124.584 120.378 124.704 120.538 124.865 120.651C125.027 120.764 125.229 120.821 125.472 120.821C125.723 120.821 125.929 120.764 126.09 120.651C126.252 120.534 126.371 120.372 126.448 120.166C126.525 119.955 126.563 119.715 126.563 119.444C126.563 119.173 126.527 118.935 126.454 118.728C126.382 118.522 126.266 118.36 126.109 118.243C125.951 118.126 125.745 118.067 125.49 118.067C125.122 118.067 124.847 118.189 124.665 118.431C124.483 118.674 124.392 119.011 124.392 119.444ZM130.25 118.619C130.25 118.821 130.195 118.981 130.086 119.098C129.977 119.216 129.833 119.296 129.655 119.341V119.359C129.866 119.391 130.037 119.47 130.171 119.596C130.304 119.717 130.371 119.897 130.371 120.135C130.371 120.277 130.347 120.404 130.298 120.517C130.25 120.631 130.177 120.728 130.08 120.808C129.983 120.889 129.86 120.952 129.71 120.996C129.56 121.037 129.383 121.057 129.176 121.057H127.8V117.831H129.146C129.385 117.831 129.585 117.861 129.746 117.922C129.912 117.978 130.037 118.065 130.122 118.183C130.207 118.3 130.25 118.445 130.25 118.619ZM130.013 120.135C130.013 119.913 129.936 119.753 129.783 119.656C129.633 119.559 129.407 119.511 129.104 119.511H128.145V120.766H129.128C129.423 120.766 129.643 120.715 129.789 120.614C129.938 120.513 130.013 120.354 130.013 120.135ZM129.898 118.656C129.898 118.486 129.839 118.356 129.722 118.267C129.605 118.174 129.405 118.128 129.122 118.128H128.145V119.214H129.079C129.358 119.214 129.564 119.167 129.698 119.074C129.831 118.981 129.898 118.842 129.898 118.656Z" fill="#1D322B"/>
<path opacity="0.2" d="M184.503 96.3383C184.503 104.861 177.602 111.769 169.091 111.769C160.579 111.769 153.678 104.861 153.678 96.3383C153.678 87.8154 160.579 80.9077 169.091 80.9077C177.602 80.9077 184.503 87.8154 184.503 96.3383Z" stroke="#1D322B" stroke-opacity="0.4" stroke-width="1.51611"/>
<path d="M162.649 110.356C159.456 108.886 156.861 106.366 155.294 103.216C153.727 100.066 153.283 96.4744 154.035 93.0367C154.787 89.5991 156.69 86.5223 159.429 84.3163C162.167 82.1103 165.576 80.9077 169.091 80.9077" stroke="#CCB8A8" stroke-width="1.51611"/>
<path d="M166.225 95.8334C166.717 95.8334 167.145 95.9177 167.509 96.0861C167.873 96.2546 168.152 96.4972 168.348 96.8139C168.55 97.1238 168.651 97.5045 168.651 97.956C168.651 98.4546 168.543 98.8859 168.327 99.2498C168.112 99.6069 167.802 99.8832 167.398 100.079C167 100.267 166.518 100.362 165.952 100.362C165.582 100.362 165.231 100.328 164.901 100.26C164.578 100.193 164.305 100.095 164.082 99.9674V99.1285C164.325 99.2767 164.618 99.3946 164.962 99.4822C165.312 99.5631 165.646 99.6035 165.962 99.6035C166.319 99.6035 166.629 99.5496 166.892 99.4418C167.162 99.3272 167.371 99.1554 167.519 98.9263C167.667 98.6905 167.741 98.3974 167.741 98.047C167.741 97.5753 167.596 97.2148 167.307 96.9655C167.017 96.7094 166.559 96.5814 165.932 96.5814C165.743 96.5814 165.528 96.5982 165.285 96.6319C165.043 96.6656 164.847 96.6993 164.699 96.733L164.254 96.45L164.527 93.0438H168.146V93.8524H165.285L165.113 95.9446C165.228 95.9244 165.383 95.9008 165.578 95.8739C165.774 95.8469 165.989 95.8334 166.225 95.8334ZM172.009 92.9427C172.434 92.9427 172.808 93.0101 173.131 93.1449C173.455 93.2729 173.707 93.4649 173.889 93.721C174.078 93.977 174.172 94.2937 174.172 94.6711C174.172 94.9608 174.108 95.2135 173.98 95.4291C173.859 95.6448 173.694 95.8368 173.485 96.0053C173.276 96.167 173.047 96.3119 172.798 96.4399C173.094 96.5814 173.364 96.7431 173.606 96.925C173.849 97.1002 174.041 97.3058 174.182 97.5416C174.331 97.7774 174.405 98.0604 174.405 98.3906C174.405 98.7949 174.307 99.1453 174.112 99.4418C173.916 99.7315 173.64 99.9573 173.283 100.119C172.932 100.281 172.518 100.362 172.04 100.362C171.521 100.362 171.079 100.284 170.716 100.129C170.358 99.9741 170.086 99.7551 169.897 99.4721C169.715 99.1824 169.624 98.832 169.624 98.4209C169.624 98.0908 169.691 97.8044 169.826 97.5618C169.968 97.3192 170.153 97.1103 170.382 96.9352C170.611 96.76 170.857 96.6117 171.12 96.4904C170.884 96.3557 170.668 96.204 170.473 96.0356C170.284 95.8604 170.133 95.6616 170.018 95.4393C169.91 95.2169 169.856 94.9575 169.856 94.661C169.856 94.2904 169.951 93.9804 170.139 93.7311C170.328 93.475 170.584 93.2796 170.908 93.1449C171.231 93.0101 171.598 92.9427 172.009 92.9427ZM170.493 98.4311C170.493 98.7814 170.618 99.0746 170.867 99.3104C171.116 99.5395 171.501 99.6541 172.019 99.6541C172.35 99.6541 172.626 99.6001 172.848 99.4923C173.071 99.3845 173.239 99.2363 173.354 99.0476C173.475 98.8589 173.536 98.6433 173.536 98.4007C173.536 98.1649 173.471 97.9594 173.343 97.7842C173.222 97.6022 173.047 97.4405 172.818 97.299C172.596 97.1575 172.329 97.0295 172.019 96.9149L171.858 96.8543C171.561 96.9823 171.312 97.1205 171.11 97.2687C170.908 97.4169 170.753 97.5854 170.645 97.7741C170.544 97.9627 170.493 98.1817 170.493 98.4311ZM171.999 93.6603C171.629 93.6603 171.322 93.7513 171.079 93.9332C170.844 94.1084 170.726 94.3645 170.726 94.7014C170.726 94.9507 170.783 95.1596 170.897 95.3281C171.019 95.4965 171.18 95.6414 171.383 95.7627C171.585 95.8772 171.807 95.9884 172.05 96.0962C172.286 95.9952 172.494 95.884 172.676 95.7627C172.865 95.6414 173.013 95.4965 173.121 95.3281C173.236 95.1529 173.293 94.944 173.293 94.7014C173.293 94.3645 173.175 94.1084 172.939 93.9332C172.703 93.7513 172.39 93.6603 171.999 93.6603Z" fill="#1D322B"/>
<path d="M164.445 117.831V121.057H164.123V118.789C164.123 118.704 164.126 118.621 164.13 118.54C164.134 118.455 164.138 118.369 164.142 118.28H164.13L162.983 121.057H162.686L161.552 118.274H161.534C161.542 118.362 161.546 118.449 161.546 118.534C161.546 118.619 161.546 118.71 161.546 118.807V121.057H161.231V117.831H161.698L162.832 120.633L163.978 117.831H164.445ZM165.752 120.081C165.752 120.121 165.752 120.168 165.752 120.22C165.752 120.273 165.749 120.327 165.745 120.384C165.745 120.437 165.743 120.489 165.739 120.542C165.735 120.59 165.733 120.637 165.733 120.681L167.619 117.831H168.044V121.057H167.716V118.807C167.716 118.747 167.716 118.68 167.716 118.607C167.716 118.534 167.718 118.462 167.722 118.389C167.727 118.316 167.729 118.253 167.729 118.201L165.842 121.057H165.424V117.831H165.752V120.081ZM169.459 117.831V119.232H171.436V117.831H171.782V121.057H171.436V119.529H169.459V121.057H169.114V117.831H169.459ZM172.317 117.831H172.687L173.451 119.838C173.495 119.955 173.536 120.065 173.572 120.166C173.609 120.267 173.641 120.362 173.669 120.451C173.698 120.536 173.722 120.614 173.742 120.687H173.76C173.789 120.594 173.827 120.475 173.876 120.329C173.924 120.18 173.981 120.018 174.045 119.844L174.797 117.831H175.167L173.712 121.633C173.639 121.819 173.558 121.979 173.469 122.112C173.38 122.246 173.275 122.347 173.154 122.416C173.033 122.488 172.887 122.525 172.717 122.525C172.64 122.525 172.57 122.519 172.505 122.507C172.444 122.498 172.386 122.486 172.329 122.47V122.179C172.382 122.191 172.434 122.201 172.487 122.209C172.543 122.222 172.606 122.228 172.675 122.228C172.788 122.228 172.887 122.203 172.972 122.155C173.057 122.11 173.132 122.04 173.196 121.943C173.261 121.85 173.32 121.732 173.372 121.591L173.584 121.045L172.317 117.831ZM177.78 118.128H176.694V121.057H176.354V118.128H175.275V117.831H177.78V118.128Z" fill="#1D322B"/>
<path opacity="0.2" d="M231.257 96.3383C231.257 104.861 224.356 111.769 215.845 111.769C207.333 111.769 200.432 104.861 200.432 96.3383C200.432 87.8154 207.333 80.9077 215.845 80.9077C224.356 80.9077 231.257 87.8154 231.257 96.3383Z" stroke="#1D322B" stroke-opacity="0.4" stroke-width="1.51611"/>
<path d="M201.67 102.399C200.669 100.052 200.265 97.4932 200.494 94.9516C200.723 92.4099 201.578 89.9649 202.983 87.8354C204.388 85.7059 206.298 83.9585 208.542 82.7495C210.787 81.5405 213.296 80.9077 215.845 80.9077" stroke="#CCB8A8" stroke-width="1.51611"/>
<path d="M215.453 100.26H210.683V99.5227L212.573 97.6124C212.937 97.2485 213.243 96.925 213.493 96.642C213.742 96.359 213.931 96.0828 214.059 95.8132C214.187 95.537 214.251 95.2371 214.251 94.9137C214.251 94.5161 214.133 94.2163 213.897 94.0141C213.661 93.8052 213.354 93.7008 212.977 93.7008C212.627 93.7008 212.317 93.7614 212.047 93.8827C211.784 94.004 211.515 94.1725 211.239 94.3881L210.764 93.7917C210.952 93.63 211.158 93.4852 211.38 93.3571C211.609 93.2291 211.855 93.128 212.118 93.0539C212.388 92.9798 212.674 92.9427 212.977 92.9427C213.429 92.9427 213.816 93.0202 214.139 93.1752C214.463 93.3302 214.712 93.5525 214.887 93.8423C215.069 94.1253 215.16 94.4656 215.16 94.8631C215.16 95.1461 215.117 95.4157 215.029 95.6717C214.941 95.921 214.817 96.167 214.655 96.4096C214.493 96.6521 214.298 96.8981 214.069 97.1474C213.84 97.3967 213.587 97.6562 213.311 97.9257L211.805 99.4115V99.4519H215.453V100.26ZM218.66 95.8334C219.152 95.8334 219.58 95.9177 219.944 96.0861C220.308 96.2546 220.587 96.4972 220.783 96.8139C220.985 97.1238 221.086 97.5045 221.086 97.956C221.086 98.4546 220.978 98.8859 220.763 99.2498C220.547 99.6069 220.237 99.8832 219.833 100.079C219.435 100.267 218.953 100.362 218.387 100.362C218.017 100.362 217.666 100.328 217.336 100.26C217.013 100.193 216.74 100.095 216.517 99.9674V99.1285C216.76 99.2767 217.053 99.3946 217.397 99.4822C217.747 99.5631 218.081 99.6035 218.397 99.6035C218.755 99.6035 219.064 99.5496 219.327 99.4418C219.597 99.3272 219.806 99.1554 219.954 98.9263C220.102 98.6905 220.176 98.3974 220.176 98.047C220.176 97.5753 220.031 97.2148 219.742 96.9655C219.452 96.7094 218.994 96.5814 218.367 96.5814C218.178 96.5814 217.963 96.5982 217.72 96.6319C217.478 96.6656 217.282 96.6993 217.134 96.733L216.689 96.45L216.962 93.0438H220.581V93.8524H217.72L217.548 95.9446C217.663 95.9244 217.818 95.9008 218.013 95.8739C218.209 95.8469 218.424 95.8334 218.66 95.8334Z" fill="#1D322B"/>
<path d="M208.347 121.118C208.031 121.118 207.763 121.053 207.54 120.924C207.322 120.79 207.154 120.6 207.037 120.354C206.924 120.107 206.867 119.81 206.867 119.462C206.867 119.098 206.932 118.791 207.061 118.54C207.195 118.29 207.376 118.1 207.607 117.97C207.837 117.837 208.108 117.77 208.42 117.77C208.573 117.77 208.717 117.786 208.85 117.819C208.988 117.847 209.109 117.885 209.214 117.934L209.123 118.225C209.014 118.181 208.897 118.146 208.771 118.122C208.646 118.094 208.527 118.079 208.413 118.079C208.155 118.079 207.936 118.136 207.759 118.249C207.585 118.358 207.451 118.516 207.358 118.722C207.269 118.929 207.225 119.175 207.225 119.462C207.225 119.729 207.263 119.966 207.34 120.172C207.421 120.374 207.544 120.532 207.71 120.645C207.876 120.758 208.088 120.815 208.347 120.815C208.504 120.815 208.652 120.798 208.789 120.766C208.931 120.734 209.06 120.691 209.178 120.639V120.954C209.072 120.999 208.951 121.037 208.814 121.069C208.676 121.102 208.521 121.118 208.347 121.118ZM211.158 117.77C211.437 117.77 211.668 117.835 211.85 117.964C212.036 118.09 212.175 118.263 212.268 118.486C212.365 118.708 212.414 118.965 212.414 119.256V119.486H210.109C210.109 119.919 210.208 120.249 210.406 120.475C210.608 120.701 210.893 120.815 211.261 120.815C211.463 120.815 211.639 120.798 211.789 120.766C211.938 120.734 212.102 120.677 212.28 120.596V120.912C212.118 120.984 211.959 121.037 211.801 121.069C211.643 121.102 211.459 121.118 211.249 121.118C210.93 121.118 210.657 121.051 210.43 120.918C210.208 120.784 210.038 120.594 209.921 120.348C209.808 120.097 209.751 119.806 209.751 119.474C209.751 119.143 209.806 118.85 209.915 118.595C210.024 118.34 210.184 118.14 210.394 117.995C210.604 117.845 210.859 117.77 211.158 117.77ZM211.158 118.061C210.859 118.061 210.618 118.16 210.437 118.358C210.255 118.553 210.147 118.833 210.115 119.201H212.056C212.056 118.975 212.023 118.777 211.959 118.607C211.894 118.437 211.795 118.304 211.662 118.207C211.532 118.11 211.364 118.061 211.158 118.061ZM215.068 117.831H215.462L214.019 119.395L215.553 121.057H215.135L213.631 119.426V121.057H213.285V117.831H213.631V119.402L215.068 117.831ZM215.618 117.831H215.988L216.752 119.838C216.797 119.955 216.837 120.065 216.873 120.166C216.91 120.267 216.942 120.362 216.97 120.451C216.999 120.536 217.023 120.614 217.043 120.687H217.061C217.09 120.594 217.128 120.475 217.177 120.329C217.225 120.18 217.282 120.018 217.346 119.844L218.098 117.831H218.468L217.013 121.633C216.94 121.819 216.859 121.979 216.77 122.112C216.681 122.246 216.576 122.347 216.455 122.416C216.334 122.488 216.188 122.525 216.018 122.525C215.942 122.525 215.871 122.519 215.806 122.507C215.745 122.498 215.687 122.486 215.63 122.47V122.179C215.683 122.191 215.735 122.201 215.788 122.209C215.844 122.222 215.907 122.228 215.976 122.228C216.089 122.228 216.188 122.203 216.273 122.155C216.358 122.11 216.433 122.04 216.497 121.943C216.562 121.85 216.621 121.732 216.673 121.591L216.886 121.045L215.618 117.831ZM219.34 117.831V119.232H221.317V117.831H221.663V121.057H221.317V119.529H219.34V121.057H218.994V117.831H219.34ZM224.969 117.831V120.76H225.412V122.155H225.072V121.057H222.653V122.155H222.319V120.76H222.543C222.725 120.505 222.877 120.224 222.998 119.917C223.12 119.61 223.213 119.28 223.277 118.929C223.342 118.577 223.376 118.211 223.38 117.831H224.969ZM223.696 118.116C223.68 118.455 223.639 118.785 223.574 119.104C223.51 119.42 223.423 119.717 223.314 119.996C223.204 120.275 223.071 120.53 222.913 120.76H224.636V118.116H223.696Z" fill="#1D322B"/>
<rect opacity="0.4" x="93.998" y="211.976" width="106.121" height="2.02403" fill="#1D322B" fill-opacity="0.2"/>
<defs>
<filter id="filter0_d_227_551" x="0.957029" y="96.8506" width="40.4277" height="40.4673" filterUnits="userSpaceOnUse" color-interpolation-filters="sRGB">
<feFlood flood-opacity="0" result="BackgroundImageFix"/>
<feColorMatrix in="SourceAlpha" type="matrix" values="0 0 0 0 0 0 0 0 0 0 0 0 0 0 0 0 0 0 127 0" result="hardAlpha"/>
<feOffset dx="-4.04297" dy="4.04297"/>
<feComposite in2="hardAlpha" operator="out"/>
<feColorMatrix type="matrix" values="0 0 0 0 0.113725 0 0 0 0 0.196078 0 0 0 0 0.168627 0 0 0 0.1 0"/>
<feBlend mode="normal" in2="BackgroundImageFix" result="effect1_dropShadow_227_551"/>
<feBlend mode="normal" in="SourceGraphic" in2="effect1_dropShadow_227_551" result="shape"/>
</filter>
<filter id="filter1_d_227_551" x="244.572" y="38.1584" width="40.4277" height="40.4673" filterUnits="userSpaceOnUse" color-interpolation-filters="sRGB">
<feFlood flood-opacity="0" result="BackgroundImageFix"/>
<feColorMatrix in="SourceAlpha" type="matrix" values="0 0 0 0 0 0 0 0 0 0 0 0 0 0 0 0 0 0 127 0" result="hardAlpha"/>
<feOffset dx="-4.04297" dy="4.04297"/>
<feComposite in2="hardAlpha" operator="out"/>
<feColorMatrix type="matrix" values="0 0 0 0 0.113725 0 0 0 0 0.196078 0 0 0 0 0.168627 0 0 0 0.1 0"/>
<feBlend mode="normal" in2="BackgroundImageFix" result="effect1_dropShadow_227_551"/>
<feBlend mode="normal" in="SourceGraphic" in2="effect1_dropShadow_227_551" result="shape"/>
</filter>
</defs>
</svg>
