<svg width="92" height="20" viewBox="0 0 92 20" fill="none" xmlns="http://www.w3.org/2000/svg">
<path d="M89.273 5.60976L87.1357 10.8061C87.1357 10.8783 87.0619 10.9505 87.0619 11.0227L86.9881 11.167L86.9143 11.0227C86.9143 10.9505 86.8406 10.8783 86.8406 10.8061L84.7032 5.60976H81.9024L85.5875 14.5591L84.0398 17.9512H86.8406L92 5.60976H89.273Z" fill="white"/>
<path d="M69.4006 6.27588C68.8727 5.92075 68.2693 5.70772 67.5149 5.63667C66.2326 5.49463 65.0258 5.92075 64.2714 6.77305V5.77871H61.7073V14.5854H64.2714V9.96898C64.2714 8.90365 64.4979 8.69061 64.6488 8.40653C64.9503 7.90937 65.5537 7.62529 66.2326 7.69628C66.9115 7.69628 67.5904 7.98041 67.8918 8.47753C68.1183 8.83266 68.1183 9.25878 68.1183 9.54286C68.1183 10.3241 68.1183 14.5854 68.1183 14.5854H70.6829V9.25878C70.6829 7.83837 70.23 6.91509 69.4006 6.27588Z" fill="white"/>
<path d="M57.2957 5.87432C55.9957 5.46278 54.6186 5.53135 53.3181 6.08012C52.4004 6.42304 51.7118 7.04038 51.1764 7.79489C50.717 8.48079 50.4878 9.2353 50.4878 10.1269C50.4878 11.0186 50.717 11.7732 51.1764 12.4591C51.6352 13.145 52.2472 13.6251 53.0123 14.0366C53.7769 14.3796 54.6952 14.5854 55.5363 14.5854C55.9957 14.5854 56.4546 14.5168 56.9134 14.4482C57.2957 14.3796 57.6786 14.2424 58.0609 14.0366C58.826 13.6251 59.438 13.145 59.8968 12.5277C60.3557 11.8417 60.5854 11.0873 60.5854 10.1956C60.5088 8.13782 59.2848 6.56022 57.2957 5.87432ZM57.9843 10.1269C57.9843 10.8815 57.6786 11.4988 57.1431 11.9103C56.7603 12.2533 56.2249 12.3905 55.4598 12.3905C54.7718 12.3905 54.2358 12.1847 53.7769 11.9103C53.2415 11.4988 53.0123 10.8815 52.9358 10.1269C52.9358 9.30387 53.2415 8.54935 53.9301 8.06925C54.3124 7.79489 54.7717 7.65771 55.3837 7.65771C55.9957 7.65771 56.4546 7.79489 56.8369 8.06925C57.6786 8.54935 58.0609 9.30387 57.9843 10.1269Z" fill="white"/>
<path d="M48.1752 6.27914C47.7288 5.92415 47.059 5.7112 46.3149 5.64018C46.166 5.64018 46.0172 5.64018 45.8684 5.64018C44.8265 5.64018 44.008 6.06613 43.2638 6.91809L43.115 7.06008H42.8173C42.5941 6.77611 42.3709 6.49209 42.0732 6.3501C41.6267 5.92415 41.0314 5.7112 40.2872 5.64018C39.0966 5.4982 38.1292 5.85318 37.3106 6.70509V5.78217H34.7805V14.5854H37.3106V9.97079V9.89977C37.3106 8.90588 37.4594 8.69293 37.6083 8.40896C37.9059 7.91199 38.5012 7.62802 39.0966 7.62802C39.6919 7.62802 40.2872 7.91199 40.5849 8.40896C40.8081 8.76389 40.8081 9.18985 40.8081 9.6158V14.5143H43.4127V9.8288C43.4127 8.9769 43.5615 8.62191 43.7103 8.33794C44.0079 7.84097 44.6033 7.62802 45.1986 7.62802C45.7939 7.62802 46.3149 7.98295 46.6125 8.40896C46.7613 8.69293 46.8358 9.04786 46.8358 9.33183C46.8358 9.47382 46.8358 9.54483 46.8358 9.68682V14.5854H49.3658V9.26086C49.3658 8.76389 49.2915 8.33794 49.217 7.91199C49.0682 7.20206 48.6961 6.63412 48.1752 6.27914Z" fill="white"/>
<path d="M80.1687 11.7487C79.8221 12.0944 78.9896 12.7165 77.88 12.7856C76.9787 12.7856 76.2156 12.5783 75.7302 12.0252C75.5225 11.7487 75.3143 11.4722 75.2448 11.1266H81.8331V11.0575C81.9025 10.7119 81.9025 10.3662 81.9025 10.0897C81.9025 9.81319 81.8331 9.39843 81.6942 8.84542C81.4171 7.8776 80.8623 7.11724 80.0992 6.49508C79.2673 5.87292 78.4348 5.66556 78.2271 5.66556C76.4933 5.38906 74.5512 6.14942 73.5804 7.73935C72.8868 8.84542 72.8868 9.95144 72.9562 10.297C72.9562 10.7119 73.0256 12.0252 74.0658 13.1313C75.2448 14.4447 76.9787 14.5138 77.5335 14.583C79.8915 14.6521 81.4865 13.2004 81.8331 12.8548L80.1687 11.7487ZM76.0773 8.15411C76.4239 7.8776 76.8398 7.73935 77.3946 7.73935C77.9494 7.73935 78.3654 7.8776 78.7125 8.15411C79.059 8.43061 79.3367 8.77627 79.475 9.26018H75.2448C75.4531 8.77627 75.7302 8.43061 76.0773 8.15411Z" fill="white"/>
<path d="M17.9508 0C12.3169 0 7.85366 4.28454 7.85366 9.53659C7.85366 14.7886 12.39 19.0732 17.9508 19.0732C23.5116 19.0732 28.0479 14.7886 28.0479 9.53659C28.1211 4.28454 23.5116 0 17.9508 0ZM17.9508 13.0609C15.9021 13.0609 14.1461 11.4715 14.1461 9.53659C14.1461 7.60161 15.8289 6.01218 17.9508 6.01218C20.0727 6.01218 21.7555 7.60161 21.7555 9.53659C21.6824 11.4715 20.0727 13.0609 17.9508 13.0609Z" fill="white"/>
<path d="M7.85366 2.2439V16.8293H4.41765L0 2.2439H7.85366Z" fill="white"/>
</svg>
