<svg width="24" height="19" viewBox="0 0 24 19" fill="none" xmlns="http://www.w3.org/2000/svg">
<path d="M6.432 18.16C5.376 18.16 4.512 17.944 3.84 17.512C3.168 17.08 2.616 16.528 2.184 15.856C1.704 15.04 1.368 14.2 1.176 13.336C1.032 12.424 0.96 11.68 0.96 11.104C0.96 8.752 1.56 6.616 2.76 4.696C3.96 2.776 5.832 1.216 8.376 0.0159955L9.024 1.312C7.536 1.936 6.24 2.92 5.136 4.264C4.08 5.608 3.552 6.976 3.552 8.368C3.552 8.944 3.624 9.448 3.768 9.88C4.536 9.256 5.424 8.944 6.432 8.944C7.68 8.944 8.76 9.352 9.672 10.168C10.584 10.984 11.04 12.112 11.04 13.552C11.04 14.896 10.584 16 9.672 16.864C8.76 17.728 7.68 18.16 6.432 18.16ZM18.672 18.16C17.616 18.16 16.752 17.944 16.08 17.512C15.408 17.08 14.856 16.528 14.424 15.856C13.944 15.04 13.608 14.2 13.416 13.336C13.272 12.424 13.2 11.68 13.2 11.104C13.2 8.752 13.8 6.616 15 4.696C16.2 2.776 18.072 1.216 20.616 0.0159955L21.264 1.312C19.776 1.936 18.48 2.92 17.376 4.264C16.32 5.608 15.792 6.976 15.792 8.368C15.792 8.944 15.864 9.448 16.008 9.88C16.776 9.256 17.664 8.944 18.672 8.944C19.92 8.944 21 9.352 21.912 10.168C22.824 10.984 23.28 12.112 23.28 13.552C23.28 14.896 22.824 16 21.912 16.864C21 17.728 19.92 18.16 18.672 18.16Z" fill="#1D322B"/>
</svg>
