<svg width="119" height="32" viewBox="0 0 119 32" fill="none" xmlns="http://www.w3.org/2000/svg">
<path d="M37.4748 14.1371C38.5198 12.5501 39.4698 10.9313 40.2773 9.21738C40.8948 7.90017 41.3698 6.53535 41.5439 5.05944C41.734 3.47244 41.3856 2.0124 40.4831 0.695185C40.3248 0.457135 40.119 0.250824 39.8973 0.0603847C39.8498 0.0127742 39.7548 -0.018963 39.7073 0.0127766C39.644 0.0445161 39.7073 0.171477 39.739 0.203216C40.2298 0.631706 40.4198 1.20302 40.5465 1.80609C40.7523 2.77416 40.6731 3.74223 40.4673 4.7103C40.309 5.44032 40.0556 6.1386 39.7865 6.83688C39.2165 8.29692 38.4407 9.66174 37.6332 11.0107C36.7782 12.4231 35.8599 13.7879 34.9257 15.1369C34.0391 16.4382 33.1049 17.7078 32.1391 18.9457C30.9516 20.4533 29.7483 21.9451 28.4341 23.3417C26.9775 24.8811 23.9059 27.8646 22.7184 28.3566C22.56 28.4042 22.3542 28.3884 22.3067 28.182C22.2434 27.944 22.085 27.0553 22.1642 24.8652C22.3384 23.183 22.6234 22.0721 23.1142 20.6914C23.6842 19.1044 24.4284 17.5967 25.2358 16.1208C25.4892 15.6765 26.0908 14.5497 26.1225 14.264C26.1383 14.1371 26.0117 14.026 25.885 14.026C25.7045 14.0389 25.5554 14.1045 25.4037 14.1712L25.3954 14.1749C25.3869 14.1786 25.3783 14.1824 25.3698 14.1861C25.3464 14.1964 25.3229 14.2065 25.2992 14.2164C24.65 14.518 24.0484 14.883 23.4784 15.2956C22.2275 16.2319 21.0401 17.2635 19.9317 18.3902C17.8259 20.5327 15.926 22.8656 14.1843 25.3254C13.3927 26.4363 12.6643 27.579 12.0627 28.801C11.8507 29.2259 11.5501 29.947 11.2982 30.5513C11.0985 31.0304 10.9294 31.436 10.8594 31.5624C10.8594 31.5782 10.8277 31.5782 10.8277 31.5624C10.796 31.2608 10.8435 29.4358 11.0335 28.5312C11.3819 26.8648 11.9202 25.2461 12.4743 23.6432C13.1077 21.8182 13.9152 20.0566 14.7701 18.3268C15.2051 17.4434 15.6814 16.5849 16.1572 15.7274C16.3396 15.3986 16.5219 15.07 16.7018 14.7401C16.9182 14.3434 17.1363 13.9466 17.3545 13.5498C17.7908 12.7564 18.2271 11.9629 18.6493 11.1694C19.0768 10.3759 19.3459 9.51891 19.4567 8.61432C19.5517 7.75734 19.3143 7.02732 18.7284 6.40839C18.2693 5.93229 17.6993 5.69424 17.0501 5.63076C16.4168 5.56728 15.7835 5.56728 15.166 5.64663C12.8385 5.96403 10.701 6.78927 8.75356 8.10648C7.93024 8.66193 7.17025 9.3126 6.45776 10.0109C4.38362 12.0264 2.67364 14.3117 1.45449 16.9461C0.757834 18.4696 0.251174 20.0407 0.045344 21.7071C-0.0813208 22.7386 0.0611775 23.7226 0.425339 24.6906C0.488671 24.8017 0.599503 24.9604 0.773667 25.008C0.781584 24.9525 0.785542 24.9128 0.7895 24.8731C0.793458 24.8335 0.797417 24.7938 0.805334 24.7382C0.868666 23.8337 1.04283 22.9767 1.23283 22.088C1.80282 19.3901 2.9428 16.9461 4.46278 14.6608C5.11194 13.6927 5.84027 12.7723 6.61609 11.9153C8.12024 10.2172 9.79855 8.72541 11.8094 7.63038C13.2185 6.85275 14.7068 6.36078 16.2901 6.12273C16.8443 6.04338 17.3984 6.07512 17.9368 6.20208C18.3326 6.2973 18.6334 6.50361 18.8076 6.88449C18.9976 7.26537 18.9818 7.66212 18.8393 8.05887C18.7601 8.31279 18.6493 8.56671 18.5068 8.78889C18.4152 8.9419 18.3248 9.09612 18.2343 9.25054C17.9962 9.65666 17.7573 10.0643 17.4934 10.4552C16.6226 11.8042 15.8151 13.1849 15.0235 14.5814C14.3268 15.7876 13.6618 17.0096 13.0602 18.2633C12.0785 20.2946 11.271 22.4054 10.606 24.5637C10.131 26.0872 9.84605 27.6425 9.86188 29.2453C9.86188 29.6897 9.90938 30.1182 9.97271 30.5625C10.0519 31.0228 10.2577 31.4354 10.5744 31.7845C10.8594 32.0861 11.1602 32.0861 11.3344 31.6893C11.4816 31.3414 11.6499 30.9934 11.8159 30.6501C11.8997 30.4767 11.983 30.3045 12.0627 30.1341C12.5693 29.0549 13.1393 28.0233 13.7885 27.0235C14.6593 25.6904 15.5935 24.405 16.5593 23.1512C17.9843 21.3262 19.4726 19.5646 21.1351 17.9459C22.0059 17.1048 22.8925 16.343 23.89 15.6447C23.8975 15.6397 23.9058 15.6339 23.9151 15.6274L23.9209 15.6233C23.9705 15.5883 24.0468 15.5344 24.175 15.4702C19.5201 22.1038 20.8976 27.5314 21.6892 28.3884C21.9742 28.6423 22.2434 28.7692 22.6709 28.7692C23.2884 28.7692 24.5233 28.1662 25.0142 27.8329L25.0143 27.8328C25.6476 27.4043 26.2809 26.9759 26.8825 26.5157C28.3708 25.4048 29.7166 24.1352 30.9674 22.7545C31.9966 21.6119 32.9307 20.4216 33.8649 19.1996C35.1315 17.5809 36.3349 15.8669 37.4748 14.1371Z" fill="#CCB8A8"/>
<path fill-rule="evenodd" clip-rule="evenodd" d="M118.889 11.8359C118.81 11.8677 114.946 12.931 110.086 12.4707C110.127 12.3558 110.162 12.2409 110.19 12.1486C110.205 12.1007 110.217 12.0589 110.228 12.0264C110.529 11.0583 110.782 10.0744 110.925 9.07455C111.067 8.05887 111.083 7.05906 110.909 6.04338C110.846 5.64663 110.751 5.24988 110.624 4.869C110.57 4.6936 110.459 4.52967 110.349 4.36746L110.32 4.32519C110.311 4.31072 110.301 4.29627 110.291 4.28181C110.265 4.24202 110.205 4.21332 110.149 4.18644C110.138 4.18115 110.128 4.17594 110.117 4.17072C110.044 4.26906 110.084 4.33883 110.121 4.40216L110.126 4.41118C110.129 4.41611 110.132 4.421 110.134 4.42588C110.14 4.43611 110.145 4.44625 110.149 4.45638C110.159 4.4934 110.172 4.53043 110.184 4.56745C110.209 4.64152 110.233 4.71558 110.244 4.78965C110.45 5.85294 110.466 6.91623 110.307 7.99539C110.086 9.37608 109.041 12.1851 108.993 12.2803C108.993 12.292 106.759 11.9936 105.196 11.7849C104.638 11.7103 104.165 11.6472 103.911 11.6138C103.119 11.5027 102.327 11.4074 101.52 11.3281C100.855 11.2646 100.19 11.2011 99.5249 11.2011C98.3216 11.1694 97.1182 11.2329 95.9308 11.3757C94.6483 11.5185 93.4133 11.8201 92.2416 12.3438C91.5292 12.6612 90.8483 13.0579 90.2625 13.5975C89.8192 13.9943 89.455 14.4545 89.265 15.0417C89.2175 15.2004 89.1859 15.3749 89.2017 15.5495C89.2334 15.851 89.3442 16.1208 89.6609 16.2319C89.6767 16.2319 89.7084 16.2319 89.7084 16.2161C90.1358 15.5019 90.4367 15.1369 90.8958 14.7084C91.7033 13.9625 92.6692 13.5023 93.6825 13.1373C94.49 12.8357 95.3291 12.6294 96.1841 12.5342C97.6249 12.3596 99.0657 12.2803 100.507 12.3279C100.716 12.3384 100.926 12.3454 101.135 12.3525L101.136 12.3525C101.558 12.3666 101.978 12.3807 102.391 12.4231C103.42 12.5183 104.449 12.6294 105.462 12.7405C106.381 12.8357 108.233 13.0738 108.629 13.1373C108.661 13.1373 108.676 13.169 108.661 13.2008C108.54 13.4697 108.004 14.5946 107.335 15.9963L107.335 15.9975C106.859 16.9945 106.317 18.1313 105.811 19.1996C104.544 21.7071 102.502 24.6906 101.583 25.8015C100.871 26.6585 98.7649 28.7216 97.1658 29.2453C96.3424 29.5151 95.8199 29.2771 95.8991 28.4201C95.9009 28.4078 95.9026 28.3953 95.9044 28.3827L95.9044 28.3825C95.9187 28.2809 95.9343 28.1697 95.9624 28.071L95.9751 28.02C96.0344 27.7812 96.0965 27.5314 96.1999 27.3092C96.8016 25.8809 97.5457 24.5161 98.2899 23.1671C98.6224 22.5482 99.7624 20.1042 99.4774 19.1837C99.2874 18.5013 98.7332 18.422 98.0682 18.7235C97.7199 18.8822 97.3874 19.0568 97.0707 19.2631C95.7883 20.1042 94.6325 21.104 93.4925 22.1197C92.685 22.8497 90.9908 24.5637 90.7058 24.9763C90.7332 24.8668 90.9804 24.4318 91.2308 23.9913C91.4158 23.666 91.6024 23.3377 91.7033 23.1354C91.9883 22.5958 92.21 22.0245 92.3208 21.4055C92.4316 20.7231 92.2733 20.1201 91.8617 19.5646C91.7983 19.4853 91.6242 19.3266 91.6083 19.5011C91.5925 19.8027 91.4342 20.3105 91.1967 20.8818C89.9775 23.0402 87.0484 25.3413 86.1934 25.8015C85.7342 26.0555 84.9109 26.3887 84.1984 26.3253C83.7234 26.2776 83.4701 25.9285 83.4384 25.4524C83.3909 24.77 83.7076 23.8337 84.4043 23.0878C84.6417 22.7545 84.9267 22.5799 85.3226 22.4688C86.0984 22.2784 86.8267 21.9293 87.5234 21.5166C87.8084 21.3579 88.0617 21.1516 88.2675 20.8977C88.6 20.4851 88.5842 20.1518 88.2359 19.7709C88.0617 19.5805 87.8559 19.4694 87.5867 19.4377C87.1909 19.4059 86.8267 19.517 86.4784 19.6916C85.1168 20.374 84.0243 21.3738 83.2484 22.691C82.9318 23.2147 82.7259 23.7861 82.6626 24.3891C82.5834 25.0557 82.6626 25.7381 83.0743 26.2459C83.8818 27.2298 85.6551 26.5316 86.0509 26.3094C86.6526 26.0078 87.1909 25.627 87.7134 25.1985C88.2992 24.7224 89.3284 23.7702 89.7242 23.3734L89.7424 23.3515L89.7425 23.3514C89.8134 23.2658 89.8741 23.1927 89.9617 23.1195C90.0408 22.9926 90.1358 22.8815 90.2467 22.7862C89.8766 23.5057 89.5144 24.1535 89.3121 24.5153L89.3118 24.5158L89.3116 24.5162C89.2286 24.6646 89.1726 24.7648 89.1542 24.8017C88.7584 25.5317 88.4417 26.2935 88.3784 27.1187C88.3625 27.4044 88.3467 28.0868 88.7267 28.3407C88.7584 28.3566 88.79 28.3566 88.8217 28.3249C88.9443 28.1856 89.2229 27.8012 89.5227 27.3875L89.5237 27.3861L89.5248 27.3845L89.5251 27.3842L89.5252 27.3841C89.8054 26.9973 90.1038 26.5856 90.31 26.3253C91.83 24.405 93.5241 22.6275 95.3924 21.0405C96.2474 20.3105 97.1658 19.644 98.1316 19.0885C98.2107 19.0409 98.3057 18.9933 98.4166 18.9457C98.4957 18.914 98.7332 18.8346 98.8441 18.9774C98.9391 19.1838 98.6066 19.7551 98.4799 19.9455C98.2659 20.3132 98.0495 20.6809 97.8326 21.0496L97.832 21.0507L97.8313 21.0519C97.487 21.6371 97.1413 22.2245 96.8016 22.818C96.3108 23.6591 95.8991 24.5161 95.5349 25.4207C95.2816 26.0555 95.1233 26.7379 95.0758 27.4203C95.06 27.6425 95.0599 27.9916 95.0916 28.1979C95.2658 29.3247 95.9466 30.0547 97.4191 29.5945C97.7991 29.4675 98.1791 29.2929 98.5274 29.0866C98.8441 28.9121 99.1449 28.7058 99.4299 28.4836C100.538 27.5949 101.552 26.6268 102.422 25.5159C102.834 24.9922 103.214 24.5002 103.531 24.0241C103.277 24.7382 103.072 25.4524 102.897 26.1983C102.692 27.087 102.597 27.9757 102.692 28.8803C102.723 29.2612 102.771 29.4834 102.866 29.8643C102.897 29.9595 103.008 30.1658 103.151 30.2134C103.182 30.2293 103.198 30.1975 103.198 30.1658C103.182 29.9912 103.151 29.4199 103.198 29.0073C103.372 27.452 103.8 25.9444 104.449 24.5319C105.399 22.4212 106.444 20.3581 107.521 18.3109C108.043 17.3111 108.708 15.9463 109.421 14.2482L109.801 13.3436C109.801 13.3277 109.832 13.3118 109.848 13.3118C115.548 13.899 118.16 12.7881 118.635 12.439C118.746 12.3596 118.857 12.2486 118.92 12.1692C119.031 12.0422 119.031 11.7883 118.889 11.8359ZM87.3017 20.4533C87.4759 20.3423 88.1092 20.0407 88.1884 20.1836C88.2992 20.374 88.125 20.6279 87.9984 20.7549C87.3967 21.3897 85.8292 22.0245 85.2276 22.1514C85.4967 21.7388 86.6051 20.8818 87.3017 20.4533Z" fill="#CCB8A8"/>
<path d="M84.6418 14.5973C84.8318 14.8353 84.9585 15.0575 85.0534 15.2638C85.2434 15.7241 85.2593 16.2319 85.0851 16.6604C83.391 21.3262 76.5669 27.8011 73.8594 28.6899L73.8493 28.6929C73.693 28.74 73.5067 28.7962 73.3053 28.5788C73.2916 28.5514 73.2839 28.5418 73.2794 28.5307C73.2736 28.5161 73.2736 28.4992 73.2736 28.4359C73.7011 27.7377 75.0469 23.5956 74.1919 20.3264C74.1801 20.4097 74.1504 20.4841 74.1296 20.5361C74.1227 20.5535 74.1167 20.5684 74.1128 20.5803C73.5269 22.4053 72.5294 24.0082 71.2945 25.4682C70.392 26.5474 69.4103 27.5472 68.302 28.4359C68.017 28.6581 67.7162 28.8644 67.3995 29.039C67.0512 29.2453 66.6712 29.4199 66.2912 29.5468C64.8187 30.0071 64.1379 29.277 63.9637 28.1503C63.9321 27.944 63.9321 27.5948 63.9479 27.3726C63.9954 26.6902 64.1537 26.0078 64.4071 25.373C64.7712 24.4684 65.1829 23.6115 65.6737 22.7703C66.0139 22.1761 66.36 21.5878 66.7048 21.0018C66.9217 20.6332 67.138 20.2655 67.352 19.8979C67.4787 19.7074 67.8112 19.1361 67.7162 18.9298C67.6053 18.787 67.3679 18.8663 67.2887 18.8981C67.1778 18.9457 67.0828 18.9933 67.0037 19.0409C66.0379 19.5963 65.1195 20.2629 64.2646 20.9929C62.3962 22.5799 60.7021 24.3573 59.1821 26.2776C58.9759 26.5379 58.6775 26.9497 58.3972 27.3365L58.3971 27.3367C58.0965 27.7516 57.8167 28.1376 57.6938 28.2772C57.6621 28.309 57.6305 28.309 57.5988 28.2931C57.2188 28.0392 57.2346 27.3568 57.2505 27.0711C57.3138 26.2459 57.6305 25.4841 58.0263 24.7541C58.1192 24.5773 58.2392 24.3623 58.361 24.1442L58.3611 24.144L58.3613 24.1436L58.3618 24.1427C58.4474 23.9894 58.5338 23.8347 58.6121 23.6908C57.7571 24.5954 56.5538 25.5 55.6513 26.1507C54.8597 26.722 54.0364 27.2298 53.1339 27.6107C52.6589 27.817 52.168 27.9757 51.6456 28.0074C51.6078 28.0074 51.5694 28.0081 51.5308 28.0087C51.375 28.0112 51.2151 28.0139 51.0756 27.9757C50.5531 27.8487 50.1889 27.5472 50.0464 27.0076C49.9672 26.7061 49.9673 26.4046 50.0147 26.103C50.0939 25.5476 50.2839 25.0239 50.5214 24.516C51.0597 23.4051 51.7247 22.3736 52.5797 21.4849C53.2561 20.8069 53.5774 20.6491 53.7973 20.541C53.808 20.5358 53.8185 20.5306 53.8288 20.5256C53.8347 20.5226 53.8406 20.5197 53.8464 20.5168C54.0522 20.4057 54.1789 20.4533 54.3372 20.6438C54.3689 20.6914 54.4005 20.739 54.4322 20.8025C54.4639 20.8659 54.448 20.9612 54.4005 21.0246C52.2314 23.3417 50.3947 26.1189 50.5847 27.1663C50.6639 27.5155 50.9964 27.8011 52.0097 27.5155C52.6589 27.3568 53.2764 27.087 53.8464 26.7378C55.9522 25.4682 57.8363 23.913 59.4355 22.0245C59.5938 21.834 59.7363 21.6118 59.8471 21.3897C60.1638 20.7549 60.4171 20.1042 60.4804 19.4059C60.4963 19.2313 60.6704 19.39 60.7338 19.4694C61.1454 20.0248 61.3038 20.6279 61.1929 21.3103C61.0821 21.9292 60.8604 22.5006 60.5754 23.0401C60.4745 23.2424 60.2879 23.5707 60.1029 23.8961C59.8526 24.3365 59.6053 24.7715 59.5779 24.8811C59.8629 24.4684 61.5571 22.7545 62.3646 22.0245C63.5046 21.0088 64.6604 20.009 65.9429 19.1679C66.2595 18.9615 66.592 18.787 66.9404 18.6283C67.6053 18.3267 68.1595 18.4061 68.3495 19.0885C68.6345 20.009 67.4945 22.4529 67.162 23.0719C66.4179 24.4208 65.6737 25.7856 65.072 27.2139C64.9686 27.4362 64.9065 27.6861 64.8472 27.9249L64.8345 27.9757C64.8064 28.0746 64.7907 28.1861 64.7765 28.2877C64.7747 28.3003 64.7729 28.3127 64.7712 28.3248C64.692 29.1818 65.2145 29.4199 66.0379 29.1501C67.637 28.6264 69.7428 26.5633 70.4553 25.7063C71.3895 24.5954 72.2761 23.5004 72.9728 22.2149C73.3528 21.5007 73.7961 20.5327 74.0653 19.5011C74.0811 19.4535 74.1286 19.4376 74.1602 19.4694C74.9994 20.2153 75.4427 21.6436 75.5061 22.7227C75.6011 24.3415 75.2052 26.5157 74.4611 27.9122C76.8519 26.7378 83.6759 20.0248 84.6893 16.4382C84.8001 16.0415 84.8793 15.3432 84.4993 15.1845C84.3093 15.1051 83.9768 15.0734 83.486 15.2004C80.8577 16.0097 79.1477 18.66 78.3244 20.2946C78.261 20.4057 78.1027 20.3898 78.071 20.2629C76.6072 14.0351 74.3011 14.1781 73.9544 14.1996C73.9485 14.2 73.9433 14.2003 73.9386 14.2005C72.6719 14.3116 72.3236 15.4701 72.2286 16.2319C72.2286 16.2636 72.1811 16.2636 72.1811 16.2319C72.0703 15.5971 72.2919 14.994 72.5611 14.6449C73.0519 13.9784 73.9069 13.7244 74.6352 13.9307C75.6644 14.2164 77.0735 15.1686 78.2452 18.6124C78.2452 18.6131 78.249 18.6051 78.2565 18.589C78.4104 18.2587 80.1413 14.5449 83.3118 14.1212C83.8501 14.026 84.2776 14.1847 84.6418 14.5973Z" fill="#CCB8A8"/>
<path fill-rule="evenodd" clip-rule="evenodd" d="M57.4088 14.3434C58.2638 13.5657 59.0238 12.7246 59.6254 11.7248C59.8471 11.3439 60.2588 10.5822 60.2429 9.86803C60.1954 8.83648 59.4829 8.53495 58.6121 8.74127C58.1371 8.85236 57.7096 9.02692 57.2821 9.2491C56.1896 9.82042 55.2397 10.5981 54.3372 11.4233C52.9914 12.6453 51.8039 14.026 50.6955 15.4701C49.6221 16.8749 47.8186 19.9541 47.5721 20.375C47.5568 20.4011 47.5475 20.417 47.5448 20.4216C47.5377 20.4169 47.5276 20.3962 47.512 20.3646C47.4224 20.182 47.1528 19.6328 46.2623 19.6598C45.9773 19.6757 45.6923 19.7074 45.4073 19.7709C44.5681 19.9931 43.7923 20.3581 43.1115 20.8818C42.5415 21.3262 41.9873 21.8023 41.4965 22.326C40.9107 22.9449 40.309 23.5797 39.6915 24.1828C38.8682 24.9922 37.9816 25.7222 37.0157 26.3252C36.5724 26.595 36.1133 26.8331 35.6224 26.9759C35.2266 27.087 34.8308 27.1187 34.4349 27.0711C34.0233 26.9759 33.7224 26.7061 33.7383 26.1983C33.7541 25.5 34.4033 24.1034 35.0208 23.4528C35.2583 23.2306 35.4641 23.1195 35.7649 23.056C36.5566 22.8973 37.3007 22.5958 38.0291 22.2466C38.2824 22.1197 38.5357 21.961 38.7574 21.7864C38.9474 21.6277 39.1057 21.4373 39.2482 21.231C39.359 21.0723 39.359 20.8501 39.2957 20.6914C39.2482 20.5485 39.1849 20.4375 39.1215 20.3264C38.9632 20.0407 38.7099 19.8979 38.3774 19.882C37.9816 19.8661 37.6174 19.9455 37.2691 20.1042C36.7307 20.3264 36.2557 20.6438 35.8124 20.9929C34.8624 21.7388 34.0391 22.6275 33.5008 23.7384C33.2 24.3573 33.01 25.008 33.0416 25.7222C33.0733 27.1663 34.0233 27.944 35.6858 27.452C36.5724 27.2457 37.3324 26.7537 38.0766 26.23C38.5516 25.8809 39.0265 25.5159 39.454 25.1191C39.497 25.076 39.5494 25.0376 39.6162 24.9885C39.6723 24.9474 39.7387 24.8987 39.8182 24.8335C39.8261 24.8335 39.8301 24.8335 39.8321 24.8354C39.834 24.8374 39.834 24.8414 39.834 24.8493C39.799 24.9495 39.7688 25.0387 39.7412 25.1198C39.6816 25.2954 39.6349 25.4332 39.5807 25.5635C39.359 26.1665 39.2482 26.7537 39.2799 27.3885C39.2957 27.6266 39.3749 27.9281 39.6599 28.0233C39.8974 28.1027 40.4832 27.8964 41.0057 27.3568L44.4731 23.9289C45.2331 23.1988 46.0089 22.4847 46.7848 21.7864C46.8639 21.7071 47.1014 21.5325 47.0223 21.7229C46.9827 21.842 46.9391 21.957 46.8956 22.0721C46.8521 22.1871 46.8085 22.3022 46.7689 22.4212C46.1039 24.3732 45.7715 26.3887 45.8823 28.4518C45.9139 28.9438 45.9773 29.4516 46.1198 29.9119C46.3731 30.753 46.8639 31.3402 47.1964 31.3243C47.2123 31.3243 47.2123 31.3084 47.1964 31.3084C46.8522 30.9477 46.7863 30.6645 46.6778 30.1984L46.6739 30.1817C46.6264 29.7849 46.5789 29.3881 46.5789 28.9914C46.5948 27.452 46.9114 25.9444 47.3231 24.4684C47.7031 23.0878 48.2889 21.7705 48.9539 20.5009C49.0964 20.2312 49.2706 20.0407 49.5239 19.8979C50.2047 19.517 50.8855 19.1202 51.5505 18.7076C53.6247 17.438 55.6038 15.9939 57.4088 14.3434ZM35.9233 22.6116C36.5407 21.9134 37.2057 21.3103 38.0449 20.8977C38.2666 20.7866 38.504 20.6914 38.789 20.6914C38.8207 20.6914 38.8365 20.7231 38.8365 20.739C38.8365 20.8183 38.7257 20.9929 38.694 21.0405C38.5199 21.2468 38.4249 21.342 38.2191 21.5007C37.5541 22.0721 36.7782 22.4371 35.9233 22.6275V22.6116ZM46.6983 21.2277L46.6971 21.2288C46.3928 21.5021 46.1257 21.7422 45.819 22.0086C44.679 22.9925 43.5865 24.0241 42.5573 25.1191C41.9241 25.8014 41.2592 26.452 40.5943 27.1026L40.594 27.1029C40.4199 27.2774 40.024 27.579 39.9449 27.5948C39.9369 27.5948 39.933 27.5948 39.931 27.5928C39.929 27.5909 39.929 27.5869 39.929 27.579C39.9132 27.4996 39.9449 27.2298 40.3724 26.3411C41.164 24.8176 42.0982 23.421 43.4123 22.2942C44.2515 21.5642 45.1065 20.9453 46.2464 20.7072C46.5473 20.6596 46.8006 20.6438 47.2123 20.6914C47.2598 20.6914 47.2756 20.7231 47.2439 20.739C47.0425 20.9184 46.8648 21.0781 46.6983 21.2277ZM49.6822 19.2631L49.6664 19.2472C49.715 19.1693 49.7517 19.1033 49.7837 19.0456C49.8039 19.0093 49.8222 18.9763 49.8406 18.9457C51.408 16.3747 53.1497 13.9625 55.303 11.8359C56.1263 11.0265 56.9971 10.2965 58.0105 9.72521C58.2954 9.56651 58.5963 9.43954 58.8971 9.34432C59.0871 9.28084 59.2296 9.28084 59.4513 9.28084C59.7046 9.29671 59.8788 9.45542 59.8946 9.69347C59.8946 9.97912 59.8471 10.2172 59.7363 10.4394C59.5463 10.852 59.3246 11.2329 59.0713 11.6137C58.1054 13.0579 56.8863 14.264 55.5247 15.3273C54.068 16.47 52.5322 17.5015 50.9647 18.5172C50.6753 18.7347 50.0422 19.0715 49.754 19.2249C49.7268 19.2393 49.7027 19.2521 49.6822 19.2631Z" fill="#CCB8A8"/>
<path d="M55.0813 18.8663C55.1447 18.7711 55.3663 18.4855 55.5563 18.3268C55.6671 18.2315 55.8413 18.2315 55.9521 18.3109C56.0313 18.3744 56.1263 18.6283 56.0946 18.7552C56.0729 18.8534 55.8416 19.1391 55.5964 19.442C55.4848 19.5799 55.3703 19.7213 55.2713 19.8503C55.2238 19.9138 55.1288 19.9296 55.0655 19.882C54.7805 19.6916 54.7488 19.5487 54.8597 19.2631C54.923 19.1203 54.9863 18.9933 55.0813 18.8663Z" fill="#CCB8A8"/>
</svg>
