<svg width="96" height="26" viewBox="0 0 96 26" fill="none" xmlns="http://www.w3.org/2000/svg">
<path d="M30.2318 11.4864C31.0748 10.1969 31.8412 8.88172 32.4926 7.48912C32.9908 6.41889 33.3739 5.30997 33.5144 4.11079C33.6677 2.82135 33.3867 1.63507 32.6587 0.564838C32.5309 0.371422 32.3649 0.203795 32.1861 0.0490625C32.1477 0.010379 32.0711 -0.0154074 32.0328 0.010381C31.9817 0.0361693 32.0328 0.139325 32.0583 0.165113C32.4543 0.513261 32.6076 0.977458 32.7098 1.46744C32.8758 2.254 32.8119 3.04056 32.6459 3.82712C32.5182 4.42026 32.3138 4.98761 32.0966 5.55497C31.6368 6.74125 31.011 7.85016 30.3595 8.94619C29.6698 10.0938 28.929 11.2027 28.1754 12.2987C27.4601 13.3561 26.7065 14.3876 25.9273 15.3934C24.9694 16.6183 23.9986 17.8304 22.9385 18.9651C21.7633 20.2159 19.2854 22.64 18.3274 23.0397C18.1997 23.0784 18.0336 23.0655 17.9953 22.8979C17.9442 22.7045 17.8165 21.9824 17.8804 20.203C18.0209 18.8362 18.2508 17.9336 18.6467 16.8118C19.1066 15.5223 19.7069 14.2974 20.3583 13.0982C20.5627 12.7371 21.0481 11.8216 21.0736 11.5895C21.0864 11.4864 20.9842 11.3961 20.882 11.3961C20.7364 11.4066 20.6161 11.4599 20.4937 11.5141L20.487 11.5171C20.4802 11.5201 20.4733 11.5232 20.4664 11.5262C20.4475 11.5345 20.4286 11.5428 20.4094 11.5509C19.8857 11.7958 19.4004 12.0924 18.9405 12.4277C17.9315 13.1884 16.9735 14.0266 16.0794 14.9421C14.3806 16.6828 12.8478 18.5783 11.4428 20.5769C10.8042 21.4795 10.2166 22.4079 9.73124 23.4008C9.56025 23.746 9.31773 24.3319 9.11451 24.8229C8.9534 25.2122 8.81698 25.5418 8.7605 25.6444C8.7605 25.6573 8.73495 25.6573 8.73495 25.6444C8.7094 25.3994 8.74772 23.9166 8.901 23.1816C9.182 21.8277 9.61628 20.5124 10.0633 19.2101C10.5743 17.7273 11.2257 16.296 11.9154 14.8905C12.2663 14.1728 12.6505 13.4753 13.0344 12.7785C13.1815 12.5114 13.3286 12.2443 13.4737 11.9764C13.6483 11.654 13.8243 11.3316 14.0003 11.0092C14.3522 10.3645 14.7042 9.71983 15.0448 9.07513C15.3897 8.43041 15.6068 7.73412 15.6962 6.99914C15.7728 6.30284 15.5812 5.7097 15.1086 5.20682C14.7382 4.81998 14.2784 4.62657 13.7547 4.57499C13.2438 4.52341 12.7329 4.52341 12.2347 4.58789C10.3571 4.84577 8.63277 5.51628 7.0617 6.58652C6.3975 7.03782 5.7844 7.56649 5.20962 8.13384C3.53636 9.77143 2.15689 11.6282 1.17337 13.7687C0.611362 15.0065 0.202628 16.2831 0.0365801 17.637C-0.0656033 18.4751 0.0493533 19.2746 0.343131 20.0611C0.394222 20.1514 0.483632 20.2803 0.624135 20.319C0.630521 20.2739 0.633714 20.2417 0.636907 20.2094C0.640101 20.1772 0.643294 20.145 0.649681 20.0998C0.700772 19.3648 0.841275 18.6686 0.99455 17.9465C1.45438 15.7544 2.37403 13.7687 3.60023 11.9119C4.12392 11.1253 4.71148 10.3775 5.33735 9.68117C6.55078 8.30147 7.90471 7.0894 9.52687 6.19968C10.6637 5.56786 11.8643 5.16813 13.1416 4.97472C13.5887 4.91025 14.0357 4.93603 14.47 5.03919C14.7893 5.11656 15.032 5.28418 15.1725 5.59365C15.3258 5.90311 15.313 6.22547 15.1981 6.54783C15.1342 6.75414 15.0448 6.96045 14.9298 7.14097C14.8559 7.26529 14.783 7.39059 14.71 7.51606C14.518 7.84603 14.3252 8.17727 14.1124 8.49488C13.4098 9.5909 12.7584 10.7127 12.1198 11.8474C11.5578 12.8274 11.0213 13.8203 10.5359 14.8389C9.74401 16.4894 9.09259 18.2043 8.55613 19.958C8.17294 21.1958 7.94303 22.4595 7.9558 23.7618C7.9558 24.1229 7.99412 24.471 8.04521 24.8321C8.10908 25.206 8.27512 25.5413 8.53058 25.8249C8.7605 26.0699 9.00318 26.0699 9.14368 25.7476C9.26249 25.4649 9.39821 25.1821 9.53212 24.9032C9.59976 24.7623 9.66694 24.6224 9.73124 24.4839C10.14 23.6071 10.5998 22.769 11.1235 21.9566C11.826 20.8735 12.5796 19.829 13.3588 18.8104C14.5083 17.3275 15.709 15.8963 17.0501 14.581C17.7526 13.8976 18.4679 13.2787 19.2726 12.7113C19.2787 12.7073 19.2854 12.7026 19.2928 12.6972L19.2975 12.6939C19.3375 12.6655 19.3991 12.6217 19.5025 12.5695C15.7473 17.9594 16.8585 22.3692 17.4972 23.0655C17.7271 23.2718 17.9442 23.375 18.2891 23.375C18.7873 23.375 19.7835 22.885 20.1795 22.6142L20.1796 22.6141C20.6905 22.266 21.2014 21.9179 21.6867 21.544C22.8874 20.6414 23.9731 19.6098 24.9821 18.488C25.8124 17.5596 26.566 16.5926 27.3196 15.5997C28.3414 14.2845 29.3122 12.8919 30.2318 11.4864Z" fill="#1D322B"/>
<path fill-rule="evenodd" clip-rule="evenodd" d="M95.9103 9.6167C95.8464 9.64249 92.7298 10.5064 88.8085 10.1325C88.8422 10.0391 88.8703 9.94572 88.8928 9.87074C88.9045 9.83182 88.9148 9.79786 88.9235 9.77143C89.1662 8.98487 89.3705 8.18542 89.4855 7.37307C89.6005 6.54783 89.6132 5.73549 89.4727 4.91025C89.4216 4.58789 89.345 4.26553 89.2428 3.95606C89.1994 3.81355 89.1098 3.68035 89.0211 3.54856L88.998 3.51421C88.9902 3.50246 88.9823 3.49072 88.9746 3.47897C88.9532 3.44664 88.9051 3.42332 88.8601 3.40148C88.8512 3.39719 88.8425 3.39295 88.8341 3.38871C88.7747 3.46861 88.8073 3.5253 88.8369 3.57676L88.8411 3.58408C88.8434 3.58809 88.8456 3.59206 88.8478 3.59602C88.8523 3.60434 88.8564 3.61258 88.8596 3.62081C88.8681 3.65089 88.8781 3.68097 88.888 3.71105C88.9079 3.77123 88.9277 3.83141 88.9363 3.89159C89.1023 4.75551 89.1151 5.61944 88.9874 6.49626C88.8085 7.61807 87.9655 9.90037 87.9272 9.97774C87.9272 9.98724 86.1247 9.74479 84.8641 9.57523C84.4136 9.51463 84.0322 9.46333 83.8271 9.43617C83.1884 9.34591 82.5498 9.26855 81.8984 9.20407C81.3619 9.1525 80.8254 9.10092 80.289 9.10092C79.3182 9.07513 78.3475 9.12671 77.3895 9.24276C76.3549 9.35881 75.3586 9.6038 74.4134 10.0293C73.8386 10.2872 73.2894 10.6096 72.8168 11.048C72.4592 11.3703 72.1654 11.7443 72.0121 12.2214C71.9738 12.3503 71.9483 12.4921 71.961 12.634C71.9866 12.879 72.076 13.0982 72.3314 13.1884C72.3442 13.1884 72.3698 13.1884 72.3698 13.1755C72.7146 12.5953 72.9573 12.2987 73.3277 11.9506C73.9792 11.3445 74.7583 10.9706 75.5758 10.674C76.2272 10.429 76.9042 10.2614 77.5939 10.184C78.7562 10.0422 79.9186 9.97774 81.0809 10.0164C81.2501 10.025 81.4194 10.0307 81.5882 10.0364L81.5885 10.0364C81.9291 10.0479 82.2679 10.0593 82.6009 10.0938C83.4311 10.1712 84.2614 10.2614 85.0788 10.3517C85.8197 10.429 87.3141 10.6225 87.6334 10.674C87.659 10.674 87.6717 10.6998 87.659 10.7256C87.5619 10.9441 87.1292 11.8581 86.5899 12.997L86.5894 12.998C86.2059 13.808 85.7685 14.7317 85.3598 15.5997C84.338 17.637 82.6903 20.0611 81.9495 20.9638C81.3747 21.6601 79.6759 23.3363 78.3858 23.7618C77.7216 23.981 77.3001 23.7876 77.364 23.0913C77.3654 23.0813 77.3668 23.0712 77.3682 23.0609L77.3683 23.0608C77.3798 22.9783 77.3924 22.8879 77.4151 22.8076L77.4253 22.7663C77.4731 22.5722 77.5232 22.3692 77.6067 22.1887C78.092 21.0282 78.6924 19.9193 79.2927 18.8233C79.5609 18.3204 80.4806 16.3347 80.2507 15.5868C80.0974 15.0323 79.6503 14.9679 79.1139 15.2129C78.8329 15.3418 78.5646 15.4836 78.3092 15.6513C77.2746 16.3347 76.3421 17.147 75.4225 17.9723C74.7711 18.5654 73.4044 19.958 73.1745 20.2932C73.1965 20.2043 73.396 19.8508 73.598 19.493C73.7472 19.2286 73.8978 18.9618 73.9792 18.7975C74.2091 18.3591 74.3879 17.8949 74.4773 17.392C74.5667 16.8375 74.439 16.3476 74.1069 15.8963C74.0558 15.8318 73.9153 15.7028 73.9025 15.8447C73.8897 16.0897 73.762 16.5023 73.5704 16.9665C72.5869 18.7201 70.2239 20.5898 69.5342 20.9638C69.1638 21.1701 68.4996 21.4408 67.9248 21.3893C67.5416 21.3506 67.3372 21.0669 67.3117 20.6801C67.2734 20.1256 67.5288 19.3648 68.0908 18.7588C68.2824 18.488 68.5123 18.3462 68.8317 18.2559C69.4575 18.1012 70.0451 17.8175 70.6071 17.4823C70.837 17.3533 71.0414 17.1857 71.2074 16.9794C71.4757 16.6441 71.4629 16.3734 71.1819 16.0639C71.0414 15.9092 70.8753 15.8189 70.6582 15.7931C70.3389 15.7673 70.0451 15.8576 69.7641 15.9994C68.6656 16.5539 67.7843 17.3662 67.1584 18.4365C66.9029 18.862 66.7369 19.3262 66.6858 19.8162C66.6219 20.3577 66.6858 20.9122 67.0179 21.3248C67.6693 22.1242 69.0999 21.5569 69.4192 21.3764C69.9046 21.1314 70.3389 20.8219 70.7604 20.4738C71.233 20.0869 72.0632 19.3133 72.3825 18.9909L72.3972 18.9731L72.3973 18.973C72.4545 18.9035 72.5035 18.844 72.5741 18.7846C72.638 18.6814 72.7146 18.5912 72.804 18.5138C72.5055 19.0984 72.2133 19.6247 72.0501 19.9187L72.0499 19.9191L72.0497 19.9194C71.9827 20.04 71.9376 20.1214 71.9227 20.1514C71.6034 20.7445 71.3479 21.3635 71.2968 22.034C71.2841 22.2661 71.2713 22.8205 71.5778 23.0269C71.6034 23.0397 71.6289 23.0397 71.6545 23.014C71.7534 22.9008 71.9781 22.5884 72.22 22.2524L72.2208 22.2512L72.2217 22.2499L72.2219 22.2497L72.222 22.2495C72.4481 21.9353 72.6888 21.6008 72.8551 21.3893C74.0813 19.829 75.448 18.3849 76.9552 17.0954C77.645 16.5023 78.3858 15.9607 79.165 15.5094C79.2288 15.4707 79.3055 15.4321 79.3949 15.3934C79.4587 15.3676 79.6503 15.3031 79.7397 15.4192C79.8164 15.5868 79.5481 16.051 79.446 16.2057C79.2733 16.5045 79.0988 16.8033 78.9238 17.1028L78.9233 17.1037L78.9227 17.1047C78.6449 17.5801 78.3661 18.0574 78.092 18.5396C77.6961 19.223 77.364 19.9193 77.0702 20.6543C76.8658 21.1701 76.7381 21.7245 76.6998 22.279C76.687 22.4595 76.687 22.7432 76.7126 22.9108C76.8531 23.8263 77.4023 24.4194 78.5902 24.0455C78.8967 23.9424 79.2033 23.8005 79.4843 23.6329C79.7397 23.4911 79.9824 23.3234 80.2123 23.1429C81.1065 22.4208 81.9239 21.6343 82.6264 20.7317C82.9585 20.3061 83.2651 19.9064 83.5205 19.5196C83.3162 20.0998 83.1501 20.6801 83.0096 21.2861C82.8436 22.0082 82.7669 22.7303 82.8436 23.4653C82.8691 23.7747 82.9074 23.9552 82.9841 24.2647C83.0096 24.3421 83.099 24.5097 83.214 24.5484C83.2395 24.5613 83.2523 24.5355 83.2523 24.5097C83.2395 24.3679 83.214 23.9037 83.2523 23.5684C83.3928 22.3048 83.7377 21.0798 84.2614 19.9322C85.0277 18.2172 85.8708 16.541 86.7393 14.8776C87.1608 14.0653 87.6973 12.9563 88.2721 11.5766L88.5786 10.8417C88.5786 10.8288 88.6042 10.8159 88.6169 10.8159C93.2152 11.293 95.3227 10.3904 95.7059 10.1067C95.7953 10.0422 95.8847 9.95195 95.9358 9.88748C96.0252 9.78432 96.0252 9.57801 95.9103 9.6167ZM70.4283 16.6183C70.5688 16.5281 71.0797 16.2831 71.1436 16.3991C71.233 16.5539 71.0925 16.7602 70.9903 16.8633C70.5049 17.3791 69.2404 17.8949 68.755 17.998C68.9722 17.6628 69.8663 16.9665 70.4283 16.6183Z" fill="#1D322B"/>
<path d="M68.2824 11.8603C68.4357 12.0537 68.5379 12.2342 68.6145 12.4019C68.7678 12.7758 68.7806 13.1884 68.6401 13.5366C67.2734 17.3275 61.7682 22.5884 59.5841 23.3105L59.5759 23.313C59.4498 23.3513 59.2995 23.3969 59.137 23.2202C59.126 23.198 59.1198 23.1902 59.1162 23.1812C59.1115 23.1694 59.1115 23.1556 59.1115 23.1042C59.4563 22.5368 60.542 19.1714 59.8523 16.5152C59.8427 16.5829 59.8188 16.6433 59.802 16.6856C59.7964 16.6997 59.7916 16.7118 59.7884 16.7215C59.3158 18.2043 58.5111 19.5067 57.5149 20.6929C56.7868 21.5698 55.9949 22.3821 55.1008 23.1042C54.8709 23.2847 54.6282 23.4523 54.3727 23.5942C54.0917 23.7618 53.7852 23.9037 53.4786 24.0068C52.2907 24.3807 51.7415 23.7876 51.601 22.8721C51.5754 22.7045 51.5754 22.4208 51.5882 22.2403C51.6265 21.6858 51.7543 21.1314 51.9586 20.6156C52.2524 19.8806 52.5845 19.1843 52.9805 18.5009C53.2549 18.0181 53.5341 17.5401 53.8123 17.064C53.9873 16.7645 54.1618 16.4658 54.3344 16.167C54.4366 16.0123 54.7048 15.5481 54.6282 15.3805C54.5388 15.2644 54.3472 15.3289 54.2833 15.3547C54.1939 15.3934 54.1173 15.432 54.0534 15.4707C53.2742 15.922 52.5334 16.4636 51.8437 17.0567C50.3365 18.3462 48.9698 19.7903 47.7436 21.3506C47.5772 21.5621 47.3365 21.8967 47.1103 22.2109L47.1102 22.2111C46.8677 22.5481 46.642 22.8618 46.5429 22.9753C46.5174 23.001 46.4918 23.001 46.4663 22.9881C46.1597 22.7818 46.1725 22.2274 46.1853 21.9953C46.2364 21.3248 46.4918 20.7058 46.8111 20.1127C46.886 19.969 46.9829 19.7943 47.0811 19.6172L47.0812 19.617L47.0814 19.6167L47.0818 19.616C47.1509 19.4914 47.2205 19.3657 47.2837 19.2488C46.594 19.9838 45.6233 20.7187 44.8952 21.2474C44.2565 21.7116 43.5924 22.1242 42.8643 22.4337C42.4811 22.6013 42.0851 22.7303 41.6636 22.7561C41.6332 22.7561 41.6022 22.7566 41.5711 22.7571C41.4454 22.7591 41.3164 22.7613 41.2038 22.7303C40.7823 22.6271 40.4885 22.3821 40.3736 21.9437C40.3097 21.6987 40.3097 21.4537 40.348 21.2087C40.4119 20.7574 40.5652 20.3319 40.7568 19.9193C41.191 19.0167 41.7275 18.1785 42.4172 17.4565C42.9629 16.9056 43.2221 16.7774 43.3995 16.6896C43.4082 16.6853 43.4166 16.6811 43.4249 16.677C43.4297 16.6746 43.4344 16.6723 43.4391 16.6699C43.6051 16.5796 43.7073 16.6183 43.835 16.7731C43.8606 16.8117 43.8861 16.8504 43.9117 16.902C43.9372 16.9536 43.9244 17.0309 43.8861 17.0825C42.1362 18.9651 40.6546 21.2216 40.8079 22.0726C40.8717 22.3563 41.14 22.5884 41.9574 22.3563C42.4811 22.2274 42.9793 22.0082 43.4391 21.7245C45.1379 20.6929 46.6579 19.4293 47.9479 17.8949C48.0757 17.7401 48.1906 17.5596 48.28 17.3791C48.5355 16.8633 48.7399 16.3346 48.7909 15.7673C48.8037 15.6255 48.9442 15.7544 48.9953 15.8189C49.3274 16.2702 49.4551 16.7602 49.3657 17.3146C49.2763 17.8175 49.0975 18.2817 48.8676 18.7201C48.7862 18.8845 48.6356 19.1512 48.4864 19.4156C48.2844 19.7734 48.0849 20.1269 48.0629 20.2159C48.2928 19.8806 49.6595 18.488 50.3109 17.8949C51.2306 17.0696 52.163 16.2573 53.1976 15.5739C53.4531 15.4063 53.7213 15.2644 54.0023 15.1355C54.5388 14.8905 54.9858 14.9549 55.1391 15.5094C55.369 16.2573 54.4494 18.243 54.1811 18.7459C53.5808 19.8419 52.9805 20.9508 52.4951 22.1113C52.4116 22.2919 52.3615 22.4949 52.3137 22.689L52.3035 22.7303C52.2808 22.8106 52.2681 22.9012 52.2566 22.9838C52.2552 22.994 52.2538 23.004 52.2524 23.0139C52.1885 23.7102 52.61 23.9037 53.2742 23.6844C54.5643 23.2589 56.2631 21.5827 56.8379 20.8864C57.5915 19.9838 58.3068 19.094 58.8688 18.0496C59.1753 17.4694 59.533 16.6828 59.7501 15.8447C59.7629 15.806 59.8012 15.7931 59.8268 15.8189C60.5037 16.4249 60.8614 17.5854 60.9125 18.4622C60.9891 19.7775 60.6698 21.544 60.0694 22.6787C61.9982 21.7245 67.5033 16.2702 68.3208 13.356C68.4102 13.0337 68.474 12.4663 68.1675 12.3374C68.0142 12.2729 67.746 12.2471 67.35 12.3503C65.2297 13.0079 63.8502 15.1613 63.186 16.4894C63.1349 16.5796 63.0072 16.5667 62.9817 16.4636C61.8008 11.4035 59.9404 11.5197 59.6607 11.5372C59.656 11.5375 59.6517 11.5377 59.6479 11.5379C58.6261 11.6282 58.3451 12.5695 58.2685 13.1884C58.2685 13.2142 58.2301 13.2142 58.2301 13.1884C58.1407 12.6726 58.3196 12.1827 58.5367 11.899C58.9327 11.3574 59.6224 11.1511 60.2099 11.3187C61.0402 11.5508 62.177 12.3245 63.1222 15.1226C63.1222 15.1232 63.1252 15.1166 63.1313 15.1036C63.2555 14.8352 64.6518 11.8177 67.2095 11.4735C67.6438 11.3961 67.9887 11.525 68.2824 11.8603Z" fill="#1D322B"/>
<path fill-rule="evenodd" clip-rule="evenodd" d="M46.313 11.654C47.0027 11.0222 47.6158 10.3388 48.1012 9.52642C48.28 9.21695 48.6121 8.59802 48.5993 8.01778C48.561 7.17964 47.9862 6.93465 47.2837 7.10228C46.9005 7.19254 46.5557 7.33437 46.2108 7.5149C45.3295 7.97909 44.5631 8.61092 43.835 9.28143C42.7493 10.2743 41.7914 11.3961 40.8973 12.5695C40.0313 13.7108 38.5764 16.2127 38.3775 16.5547C38.3652 16.5759 38.3577 16.5888 38.3554 16.5925C38.3498 16.5887 38.3416 16.572 38.329 16.5462C38.2567 16.3978 38.0392 15.9516 37.3208 15.9736C37.0909 15.9865 36.861 16.0123 36.6311 16.0639C35.9541 16.2444 35.3283 16.541 34.779 16.9665C34.3192 17.3275 33.8721 17.7144 33.4762 18.1399C33.0036 18.6427 32.5182 19.1585 32.0201 19.6485C31.3559 20.3061 30.6406 20.8993 29.8614 21.3892C29.5038 21.6085 29.1334 21.8019 28.7374 21.9179C28.4181 22.0082 28.0988 22.034 27.7794 21.9953C27.4473 21.9179 27.2047 21.6987 27.2174 21.2861C27.2302 20.7187 27.7539 19.584 28.252 19.0554C28.4436 18.8748 28.6097 18.7846 28.8524 18.733C29.491 18.6041 30.0913 18.3591 30.6789 18.0754C30.8833 17.9722 31.0876 17.8433 31.2665 17.7015C31.4197 17.5725 31.5475 17.4178 31.6624 17.2502C31.7518 17.1212 31.7518 16.9407 31.7007 16.8117C31.6624 16.6957 31.6113 16.6054 31.5602 16.5152C31.4325 16.2831 31.2281 16.167 30.9599 16.1541C30.6406 16.1412 30.3468 16.2057 30.0658 16.3347C29.6315 16.5152 29.2483 16.7731 28.8907 17.0567C28.1243 17.6628 27.4601 18.3849 27.0258 19.2875C26.7832 19.7903 26.6299 20.319 26.6554 20.8993C26.681 22.0727 27.4473 22.7045 28.7885 22.3048C29.5038 22.1371 30.1169 21.7374 30.7172 21.3119C31.1004 21.0282 31.4836 20.7316 31.8285 20.4093C31.8632 20.3742 31.9054 20.343 31.9593 20.3032C32.0046 20.2697 32.0581 20.2302 32.1222 20.1772C32.1286 20.1772 32.1318 20.1772 32.1334 20.1788C32.135 20.1804 32.135 20.1836 32.135 20.19C32.1068 20.2715 32.0824 20.344 32.0602 20.4098C32.0121 20.5525 31.9743 20.6645 31.9307 20.7703C31.7518 21.2603 31.6624 21.7374 31.688 22.2532C31.7007 22.4466 31.7646 22.6916 31.9945 22.7689C32.1861 22.8334 32.6587 22.6658 33.0802 22.2274L35.8775 19.4422C36.4906 18.8491 37.1165 18.2688 37.7423 17.7015C37.8062 17.637 37.9978 17.4951 37.9339 17.6499C37.902 17.7466 37.8669 17.8401 37.8317 17.9336C37.7966 18.027 37.7615 18.1205 37.7296 18.2172C37.1931 19.8032 36.9249 21.4408 37.0143 23.1171C37.0398 23.5168 37.0909 23.9294 37.2059 24.3034C37.4102 24.9868 37.8062 25.4639 38.0744 25.451C38.0872 25.451 38.0872 25.4381 38.0744 25.4381C37.7967 25.145 37.7436 24.9149 37.6561 24.5362L37.6529 24.5226C37.6146 24.2002 37.5763 23.8779 37.5763 23.5555C37.5891 22.3048 37.8445 21.0798 38.1766 19.8806C38.4832 18.7588 38.9558 17.6886 39.4922 16.657C39.6072 16.4378 39.7477 16.2831 39.9521 16.167C40.5013 15.8576 41.0505 15.5352 41.587 15.1999C43.2602 14.1684 44.8569 12.995 46.313 11.654ZM28.9801 18.372C29.4782 17.8046 30.0147 17.3146 30.6917 16.9794C30.8705 16.8891 31.0621 16.8117 31.292 16.8117C31.3175 16.8117 31.3303 16.8375 31.3303 16.8504C31.3303 16.9149 31.2409 17.0567 31.2154 17.0954C31.0749 17.2631 30.9982 17.3404 30.8322 17.4694C30.2957 17.9336 29.6698 18.2301 28.9801 18.3849V18.372ZM37.6726 17.2475L37.6716 17.2484C37.4262 17.4705 37.2106 17.6655 36.9632 17.882C36.0435 18.6814 35.1622 19.5196 34.332 20.4093C33.8211 20.9637 33.2847 21.4922 32.7484 22.0208L32.7481 22.0211C32.6076 22.1629 32.2883 22.4079 32.2244 22.4208C32.218 22.4208 32.2148 22.4208 32.2132 22.4192C32.2117 22.4176 32.2117 22.4144 32.2117 22.4079C32.1989 22.3434 32.2244 22.1242 32.5693 21.4021C33.2079 20.1643 33.9615 19.0296 35.0217 18.1141C35.6987 17.5209 36.3884 17.0181 37.3081 16.8246C37.5507 16.786 37.7551 16.7731 38.0872 16.8117C38.1255 16.8117 38.1383 16.8375 38.1128 16.8504C37.9503 16.9962 37.8069 17.1259 37.6726 17.2475ZM40.0798 15.6512L40.067 15.6384C40.1062 15.575 40.1358 15.5214 40.1617 15.4745C40.1779 15.4451 40.1927 15.4183 40.2075 15.3934C41.472 13.3045 42.8771 11.3445 44.6142 9.61668C45.2784 8.95907 45.9809 8.36592 46.7983 7.90173C47.0283 7.77278 47.271 7.66963 47.5136 7.59226C47.6669 7.54068 47.7819 7.54069 47.9607 7.54069C48.1651 7.55358 48.3056 7.68252 48.3183 7.87594C48.3183 8.10804 48.28 8.30145 48.1906 8.48198C48.0373 8.81723 47.8585 9.12669 47.6541 9.43616C46.875 10.6095 45.8915 11.5895 44.793 12.4534C43.6179 13.3818 42.3789 14.22 41.1144 15.0452C40.8809 15.222 40.3702 15.4956 40.1377 15.6202C40.1157 15.6319 40.0963 15.6424 40.0798 15.6512Z" fill="#1D322B"/>
<path d="M44.4353 15.3289C44.4864 15.2515 44.6653 15.0194 44.8185 14.8905C44.9079 14.8131 45.0485 14.8131 45.1379 14.8776C45.2017 14.9292 45.2784 15.1355 45.2528 15.2386C45.2353 15.3184 45.0487 15.5505 44.8508 15.7967C44.7608 15.9086 44.6685 16.0235 44.5886 16.1283C44.5503 16.1799 44.4737 16.1928 44.4226 16.1541C44.1927 15.9994 44.1671 15.8834 44.2565 15.6513C44.3076 15.5352 44.3587 15.4321 44.4353 15.3289Z" fill="#1D322B"/>
</svg>
