<svg width="105" height="32" viewBox="0 0 105 32" fill="none" xmlns="http://www.w3.org/2000/svg">
<path d="M48.1035 21.1173C48.1035 21.1173 48.1728 20.9089 48.1035 21.1173V21.1173Z" fill="#CCB8A8"/>
<path d="M42.7106 23.2151C41.5396 25.601 41.181 25.4381 40.1701 25.4381C39.1653 25.4343 42.926 27.276 44.5086 26.967C45.321 26.8117 46.7521 26.3292 47.4046 24.9457C48.4467 22.7464 48.0819 21.2063 48.1037 21.1176C48.1024 21.117 43.8798 20.8343 42.7107 23.2152L42.7106 23.2151Z" fill="#CCB8A8"/>
<path d="M32.5887 23.0665C31.5167 25.4892 31.1544 25.3463 30.1378 25.3863C29.1337 25.4194 32.9722 27.1106 34.5316 26.7436C35.339 26.5533 36.7484 26.0172 37.3473 24.6105C38.3041 22.3695 37.8777 20.8486 37.8945 20.7618C37.8939 20.7618 33.6631 20.6495 32.5887 23.0665L32.5887 23.0665Z" fill="#CCB8A8"/>
<path d="M37.9082 20.7134C37.9194 20.6741 37.9263 20.6516 37.9082 20.7134V20.7134Z" fill="#CCB8A8"/>
<path d="M37.8945 20.7612C37.9026 20.7325 37.9045 20.7281 37.9089 20.7131C37.902 20.7368 37.8945 20.7612 37.8945 20.7612Z" fill="#CCB8A8"/>
<path d="M29.0704 19.063C29.0623 19.0748 29.0523 19.0892 29.0273 19.1266C29.0273 19.1266 29.0542 19.0861 29.0704 19.063Z" fill="#CCB8A8"/>
<path d="M23.4091 19.475C21.6243 21.3348 21.3467 21.0838 20.4079 20.7818C19.4716 20.4829 22.4304 23.3037 23.9793 23.4828C24.7793 23.5732 26.246 23.5464 27.2545 22.4636C28.8674 20.7331 28.9752 19.1997 29.0268 19.1273C29.0268 19.1273 25.1921 17.6121 23.4091 19.4749V19.475Z" fill="#CCB8A8"/>
<path d="M29.0703 19.0628C29.082 19.0449 29.0808 19.0467 29.0703 19.0628V19.0628Z" fill="#CCB8A8"/>
<path d="M26.7084 11.4246C26.427 13.9907 30.0345 15.9697 30.0345 15.9697C30.0594 15.8898 31.1651 14.8264 31.4608 12.4699C31.6438 10.9952 30.7237 9.85377 30.1373 9.29204C29.0111 8.2124 24.9634 7.74185 25.7902 8.27667C26.6188 8.80526 26.9867 8.85581 26.7084 11.4245L26.7084 11.4246Z" fill="#CCB8A8"/>
<path d="M30.0345 15.97C30.0345 15.97 30.0264 15.9974 30.0195 16.0236C30.0233 16.008 30.0258 16.0012 30.0345 15.97Z" fill="#CCB8A8"/>
<path d="M30.0209 16.0242C30.0066 16.0722 30.0109 16.0579 30.0209 16.0242V16.0242Z" fill="#CCB8A8"/>
<path d="M22.5769 11.979C22.5701 12.0058 22.5682 12.0115 22.5645 12.0239C22.5701 12.0021 22.5769 11.979 22.5769 11.979Z" fill="#CCB8A8"/>
<path d="M19.8031 8.13835C19.5523 10.2945 22.5784 11.9783 22.5784 11.9783C22.5995 11.9146 23.5358 11.0153 23.7954 9.03638C23.9566 7.80195 23.1928 6.84027 22.7041 6.36658C21.7535 5.44669 18.3515 5.02981 19.0511 5.48352C19.7415 5.9341 20.0565 5.98153 19.8031 8.1383L19.8031 8.13835Z" fill="#CCB8A8"/>
<path d="M22.5642 12.0237C22.5561 12.0524 22.5523 12.0649 22.5642 12.0237V12.0237Z" fill="#CCB8A8"/>
<path d="M15.6117 14.2334C13.6762 15.2095 13.5207 14.9293 12.8639 14.4269C12.2047 13.9301 13.7629 16.9943 14.9406 17.5728C15.5545 17.868 16.7211 18.2624 17.8266 17.6863C19.5947 16.7577 20.1051 15.572 20.1655 15.5364C20.1661 15.5358 17.5453 13.2579 15.6117 14.2334V14.2334Z" fill="#CCB8A8"/>
<path d="M20.1855 15.5195C20.2155 15.4964 20.2517 15.4677 20.1855 15.5195V15.5195Z" fill="#CCB8A8"/>
<path d="M47.494 17.4236C47.494 17.4236 47.4921 17.4648 47.4902 17.4935C47.4909 17.4791 47.4921 17.4648 47.494 17.4236Z" fill="#CCB8A8"/>
<path d="M41.5873 10.8385C42.5254 11.168 42.9008 11.1375 43.2009 13.7149C43.5059 16.2979 47.495 17.4244 47.495 17.4244C47.4994 17.3377 48.3411 16.0359 48.0983 13.6657C47.9445 12.1804 46.791 11.2617 46.0831 10.8518C44.7322 10.0523 40.6596 10.5054 41.5872 10.8387L41.5873 10.8385Z" fill="#CCB8A8"/>
<path d="M33.3451 9.7617C34.2117 10.2491 34.5883 10.2834 34.4644 12.8728C34.3306 15.4689 38.0807 17.2369 38.0807 17.2369C38.0975 17.1545 39.1483 16.0068 39.2989 13.6304C39.388 12.1413 38.4075 11.0499 37.7781 10.5255C36.571 9.50828 32.4823 9.28923 33.3451 9.76167L33.3451 9.7617Z" fill="#CCB8A8"/>
<path d="M38.075 17.2737C38.0569 17.3542 38.0656 17.3155 38.075 17.2737V17.2737Z" fill="#CCB8A8"/>
<path d="M38.0823 17.2385C38.0823 17.2385 38.0786 17.2548 38.0742 17.2741C38.0773 17.2604 38.0773 17.2591 38.0823 17.2385Z" fill="#CCB8A8"/>
<path d="M50.6314 18.7753C49.4504 18.3147 47.2964 18.8084 46.0626 18.8209C42.4912 18.8352 38.9228 18.613 35.3882 18.0932C27.0108 16.8619 18.3358 13.5088 13.8114 5.89624C13.8954 6.03666 13.7273 6.33123 13.8114 6.47538C18.3589 14.1408 26.9947 17.3717 35.3882 18.6741C38.8071 19.2008 42.2752 19.3905 45.7314 19.3961C47.0593 19.3961 49.3708 18.8576 50.6307 19.3493C50.5716 19.3319 50.6979 18.802 50.6313 18.7752L50.6314 18.7753Z" fill="#CCB8A8"/>
<path d="M52.8708 17.6794C51.9675 17.6794 51.2422 18.4084 51.2422 19.3114C51.2422 19.3258 51.2459 19.3389 51.2465 19.3545C51.2465 19.3688 51.2422 19.3819 51.2422 19.3975C51.2422 20.3012 51.9681 21.0295 52.8658 21.0295C53.7691 21.0295 54.4974 20.3019 54.4974 19.3975C54.4974 19.3832 54.4937 19.3701 54.4931 19.3545C54.4931 19.3401 54.4974 19.327 54.4974 19.3114C54.4968 18.4078 53.7678 17.6794 52.8708 17.6794Z" fill="#CCB8A8"/>
<path d="M57.6295 21.0377C57.6295 21.0377 57.6208 21.0052 57.6133 20.9778C57.6176 20.9928 57.6195 21.0027 57.6295 21.0377Z" fill="#CCB8A8"/>
<path d="M57.6145 20.9785C57.6039 20.9391 57.6064 20.9479 57.6145 20.9785V20.9785Z" fill="#CCB8A8"/>
<path d="M65.5616 25.353C64.5531 25.353 64.2026 25.5134 63.0273 23.1326C61.8582 20.7493 57.6324 21.0389 57.6324 21.0389C57.6567 21.1188 57.2912 22.6647 58.339 24.8638C58.9858 26.2424 60.4176 26.7254 61.2269 26.8864C62.8131 27.1897 66.5719 25.353 65.5615 25.353L65.5616 25.353Z" fill="#CCB8A8"/>
<path d="M67.8361 20.6732C67.8361 20.6732 67.7786 20.4566 67.8361 20.6732V20.6732Z" fill="#CCB8A8"/>
<path d="M75.5954 25.2954C74.5807 25.2549 74.2227 25.4071 73.1477 22.9801C72.0707 20.5575 67.8356 20.673 67.8356 20.673C67.8618 20.7622 67.4322 22.2825 68.3891 24.5279C68.9879 25.9227 70.3979 26.4682 71.2022 26.6517C72.7635 27.0267 76.6064 25.3361 75.5953 25.2955L75.5954 25.2954Z" fill="#CCB8A8"/>
<path d="M85.3273 20.6988C84.3935 20.9996 84.1115 21.2474 82.3261 19.3864C80.5456 17.5298 76.709 19.0413 76.709 19.0413C76.7588 19.1099 76.8733 20.6501 78.4875 22.3813C79.4879 23.4628 80.9577 23.4872 81.7565 23.3904C83.3172 23.2157 86.2667 20.3985 85.3273 20.6987V20.6988Z" fill="#CCB8A8"/>
<path d="M76.6837 19.0039C76.645 18.9459 76.6606 18.9689 76.6837 19.0039V19.0039Z" fill="#CCB8A8"/>
<path d="M76.7086 19.0405C76.7086 19.0405 76.6967 19.0224 76.6836 19.0037C76.6923 19.0161 76.6942 19.0193 76.7086 19.0405Z" fill="#CCB8A8"/>
<path d="M75.7031 15.887C75.7605 16.0929 75.7031 15.887 75.7031 15.887V15.887Z" fill="#CCB8A8"/>
<path d="M75.7032 15.8868C75.7032 15.8868 79.3108 13.9016 79.0287 11.3355C78.7423 8.77673 79.1158 8.71746 79.9432 8.18513C80.7743 7.65467 76.7259 8.12584 75.5968 9.20798C75.0128 9.76715 74.0946 10.916 74.2776 12.3901C74.5739 14.7342 75.6783 15.8083 75.7032 15.8869L75.7032 15.8868Z" fill="#CCB8A8"/>
<path d="M83.1569 11.8975C83.1569 11.8975 86.1829 10.2062 85.937 8.05133C85.6812 5.89581 85.9974 5.84516 86.6903 5.39783C87.3863 4.946 83.9823 5.36413 83.0366 6.27528C82.5492 6.75021 81.781 7.71813 81.9416 8.95387C82.2037 10.9335 83.1375 11.829 83.1568 11.8977L83.1569 11.8975Z" fill="#CCB8A8"/>
<path d="M83.1719 11.9536C83.1781 11.9774 83.1775 11.9736 83.1719 11.9536V11.9536Z" fill="#CCB8A8"/>
<path d="M83.1562 11.8977C83.1562 11.8977 83.165 11.9302 83.1712 11.9532C83.1687 11.942 83.1662 11.9314 83.1562 11.8977Z" fill="#CCB8A8"/>
<path d="M92.8708 14.3436C92.2158 14.8485 92.0615 15.1256 90.1253 14.147C88.1898 13.1666 85.5684 15.4432 85.5684 15.4432C85.6319 15.485 86.1405 16.6689 87.9072 17.5975C89.016 18.171 90.1881 17.7816 90.7951 17.4864C91.9773 16.9048 93.5299 13.8443 92.8706 14.3435L92.8708 14.3436Z" fill="#CCB8A8"/>
<path d="M85.5687 15.443C85.4274 15.335 85.5687 15.443 85.5687 15.443V15.443Z" fill="#CCB8A8"/>
<path d="M62.5382 13.6309C62.8339 11.0504 63.2111 11.0828 64.1481 10.7463C65.0769 10.4187 61.0074 9.96376 59.6534 10.7663C58.9475 11.1776 57.7927 12.0912 57.6359 13.5802C57.3987 15.9473 58.241 17.2529 58.2416 17.334C58.2422 17.334 62.2352 16.2119 62.5383 13.6307L62.5382 13.6309Z" fill="#CCB8A8"/>
<path d="M58.2402 17.3342C58.2402 17.3342 58.2521 17.5508 58.2402 17.3342V17.3342Z" fill="#CCB8A8"/>
<path d="M71.2739 12.7842C71.1519 10.1923 71.5254 10.1592 72.3888 9.67868C73.256 9.19814 69.1642 9.42656 67.9559 10.4394C67.3389 10.963 66.3429 12.0551 66.4425 13.5467C66.5944 15.93 67.639 17.0702 67.6595 17.1531C67.6583 17.1519 71.4059 15.382 71.274 12.7839L71.2739 12.7842Z" fill="#CCB8A8"/>
<path d="M67.6582 17.1521C67.6582 17.1521 67.6651 17.1877 67.6707 17.2158C67.6682 17.2008 67.6663 17.1895 67.6582 17.1521Z" fill="#CCB8A8"/>
<path d="M67.6699 17.2161C67.6762 17.2504 67.6749 17.2441 67.6699 17.2161V17.2161Z" fill="#CCB8A8"/>
<path d="M70.3464 18.5916C78.7381 17.2898 87.3749 14.0495 91.9264 6.39031C92.0086 6.24865 91.8417 5.95034 91.9264 5.81055C87.4063 13.4343 78.7269 16.7848 70.3464 18.0118C66.8168 18.5292 63.2458 18.7507 59.6737 18.7314C58.4411 18.7251 56.2859 18.2302 55.1112 18.6921C55.0371 18.7195 55.1685 19.2444 55.1112 19.2681C56.365 18.7732 58.6739 19.313 60.0081 19.313C63.4625 19.3074 66.9307 19.1183 70.3464 18.5916V18.5916Z" fill="#CCB8A8"/>
</svg>
