<?xml version="1.0" encoding="UTF-8"?>
<!DOCTYPE svg PUBLIC "-//W3C//DTD SVG 1.1//EN" "http://www.w3.org/Graphics/SVG/1.1/DTD/svg11.dtd">
<svg xmlns="http://www.w3.org/2000/svg" version="1.1" width="32px" height="32px" style="shape-rendering:geometricPrecision; text-rendering:geometricPrecision; image-rendering:optimizeQuality; fill-rule:evenodd; clip-rule:evenodd" xmlns:xlink="http://www.w3.org/1999/xlink">
<g><path style="opacity:0.763" fill="#000000" d="M 15.5,-0.5 C 17.8333,-0.5 20.1667,-0.5 22.5,-0.5C 23.1027,4.14154 25.7694,6.47487 30.5,6.5C 30.5,8.83333 30.5,11.1667 30.5,13.5C 27.7938,13.4249 25.1272,13.0916 22.5,12.5C 22.6655,16.5138 22.4988,20.5138 22,24.5C 21.0332,27.6206 19.1999,29.954 16.5,31.5C 13.1667,31.5 9.83333,31.5 6.5,31.5C -0.395111,26.0649 -1.06178,19.8982 4.5,13C 7.53577,10.9937 10.8691,10.1604 14.5,10.5C 14.5,13.1667 14.5,15.8333 14.5,18.5C 11.1362,17.7893 8.80285,18.956 7.5,22C 9.33516,25.9176 11.8352,26.4176 15,23.5C 15.4997,15.5069 15.6664,7.50694 15.5,-0.5 Z"/></g>
</svg>
