<?xml version="1.0" encoding="utf-8"?>
<!-- Generator: Adobe Illustrator 13.0.0, SVG Export Plug-In . SVG Version: 6.00 Build 14948)  -->
<!DOCTYPE svg PUBLIC "-//W3C//DTD SVG 1.1//EN" "http://www.w3.org/Graphics/SVG/1.1/DTD/svg11.dtd">
<svg version="1.1" id="Capa_1" xmlns="http://www.w3.org/2000/svg" xmlns:xlink="http://www.w3.org/1999/xlink" x="0px" y="0px"
	 width="512px" height="512px" viewBox="0 0 512 512" enable-background="new 0 0 512 512" xml:space="preserve">
<g>
	<path fill="#333333" d="M436.987,75.013C388.682,26.6,324.416,0,256,0C187.584,0,123.318,26.6,75.013,75.013
		C26.6,123.318,0,187.584,0,256c0,68.416,26.6,132.682,75.013,180.987C123.318,485.293,187.691,512,256,512
		c68.31,0,132.682-26.601,180.987-75.013C485.293,388.682,512,324.309,512,256C512,187.691,485.399,123.318,436.987,75.013z
		 M438.052,120.126L375.169,227.91L260.256,28.728C332.928,30.111,397.406,65.756,438.052,120.126z M358.464,256.532l-51.392,87.993
		H205.354l-51.604-88.632l51.072-88.419h102.251L358.464,256.532z M228.017,30.431l62.457,108.316H61.393
		C96.612,80.439,157.367,39.155,228.017,30.431z M28.728,256c0-31.388,6.384-61.287,17.982-88.525H171.73L57.137,365.806
		C39.049,333.247,28.728,295.794,28.728,256z M74.693,392.831l62.563-108.315l115.764,198.649
		C180.243,482.314,115.658,446.989,74.693,392.831z M285.154,481.356l-62.99-108.21h93.207c0,0,0,0,0.106,0l0,0h135.235
		C415.601,431.242,355.378,472.419,285.154,481.356z M340.376,344.525l115.125-197.267c17.663,32.346,27.771,69.374,27.771,108.742
		c0,31.389-6.384,61.287-17.981,88.525H340.376z"/>
</g>
</svg>
