<?xml version="1.0" encoding="utf-8"?>
<!-- Generator: Adobe Illustrator 13.0.0, SVG Export Plug-In . SVG Version: 6.00 Build 14948)  -->
<!DOCTYPE svg PUBLIC "-//W3C//DTD SVG 1.1//EN" "http://www.w3.org/Graphics/SVG/1.1/DTD/svg11.dtd">
<svg version="1.1" id="Capa_1" xmlns="http://www.w3.org/2000/svg" xmlns:xlink="http://www.w3.org/1999/xlink" x="0px" y="0px"
   width="512px" height="512px" viewBox="0 0 512 512" enable-background="new 0 0 512 512" xml:space="preserve">
<g>
<path fill="#4E7851" d="M255.5,80.954c-116.363,0-215.738,72.375-256,174.546c40.262,102.183,139.637,174.546,256,174.546
  c116.363,0,215.729-72.363,256-174.546C471.229,153.329,371.863,80.954,255.5,80.954z M255.5,371.863
  c-64.227,0-116.363-52.137-116.363-116.363c0-64.227,52.136-116.363,116.363-116.363c64.229,0,116.363,52.136,116.363,116.363
  C371.863,319.727,319.729,371.863,255.5,371.863z M255.5,185.682c-38.636,0-69.818,31.182-69.818,69.818
  c0,38.637,31.182,69.818,69.818,69.818c38.637,0,69.818-31.184,69.818-69.818S294.137,185.682,255.5,185.682z"/>
</g>
</svg>
