<?xml version="1.0" encoding="utf-8"?>
<!-- Generator: Adobe Illustrator 13.0.0, SVG Export Plug-In . SVG Version: 6.00 Build 14948)  -->
<!DOCTYPE svg PUBLIC "-//W3C//DTD SVG 1.1//EN" "http://www.w3.org/Graphics/SVG/1.1/DTD/svg11.dtd">
<svg version="1.1" id="Capa_1" xmlns="http://www.w3.org/2000/svg" xmlns:xlink="http://www.w3.org/1999/xlink" x="0px" y="0px"
   width="512px" height="512px" viewBox="0 0 512 512" enable-background="new 0 0 512 512" xml:space="preserve">
<g>
<path fill="#84898c" d="M255.614,127.443c64.255,0,116.416,52.16,116.416,116.416c0,15.143-3.023,29.331-8.366,42.609l67.983,67.984
	c35.151-29.33,62.846-67.303,79.854-110.594C471.209,141.644,371.802,69.236,255.386,69.236c-32.605,0-63.801,5.821-92.677,16.303
	l50.295,50.284C226.283,130.468,240.482,127.443,255.614,127.443z M22.783,63.881l53.08,53.08l10.721,10.709
	C47.931,157.708,17.656,197.759-0.5,243.859c40.279,102.227,139.698,174.624,256.114,174.624c36.084,0,70.532-6.979,101.977-19.556
	l9.777,9.777l68.233,67.984l29.56-29.559L52.353,34.311L22.783,63.881z M151.533,192.631l36.096,36.096
	c-1.171,4.889-1.864,10.016-1.864,15.132c0,38.653,31.195,69.848,69.849,69.848c5.127,0,10.244-0.703,15.143-1.863l36.084,36.084
	c-15.62,7.688-32.833,12.347-51.227,12.347c-64.256,0-116.416-52.157-116.416-116.415
	C139.198,225.464,143.859,208.229,151.533,192.631z M251.885,174.477l73.35,73.339l0.455-3.729c0-38.643-31.195-69.85-69.85-69.85
	L251.885,174.477z"/>
</g>
</svg>
