<?xml version="1.0" encoding="utf-8"?>
<!-- Generator: Adobe Illustrator 13.0.0, SVG Export Plug-In . SVG Version: 6.00 Build 14948)  -->
<!DOCTYPE svg PUBLIC "-//W3C//DTD SVG 1.1//EN" "http://www.w3.org/Graphics/SVG/1.1/DTD/svg11.dtd">
<svg version="1.1" id="Capa_1" xmlns="http://www.w3.org/2000/svg" xmlns:xlink="http://www.w3.org/1999/xlink" x="0px" y="0px"
	 width="512px" height="512px" viewBox="0 0 512 512" enable-background="new 0 0 512 512" xml:space="preserve">
<g>
	<path fill="#4E7851" d="M335.898,79.939c-19.919,0-39,3.476-56.861,9.57c21.298,13.227,39.839,30.369,54.684,50.489
		c0.739-0.04,1.438-0.12,2.178-0.12c64.035,0,116.143,52.087,116.143,116.142c0,64.054-52.107,116.123-116.143,116.123
		S219.777,320.035,219.777,256c0-25.874,8.611-49.689,22.957-69.03c-14.625-14.126-33.746-23.316-54.944-25.934
		c-17.622,27.412-27.951,59.959-27.951,94.963c0,97.241,78.82,176.081,176.081,176.081C433.18,432.081,512,353.262,512,256
		C512,158.739,433.14,79.939,335.898,79.939z"/>
	<path fill="#4E7851" d="M176.061,432.081c19.92,0,39-3.477,56.862-9.57c-21.298-13.227-39.839-30.369-54.685-50.489
		c-0.739,0.021-1.438,0.121-2.178,0.121c-64.035,0-116.142-52.088-116.142-116.143s52.107-116.122,116.142-116.122
		c64.035,0,116.142,52.087,116.142,116.122c0,25.873-8.611,49.689-22.957,69.029c14.625,14.127,33.746,23.316,54.944,25.934
		c17.622-27.412,27.952-59.959,27.952-94.963c0-97.241-78.82-176.081-176.082-176.081S0,158.759,0,256
		S78.82,432.081,176.061,432.081z"/>
</g>
</svg>
