<svg width="48" height="48" viewBox="0 0 48 48" fill="none" xmlns="http://www.w3.org/2000/svg">
<path d="M17.5 40C16.5333 40 15.7083 39.6583 15.025 38.975C14.3417 38.2917 14 37.4667 14 36.5C14 35.5333 14.3417 34.7083 15.025 34.025C15.7083 33.3417 16.5333 33 17.5 33C18.4667 33 19.2917 33.3417 19.975 34.025C20.6583 34.7083 21 35.5333 21 36.5C21 37.4667 20.6583 38.2917 19.975 38.975C19.2917 39.6583 18.4667 40 17.5 40ZM30.5 40C29.5333 40 28.7083 39.6583 28.025 38.975C27.3417 38.2917 27 37.4667 27 36.5C27 35.5333 27.3417 34.7083 28.025 34.025C28.7083 33.3417 29.5333 33 30.5 33C31.4667 33 32.2917 33.3417 32.975 34.025C33.6583 34.7083 34 35.5333 34 36.5C34 37.4667 33.6583 38.2917 32.975 38.975C32.2917 39.6583 31.4667 40 30.5 40ZM17.5 27.5C16.5333 27.5 15.7083 27.1583 15.025 26.475C14.3417 25.7917 14 24.9667 14 24C14 23.0333 14.3417 22.2083 15.025 21.525C15.7083 20.8417 16.5333 20.5 17.5 20.5C18.4667 20.5 19.2917 20.8417 19.975 21.525C20.6583 22.2083 21 23.0333 21 24C21 24.9667 20.6583 25.7917 19.975 26.475C19.2917 27.1583 18.4667 27.5 17.5 27.5ZM30.5 27.5C29.5333 27.5 28.7083 27.1583 28.025 26.475C27.3417 25.7917 27 24.9667 27 24C27 23.0333 27.3417 22.2083 28.025 21.525C28.7083 20.8417 29.5333 20.5 30.5 20.5C31.4667 20.5 32.2917 20.8417 32.975 21.525C33.6583 22.2083 34 23.0333 34 24C34 24.9667 33.6583 25.7917 32.975 26.475C32.2917 27.1583 31.4667 27.5 30.5 27.5ZM17.5 15C16.5333 15 15.7083 14.6583 15.025 13.975C14.3417 13.2917 14 12.4667 14 11.5C14 10.5333 14.3417 9.70833 15.025 9.025C15.7083 8.34167 16.5333 8 17.5 8C18.4667 8 19.2917 8.34167 19.975 9.025C20.6583 9.70833 21 10.5333 21 11.5C21 12.4667 20.6583 13.2917 19.975 13.975C19.2917 14.6583 18.4667 15 17.5 15ZM30.5 15C29.5333 15 28.7083 14.6583 28.025 13.975C27.3417 13.2917 27 12.4667 27 11.5C27 10.5333 27.3417 9.70833 28.025 9.025C28.7083 8.34167 29.5333 8 30.5 8C31.4667 8 32.2917 8.34167 32.975 9.025C33.6583 9.70833 34 10.5333 34 11.5C34 12.4667 33.6583 13.2917 32.975 13.975C32.2917 14.6583 31.4667 15 30.5 15Z" fill="#84898C"/>
<rect x="4.58579" y="40" width="50" height="6" transform="rotate(-45 4.58579 40)" fill="#84898C" stroke="white" stroke-width="2"/>
</svg>
