<?xml version="1.0" encoding="utf-8"?>
<!-- Generator: Adobe Illustrator 13.0.0, SVG Export Plug-In . SVG Version: 6.00 Build 14948)  -->
<!DOCTYPE svg PUBLIC "-//W3C//DTD SVG 1.1//EN" "http://www.w3.org/Graphics/SVG/1.1/DTD/svg11.dtd">
<svg version="1.1" id="Capa_1" xmlns="http://www.w3.org/2000/svg" xmlns:xlink="http://www.w3.org/1999/xlink" x="0px" y="0px"
	 width="512px" height="512px" viewBox="-0.5 -0.5 512 512" enable-background="new -0.5 -0.5 512 512" xml:space="preserve">
<g>
	<g>
		<path fill="#363838" d="M361.921-0.5H150.233c-10.168,0-18.488,8.32-18.488,18.488v80.115H51.633
			c-10.169,0-18.488,8.32-18.488,18.488v375.923c0,10.168,8.319,18.486,18.488,18.486h311.215c10.168,0,18.487-8.318,18.487-18.486
			v-83.196h77.033c10.168,0,18.488-8.319,18.488-18.487V115.05c0-4.93-1.851-9.552-5.239-12.941L375.171,5.046
			C371.782,1.35,366.852-0.5,361.921-0.5z M334.366,464.034H80.11V145.069h51.637v245.759c0,10.17,8.32,18.488,18.488,18.488
			h184.132L334.366,464.034L334.366,464.034z M178.712,362.351V46.467h150.237v94.773c0,10.168,8.318,18.488,18.488,18.488h82.448
			v202.622H168.722H178.712z M439.879,122.753H365.93V48.186L439.879,122.753L439.879,122.753z"/>
	</g>
</g>
<rect x="-0.25" y="0" fill="none" width="511.5" height="511.5"/>
</svg>
