<svg width="24" height="24" viewBox="0 0 24 24" fill="none" xmlns="http://www.w3.org/2000/svg">
<path d="M8.4 12.6H9.6V10.2H10.8C11.14 10.2 11.425 10.085 11.655 9.855C11.885 9.625 12 9.34 12 9V7.8C12 7.46 11.885 7.175 11.655 6.945C11.425 6.715 11.14 6.6 10.8 6.6H8.4V12.6ZM9.6 9V7.8H10.8V9H9.6ZM13.2 12.6H15.6C15.94 12.6 16.225 12.485 16.455 12.255C16.685 12.025 16.8 11.74 16.8 11.4V7.8C16.8 7.46 16.685 7.175 16.455 6.945C16.225 6.715 15.94 6.6 15.6 6.6H13.2V12.6ZM14.4 11.4V7.8H15.6V11.4H14.4ZM18 12.6H19.2V10.2H20.4V9H19.2V7.8H20.4V6.6H18V12.6ZM7.2 19.2C6.54 19.2 5.975 18.965 5.505 18.495C5.035 18.025 4.8 17.46 4.8 16.8V2.4C4.8 1.74 5.035 1.175 5.505 0.705C5.975 0.235 6.54 0 7.2 0H21.6C22.26 0 22.825 0.235 23.295 0.705C23.765 1.175 24 1.74 24 2.4V16.8C24 17.46 23.765 18.025 23.295 18.495C22.825 18.965 22.26 19.2 21.6 19.2H7.2ZM7.2 16.8H21.6V2.4H7.2V16.8ZM2.4 24C1.74 24 1.175 23.765 0.705 23.295C0.235 22.825 0 22.26 0 21.6V4.8H2.4V21.6H19.2V24H2.4Z" fill="#363838"/>
</svg>
