<?xml version="1.0" encoding="utf-8"?>
<!-- Generator: Adobe Illustrator 13.0.0, SVG Export Plug-In . SVG Version: 6.00 Build 14948)  -->
<!DOCTYPE svg PUBLIC "-//W3C//DTD SVG 1.1//EN" "http://www.w3.org/Graphics/SVG/1.1/DTD/svg11.dtd">
<svg version="1.1" id="Capa_1" xmlns="http://www.w3.org/2000/svg" xmlns:xlink="http://www.w3.org/1999/xlink" x="0px" y="0px"
	 width="512px" height="512px" viewBox="0 0 512 512" enable-background="new 0 0 512 512" xml:space="preserve">
<g>
	<g>
		<g>
			<rect x="229.9" y="229.9" fill="#363838" width="51.2" height="153.6"/>
			<path fill="#363838" d="M255.5-0.5c-141.439,0-256,114.561-256,256c0,141.439,114.561,256,256,256s256-114.561,256-256
				C511.5,114.06,396.939-0.5,255.5-0.5z M255.5,460.301c-112.896,0-204.8-91.904-204.8-204.801
				c0-112.896,91.904-204.799,204.8-204.799S460.3,142.604,460.3,255.5C460.3,368.396,368.396,460.301,255.5,460.301z"/>
			<rect x="229.9" y="127.501" fill="#363838" width="51.2" height="51.2"/>
		</g>
	</g>
</g>
</svg>
