<?xml version="1.0" encoding="utf-8"?>
<!-- Generator: Adobe Illustrator 13.0.0, SVG Export Plug-In . SVG Version: 6.00 Build 14948)  -->
<!DOCTYPE svg PUBLIC "-//W3C//DTD SVG 1.1//EN" "http://www.w3.org/Graphics/SVG/1.1/DTD/svg11.dtd">
<svg version="1.1" id="Capa_1" xmlns="http://www.w3.org/2000/svg" xmlns:xlink="http://www.w3.org/1999/xlink" x="0px" y="0px"
	 width="512px" height="512px" viewBox="0 0 512 512" enable-background="new 0 0 512 512" xml:space="preserve">
<path fill="#333333" d="M268.143,20.634l53.934,167.452l176.082-0.189c7.329,0,13.344,5.825,13.344,13.154
	c0,4.321-2.25,8.264-5.446,10.715l0,0L363.419,314.938l54.688,167.439c2.25,6.95-1.505,14.279-8.454,16.54
	c-4.513,1.504-9.401,0.379-12.775-2.438L255.545,393.294L113.289,497.036c-6.015,4.321-14.279,3.007-18.411-2.818
	c-2.628-3.575-3.197-8.087-1.882-11.84h-0.189l54.878-167.438L5.048,211.753c-6.015-4.321-7.329-12.585-3.007-18.423
	c2.818-3.942,7.14-5.825,11.65-5.446l175.148,0.189L242.96,20.622c2.25-6.95,9.578-10.715,16.54-8.644
	C263.82,13.494,266.816,16.679,268.143,20.634L268.143,20.634z M130.764,451.559"/>
</svg>
