<?xml version="1.0" encoding="utf-8"?>
<!-- Generator: Adobe Illustrator 13.0.0, SVG Export Plug-In . SVG Version: 6.00 Build 14948)  -->
<!DOCTYPE svg PUBLIC "-//W3C//DTD SVG 1.1//EN" "http://www.w3.org/Graphics/SVG/1.1/DTD/svg11.dtd">
<svg version="1.1" id="Capa_1" xmlns="http://www.w3.org/2000/svg" xmlns:xlink="http://www.w3.org/1999/xlink" x="0px" y="0px"
	 width="512px" height="512px" viewBox="0 0 512 512" enable-background="new 0 0 512 512" xml:space="preserve">
<g>
	<g>
		<path fill="#333333" d="M436.833,191.5h-32v-42.667C404.833,66.49,337.844-0.5,255.5-0.5S100.167,33.823,100.167,116.166v10.667
			c0,5.896,4.771,10.667,10.667,10.667H153.5c5.896,0,10.667-4.771,10.667-10.667v-10.667c0-47.052,44.281-52.666,91.333-52.666
			s85.333,38.281,85.333,85.333V191.5H74.167c-5.896,0-10.667,4.771-10.667,10.667v266.667c0,23.531,19.135,42.666,42.667,42.666
			h298.667c23.531,0,42.666-19.135,42.666-42.667V202.167C447.5,196.271,442.729,191.5,436.833,191.5z M287.438,414.323
			c0.334,3.01-0.635,6.03-2.654,8.292c-2.021,2.26-4.917,3.552-7.948,3.552h-42.667c-3.031,0-5.927-1.292-7.948-3.552
			s-2.99-5.281-2.656-8.292l6.729-60.511c-10.927-7.947-17.458-20.521-17.458-34.313c0-23.531,19.135-42.667,42.667-42.667
			c23.532,0,42.667,19.135,42.667,42.667c0,13.792-6.53,26.365-17.458,34.313L287.438,414.323z"/>
	</g>
</g>
</svg>
