<?xml version="1.0" encoding="iso-8859-1"?>
<!-- Generator: Adobe Illustrator 16.0.0, SVG Export Plug-In . SVG Version: 6.00 Build 0)  -->
<!DOCTYPE svg PUBLIC "-//W3C//DTD SVG 1.1//EN" "http://www.w3.org/Graphics/SVG/1.1/DTD/svg11.dtd">
<svg version="1.1" id="Capa_1" xmlns="http://www.w3.org/2000/svg" xmlns:xlink="http://www.w3.org/1999/xlink" x="0px" y="0px"
	 width="46px" height="46px" viewBox="0 0 48.432 48.431" style="enable-background:new 0 0 48.432 48.431;"
	 xml:space="preserve">
<g fill="#fff">
	<g id="Layer_1_copy_4_">
		<path d="M41.412,24.389c0,0.247-0.021,0.474-0.061,0.681c-0.144,0.883-0.941,1.392-1.311,1.392
			c-0.615,0.012-0.983-0.506-0.983-1.278c0-0.912,0.532-1.947,1.413-1.947C41.167,23.234,41.412,23.797,41.412,24.389z
			 M43.359,27.121h-0.043v0.101h0.062c0,0,0.021,0,0.041-0.008c0.021-0.009,0.021-0.028,0.021-0.045c0-0.015,0-0.031-0.021-0.039
			C43.42,27.121,43.379,27.121,43.359,27.121z M47.383,32.029c0.042,0.073,0.062,0.152,0.062,0.232s-0.021,0.159-0.062,0.232
			c-0.042,0.074-0.1,0.134-0.173,0.175c-0.074,0.041-0.152,0.062-0.231,0.062c-0.082,0-0.16-0.021-0.234-0.062
			c-0.073-0.041-0.131-0.101-0.174-0.175c-0.041-0.073-0.062-0.151-0.062-0.232s0.021-0.159,0.062-0.232
			c0.041-0.076,0.102-0.133,0.176-0.174s0.15-0.062,0.23-0.062c0.079,0,0.155,0.021,0.229,0.062
			C47.283,31.896,47.342,31.953,47.383,32.029z M47.076,32.265c0.041-0.018,0.061-0.059,0.061-0.102c0-0.039-0.02-0.078-0.041-0.098
			c-0.041-0.021-0.082-0.022-0.102-0.022H46.83v0.392h0.082v-0.154h0.061l0.062,0.154h0.102L47.076,32.265z M23.983,23.9
			c0-0.46-0.287-0.729-0.799-0.729c-0.553,0-0.942,0.361-1.106,1.019l1.905,0.004C23.983,24.07,23.983,23.975,23.983,23.9z
			 M43.707,27.246c0,0.188-0.143,0.34-0.328,0.34c-0.184,0-0.348-0.15-0.348-0.34c0-0.185,0.164-0.336,0.348-0.336
			C43.564,26.91,43.707,27.062,43.707,27.246z M43.48,27.273c0.041-0.018,0.062-0.06,0.062-0.102c0-0.04-0.021-0.079-0.041-0.098
			c-0.041-0.021-0.082-0.023-0.104-0.023h-0.164v0.393h0.082V27.29h0.062l0.062,0.153h0.103L43.48,27.273z M48.432,24.209
			c0,0.002,0,0.004,0,0.007c0.002,8.005-6.484,14.497-14.49,14.499c-3.744,0.001-7.158-1.418-9.729-3.749
			c0.012-0.012,0.025-0.02,0.037-0.031c0,0,0,0-0.001-0.002h0.003c0.527-0.48,1.02-0.998,1.472-1.552H22.73
			c0.459,0.562,0.945,1.099,1.482,1.584c-2.572,2.327-5.979,3.745-9.717,3.745C6.494,38.71,0,32.217,0,24.215
			c0-7.97,6.443-14.444,14.402-14.496c0.031,0,0.062,0,0.093,0c3.738,0,7.146,1.418,9.718,3.745c2.57-2.328,5.98-3.747,9.723-3.748
			C41.939,9.715,48.43,16.204,48.432,24.209z M21.861,16.514h4.913c-0.34-0.542-0.717-1.061-1.125-1.552h-2.754
			C22.523,15.463,22.175,15.995,21.861,16.514z M20.22,19.59h8.013c-0.18-0.532-0.388-1.05-0.625-1.553h-6.605
			C20.579,18.836,20.299,19.44,20.22,19.59z M15.052,20.708h-2.786l-1.905,4.324l-0.123-4.324H7.555l-1.332,6.982H7.78l1.024-5.334
			l0.287,5.334h1.557l2.355-5.37l-1.024,5.37h1.72L15.052,20.708z M19.906,23.55c0-1.088-0.779-1.665-2.253-1.665
			c-0.635,0-1.188,0.081-2.048,0.299l-0.225,1.279l0.143-0.037l0.246-0.062c0.368-0.098,0.921-0.157,1.413-0.157
			c0.798,0,1.106,0.14,1.106,0.515c0,0.104-0.021,0.182-0.062,0.369c-0.266-0.027-0.512-0.044-0.696-0.044
			c-1.904,0-3.01,0.808-3.01,2.19c0,0.916,0.635,1.549,1.557,1.549c0.778,0,1.373-0.217,1.802-0.685l-0.041,0.587h1.433l0.02-0.154
			l0.021-0.194l0.041-0.288l0.061-0.361l0.369-2.017C19.886,24.043,19.906,23.831,19.906,23.55z M20.214,25.254
			c0,1.673,1.004,2.546,2.929,2.546c0.594,0,1.167-0.075,1.741-0.229l0.286-1.422c-0.614,0.25-1.167,0.36-1.782,0.36
			c-0.983,0-1.495-0.335-1.495-0.992c0-0.054,0-0.093,0.021-0.18h3.398c0.145-0.576,0.207-0.983,0.207-1.404
			c0-1.259-0.902-2.062-2.314-2.062C21.484,21.873,20.214,23.307,20.214,25.254z M27.636,30.337h-6.843
			c0.251,0.539,0.544,1.052,0.856,1.552h5.143C27.104,31.39,27.385,30.873,27.636,30.337z M30.188,21.998
			c-0.449-0.062-1.125-0.112-1.535-0.112c-1.926,0-2.602,0.873-2.602,1.922c0,0.716,0.41,1.212,1.331,1.583
			c0.696,0.283,0.799,0.367,0.799,0.627c0,0.354-0.307,0.512-0.983,0.512c-0.531,0-1.004-0.068-1.557-0.224l-0.246,1.31l0.082,0.016
			l0.307,0.056c0.104,0.021,0.267,0.037,0.472,0.052c0.41,0.03,0.717,0.047,0.941,0.047c1.844,0,2.684-0.599,2.684-1.895
			c0-0.779-0.35-1.236-1.229-1.581c-0.717-0.288-0.799-0.352-0.799-0.618c0-0.305,0.286-0.461,0.84-0.461
			c0.349,0,0.799,0.031,1.25,0.083L30.188,21.998z M32.031,25.998c0-0.053,0-0.131,0.021-0.234l0.45-2.369h0.881l0.246-1.382h-0.88
			l0.245-1.304h-1.699l-0.799,4.336l-0.081,0.449l-0.103,0.559c-0.021,0.18-0.041,0.35-0.041,0.51c0,0.805,0.471,1.248,1.352,1.248
			c0.39,0,0.758-0.057,1.229-0.186l0.225-1.26c-0.123,0.037-0.266,0.055-0.449,0.055C32.216,26.418,32.031,26.293,32.031,25.998z
			 M37.029,23.624l0.205,0.042l0.612-1.605c-0.144-0.056-0.164-0.056-0.184-0.062c-0.083-0.02-0.146-0.031-0.146-0.034
			c-0.061-0.008-0.123-0.014-0.185-0.014c-0.554,0-0.962,0.252-1.495,0.923l0.164-0.862h-1.557l-1.045,5.68h1.721
			c0.615-3.473,0.88-4.083,1.699-4.083C36.886,23.609,36.947,23.614,37.029,23.624z M43.195,25.117
			c0.041-0.33,0.041-0.354,0.041-0.707c0-1.44-0.942-2.562-2.726-2.562c-2.048,0-3.379,1.365-3.379,3.376
			c0,1.441,0.776,2.619,2.726,2.619C41.617,27.844,42.928,27.005,43.195,25.117z M43.83,27.246c0-0.242-0.205-0.441-0.451-0.441
			s-0.451,0.199-0.451,0.441c0,0.246,0.205,0.445,0.451,0.445S43.83,27.492,43.83,27.246z M16.179,26.004
			c0,0.353,0.226,0.579,0.614,0.579c0.697,0,1.188-0.582,1.229-1.422c-0.185-0.019-0.267-0.021-0.39-0.021
			C16.671,25.139,16.179,25.43,16.179,26.004z M46.953,32.115h-0.041v0.101h0.062c0,0,0.021,0,0.041-0.008
			c0.021-0.009,0.021-0.028,0.021-0.046c0-0.014,0-0.03-0.021-0.039C47.015,32.115,46.974,32.115,46.953,32.115z"/>
	</g>
</g>
<g>
</g>
<g>
</g>
<g>
</g>
<g>
</g>
<g>
</g>
<g>
</g>
<g>
</g>
<g>
</g>
<g>
</g>
<g>
</g>
<g>
</g>
<g>
</g>
<g>
</g>
<g>
</g>
<g>
</g>
</svg>
