<svg width="64" height="22" viewBox="0 0 64 22" fill="none" xmlns="http://www.w3.org/2000/svg">
<path d="M41.6855 0C37.1413 0 33.0803 2.39654 33.0803 6.82432C33.0803 11.9022 40.2826 12.2529 40.2826 14.8038C40.2826 15.8779 39.0728 16.8394 37.0066 16.8394C34.0742 16.8394 31.8825 15.4959 31.8825 15.4959L30.9447 19.9641C30.9447 19.9641 33.4695 21.0989 36.8215 21.0989C41.7898 21.0989 45.6993 18.5847 45.6993 14.0812C45.6993 8.71556 38.467 8.37526 38.467 6.00754C38.467 5.16613 39.4601 4.24421 41.5205 4.24421C43.8452 4.24421 45.7418 5.22129 45.7418 5.22129L46.6596 0.905838C46.6596 0.905838 44.5959 0 41.6855 0V0ZM0.110034 0.325695L0 0.977084C0 0.977084 1.91177 1.33308 3.63364 2.04322C5.85068 2.85755 6.00861 3.3316 6.38199 4.804L10.4508 20.763H15.905L24.3076 0.325695H18.8659L13.4667 14.2211L11.2635 2.44271C11.0615 1.09468 10.038 0.325695 8.78525 0.325695H0.110034V0.325695ZM26.4958 0.325695L22.2269 20.763H27.4161L31.6699 0.325695H26.4958V0.325695ZM55.4373 0.325695C54.186 0.325695 53.5231 1.00732 53.0366 2.19844L45.4342 20.763H50.8759L51.9287 17.6689H58.5583L59.1985 20.763H64L59.8112 0.325695H55.4373V0.325695ZM56.145 5.84724L57.7581 13.5163H53.4367L56.145 5.84724V5.84724Z" fill="white"/>
</svg>
